<svg width="300" height="100" viewBox="0 0 9738 3784" fill="none" xmlns="http://www.w3.org/2000/svg">
<path d="M5242.98 2648.23V2145.2H4528.15V309.792H3967.49V2648.23H5242.98Z" fill="#6E6CA9"/>
<path d="M7329.83 311.516V2649.95H8018C8769.64 2649.95 9250.69 2212.33 9250.69 1480.73C9250.69 749.138 8769.64 311.516 8018 311.516H7329.83ZM8018 805.929C8402.17 805.929 8656.06 1033.09 8656.06 1480.73C8656.06 1928.38 8402.17 2155.54 8018 2155.54H7901.08V805.929H8018Z" fill="#3ABFF0"/>
<path d="M3970.84 3559.1H4255.29V3479.2H4059.53V2999.79H3970.84V3559.1ZM4269.79 3352.16C4269.79 3478.4 4356.09 3569.49 4486.33 3569.49C4585.41 3569.49 4640.54 3512.76 4660.52 3478.4L4602.99 3435.26C4587.01 3458.43 4551.05 3493.58 4487.93 3493.58C4413.62 3493.58 4360.08 3445.64 4358.49 3371.33H4672.5C4673.3 3364.14 4673.3 3356.95 4673.3 3349.76C4673.3 3218.72 4598.99 3131.63 4472.75 3131.63C4358.49 3131.63 4269.79 3222.72 4269.79 3352.16ZM4361.68 3311.41C4367.28 3245.89 4413.62 3204.34 4473.54 3204.34C4533.47 3204.34 4581.41 3242.69 4584.61 3311.41H4361.68ZM4689.7 3430.46C4689.7 3514.36 4759.21 3569.49 4847.11 3569.49C4899.04 3569.49 4932.6 3551.91 4954.17 3527.94L4961.37 3559.1H5037.27V3289.83C5037.27 3198.75 4994.92 3131.63 4871.08 3131.63C4801.56 3131.63 4745.63 3157.99 4712.07 3179.57L4745.63 3240.29C4775.99 3223.51 4815.94 3207.53 4862.29 3207.53C4917.42 3207.53 4950.98 3236.3 4950.98 3284.24V3323.39C4935 3309.01 4899.04 3293.03 4851.1 3293.03C4755.22 3293.03 4689.7 3349.76 4689.7 3430.46ZM4776.79 3428.06C4776.79 3386.51 4811.95 3356.15 4864.68 3356.15C4917.42 3356.15 4953.38 3384.12 4953.38 3428.06C4953.38 3471.21 4916.62 3499.98 4865.48 3499.98C4812.75 3499.98 4776.79 3469.61 4776.79 3428.06ZM5305.41 3131.63C5246.28 3131.63 5202.33 3165.99 5186.35 3207.53V3142.01H5100.86V3559.1H5187.95V3379.32C5187.95 3289.03 5214.32 3219.52 5305.41 3219.52V3131.63ZM5545.04 3131.63C5489.11 3131.63 5445.97 3163.59 5427.59 3196.35V3142.01H5342.09V3559.1H5429.19V3307.41C5429.19 3250.68 5465.14 3209.93 5520.27 3209.93C5568.22 3209.93 5604.17 3243.49 5604.17 3301.02V3559.1H5690.47V3308.21C5690.47 3217.12 5652.91 3131.63 5545.04 3131.63ZM6036.99 3559.1H6125.68V3079.69H6266.31V2999.79H5896.36V3079.69H6036.99V3559.1ZM6327.88 3351.36C6327.88 3269.86 6382.21 3209.13 6460.52 3209.13C6538.02 3209.13 6594.75 3269.06 6594.75 3350.56C6594.75 3432.06 6538.02 3491.99 6460.52 3491.99C6383.01 3491.99 6327.88 3433.66 6327.88 3351.36ZM6239.99 3351.36C6239.99 3477.6 6332.67 3569.49 6460.52 3569.49C6587.56 3569.49 6681.85 3476.01 6681.85 3350.56C6681.85 3225.11 6589.16 3131.63 6460.52 3131.63C6335.07 3131.63 6239.99 3225.11 6239.99 3351.36ZM6908.21 3559.1H7040.05C7224.62 3559.1 7338.08 3461.62 7338.08 3279.45C7338.08 3104.46 7227.02 2999.79 7040.05 2999.79H6908.21V3559.1ZM6996.9 3481.6V3078.09H7048.84C7168.69 3078.09 7246.2 3150.8 7246.2 3279.45C7246.2 3412.88 7168.69 3481.6 7048.84 3481.6H6996.9ZM7387.21 3559.1H7474.31V3142.01H7387.21V3559.1ZM7376.03 3038.94C7376.03 3069.3 7400 3093.27 7430.36 3093.27C7460.72 3093.27 7484.69 3069.3 7484.69 3038.94C7484.69 3008.58 7460.72 2984.61 7430.36 2984.61C7400 2984.61 7376.03 3008.58 7376.03 3038.94ZM7514.61 3486.39C7535.39 3523.95 7580.13 3569.49 7664.83 3569.49C7750.32 3569.49 7815.84 3519.15 7815.84 3441.65C7815.84 3294.63 7612.09 3328.19 7612.09 3248.28C7612.09 3219.52 7636.06 3202.74 7668.02 3202.74C7714.37 3202.74 7736.74 3229.91 7748.73 3249.08L7808.65 3209.13C7792.67 3177.17 7751.12 3131.63 7672.82 3131.63C7592.12 3131.63 7529.79 3176.37 7529.79 3249.88C7529.79 3394.51 7732.75 3365.74 7732.75 3445.64C7732.75 3479.2 7705.58 3497.58 7668.82 3497.58C7616.89 3497.58 7588.12 3471.21 7568.95 3443.25L7514.61 3486.39ZM8187.21 3182.76C8163.24 3161.99 8116.9 3131.63 8048.18 3131.63C7924.34 3131.63 7830.85 3225.91 7830.85 3350.56C7830.85 3476.01 7921.94 3569.49 8048.98 3569.49C8118.5 3569.49 8166.44 3535.93 8187.21 3517.55L8162.44 3445.64C8144.87 3461.62 8107.31 3491.99 8053.78 3491.99C7976.27 3491.99 7918.74 3430.46 7918.74 3350.56C7918.74 3271.46 7971.48 3210.73 8050.58 3210.73C8103.32 3210.73 8141.67 3237.9 8160.85 3256.27L8187.21 3182.76ZM8291.07 3351.36C8291.07 3269.86 8345.4 3209.13 8423.7 3209.13C8501.21 3209.13 8557.94 3269.06 8557.94 3350.56C8557.94 3432.06 8501.21 3491.99 8423.7 3491.99C8346.2 3491.99 8291.07 3433.66 8291.07 3351.36ZM8203.18 3351.36C8203.18 3477.6 8295.86 3569.49 8423.7 3569.49C8550.75 3569.49 8645.03 3476.01 8645.03 3350.56C8645.03 3225.11 8552.35 3131.63 8423.7 3131.63C8298.26 3131.63 8203.18 3225.11 8203.18 3351.36ZM8897.79 3559.1L9051.2 3142.01H8960.11L8849.05 3464.82L8737.18 3142.01H8644.5L8799.51 3559.1H8897.79ZM9051.62 3352.16C9051.62 3478.4 9137.92 3569.49 9268.16 3569.49C9367.24 3569.49 9422.37 3512.76 9442.34 3478.4L9384.81 3435.26C9368.83 3458.43 9332.88 3493.58 9269.76 3493.58C9195.45 3493.58 9141.91 3445.64 9140.31 3371.33H9454.33C9455.13 3364.14 9455.13 3356.95 9455.13 3349.76C9455.13 3218.72 9380.82 3131.63 9254.57 3131.63C9140.31 3131.63 9051.62 3222.72 9051.62 3352.16ZM9143.51 3311.41C9149.1 3245.89 9195.45 3204.34 9255.37 3204.34C9315.3 3204.34 9363.24 3242.69 9366.44 3311.41H9143.51ZM9701.65 3131.63C9642.52 3131.63 9598.57 3165.99 9582.59 3207.53V3142.01H9497.1V3559.1H9584.19V3379.32C9584.19 3289.03 9610.56 3219.52 9701.65 3219.52V3131.63Z" fill="#6E6CA9"/>
<path d="M6699.11 2648.23V2143.47H6020.01C6131.8 1828.41 6927.9 1567.56 6927.9 964.554C6927.9 503.83 6585.75 232.816 6121.64 232.816C5586.38 232.816 5372.96 591.909 5311.98 849.373L5813.36 998.431C5854.01 869.699 5942.09 764.681 6097.92 764.681C6243.59 764.681 6338.45 845.985 6338.45 988.268C6338.45 1343.97 5328.92 1757.27 5328.92 2441.58V2648.23H6699.11Z" fill="#EC619F"/>
<path d="M7281.57 2409.95L6672.64 2780.61L6672.64 2012.83L7281.57 2409.95Z" fill="#EC619F"/>
<g clip-path="url(#clip0)">
<path d="M3595.49 2170.5C3595.49 1975.66 3501.07 1798.73 3344.2 1690.89C3535.85 1456.68 3468.49 1088.83 3208.88 935.783C3268.66 654.962 3006.25 394.84 2726.04 456.711C2669.28 141.401 2255.42 50.4321 2072.07 312.409C1888.58 50.2996 1474.78 141.586 1418.1 456.711C1137.85 394.84 875.478 655.002 935.263 935.79C675.598 1088.86 608.335 1456.73 799.929 1690.89C439.254 1932.63 476.181 2496.62 865.722 2689.4C854.104 2825.16 898.31 2961.95 987.126 3065.08C1055.98 3145.29 1147.84 3202.06 1249.26 3227.83C1363.36 3602.34 1872.06 3663.25 2072.07 3331.2C2272.23 3663.42 2780.89 3602.14 2894.9 3227.84C3131.39 3171.77 3302.9 2931.92 3278.43 2689.41C3472.63 2590.24 3595.49 2391.8 3595.49 2170.5V2170.5ZM1335.52 580.844C1375.78 580.844 1414.58 589.329 1450.82 606.067C1471.34 615.538 1495.26 613.902 1514.29 601.728C1533.31 589.554 1544.82 568.517 1544.82 545.931V521.232C1557.52 215.367 1993.24 215.605 2005.82 521.232V759.814H1903.32C1826.56 552.389 1521.49 602.066 1517.26 826.05C1521.51 1050.07 1826.6 1099.68 1903.32 892.286H2005.82V1237.52H1601.96C1571.92 1148.75 1474.14 1089.37 1378.28 1108.37L1278.85 936.161C1267.02 915.667 1245.15 903.043 1221.49 903.043H1063.92C1034.02 737.194 1166.76 579.221 1335.52 580.844V580.844ZM1782.2 826.05C1782.2 862.573 1752.49 892.286 1715.97 892.286C1628.1 888.65 1628.13 763.437 1715.97 759.814C1752.49 759.814 1782.2 789.527 1782.2 826.05ZM1414.59 1237.51C1451.12 1237.51 1480.83 1267.22 1480.83 1303.74C1477.19 1391.61 1351.99 1391.59 1348.36 1303.74C1348.36 1267.22 1378.08 1237.51 1414.59 1237.51ZM1683.92 3417.07C1530.88 3417.07 1398.12 3308.34 1368.25 3158.53C1362.85 3131.43 1341.19 3110.53 1313.92 3106.09C1124.35 3075.79 988.113 2907.82 996.75 2715.81H1439.43L1519.78 2855C1490.05 2889.74 1472.07 2934.83 1472.07 2984.04C1482.97 3247.64 1858.6 3247.59 1869.48 2984.04C1870.79 2861.37 1754.64 2765.15 1634.45 2788.66L1535.03 2616.46C1523.2 2595.96 1501.33 2583.34 1477.67 2583.34H951.186C807.149 2520.47 708.285 2389.43 685.917 2236.73H824.934C901.701 2444.16 1206.77 2394.48 1211 2170.5C1206.75 1946.48 901.661 1896.87 824.934 2104.26H685.891C706.464 1962.94 792.352 1840.21 920.943 1772.25H1340.44L1420.8 1911.44C1300.2 2052.71 1423.97 2269.26 1608.1 2235.87L1707.52 2408.07C1719.35 2428.57 1741.22 2441.19 1764.88 2441.19H2005.82V3095.17C2005.82 3272.67 1861.42 3417.07 1683.92 3417.07V3417.07ZM1670.77 2917.81C1707.3 2917.81 1737.01 2947.53 1737.01 2984.05C1733.37 3071.91 1608.16 3071.9 1604.54 2984.05C1604.54 2947.52 1634.25 2917.81 1670.77 2917.81ZM946.059 2170.5C946.059 2133.98 975.773 2104.27 1012.3 2104.27C1100.16 2107.9 1100.14 2233.12 1012.3 2236.74C975.773 2236.74 946.059 2207.03 946.059 2170.5ZM1571.78 2106.72C1535.26 2106.72 1505.55 2077.01 1505.55 2040.49C1509.19 1952.61 1634.4 1952.65 1638.02 2040.49C1638.02 2077.01 1608.3 2106.72 1571.78 2106.72ZM3184.47 2586.94C3183.45 2587.29 3182.43 2587.67 3181.42 2588.08C3091.37 2624.74 2989.91 2630.86 2896.04 2605.56C2860.68 2596.11 2824.38 2617.07 2814.92 2652.4C2805.45 2687.73 2826.42 2724.06 2861.75 2733.52C2954.65 2758.53 3054.37 2759.93 3147.69 2737.56C3145.17 2921.35 3013.27 3075.47 2831.95 3105.8C2831.33 3105.89 2830.72 3105.98 2830.11 3106.07C2777.31 3114.73 2722.57 3112.01 2670.79 3098.15C2635.48 3088.69 2599.15 3109.65 2589.68 3144.99C2580.21 3180.33 2601.19 3216.64 2636.52 3226.11C2672.37 3235.71 2709.18 3241.38 2746.21 3243.02C2589.43 3538.78 2142.48 3432.84 2138.29 3095.16V2151.99C2134.79 2064.11 2009.29 2064.17 2005.82 2151.99V2308.72H1803.11L1722.75 2169.54C1843.37 2028.26 1719.58 1811.71 1535.45 1845.11L1436.03 1672.9C1424.2 1652.4 1402.33 1639.78 1378.67 1639.78H931.408C751.06 1462.87 802.261 1147.56 1028.13 1035.51H1183.24L1263.61 1174.7C1153.9 1301 1245.73 1503.13 1414.59 1502.45C1500.95 1502.45 1574.61 1447.08 1601.95 1369.98H2005.82V1555.86C2009.32 1643.74 2134.82 1643.67 2138.3 1555.86V521.232C2149.16 224.315 2569.54 212.048 2598.83 506.388C2539.41 541.904 2490.27 591.733 2455.26 652.372C2436.96 684.053 2447.82 724.563 2479.5 742.851C2510.62 760.98 2551.59 750.574 2569.98 718.608C2598.62 668.998 2641.25 630.11 2693.27 606.133C2693.98 605.808 2694.69 605.464 2695.38 605.113C2913.16 506.302 3146.96 718.787 3069.56 945.03C3069.26 945.805 3068.97 946.586 3068.69 947.381C3046.91 1009.62 3003.46 1062.04 2946.37 1095.01C2914.69 1113.3 2903.83 1153.81 2922.13 1185.49C2940.51 1217.47 2981.48 1227.86 3012.61 1209.74C3074.27 1174.14 3125.17 1123.2 3160.72 1062.49C3345.3 1187.94 3377.61 1463.45 3224.38 1627.47C3204.44 1619.7 3184.08 1613.01 3163.46 1607.5C3128.11 1598.02 3091.82 1619 3082.35 1654.33C3072.87 1689.66 3093.84 1725.99 3129.18 1735.45C3156.93 1742.89 3184.12 1753.05 3209.96 1765.65C3210.9 1766.11 3211.85 1766.54 3212.8 1766.95C3557.87 1934.87 3539.86 2443.24 3184.47 2586.94V2586.94Z" fill="url(#paint0_linear)"/>
<path d="M2737.86 969.423C2763.72 943.558 2763.72 901.617 2737.86 875.752C2711.99 849.887 2670.05 849.887 2644.18 875.752C2568.01 955.136 2430.95 955.136 2354.78 875.752C2328.9 849.887 2286.96 849.887 2261.1 875.752C2235.23 901.617 2235.23 943.558 2261.1 969.423C2386.58 1100.21 2612.38 1100.2 2737.86 969.423V969.423Z" fill="#8E8DBD"/>
<path d="M2612.19 2314.57C2538.55 2334.31 2477.01 2381.53 2438.89 2447.56C2400.77 2513.58 2390.64 2590.5 2410.37 2664.14C2419.71 2699.76 2457.11 2720.48 2491.49 2710.97C2526.83 2701.51 2547.8 2665.18 2538.33 2629.84C2515.41 2550.88 2566.63 2462.17 2646.47 2442.54C2730.47 2416.41 2697.9 2295.19 2612.19 2314.57Z" fill="#70C2E0"/>
<path d="M2817.55 1429.69C2791.67 1403.83 2749.73 1403.83 2723.87 1429.69C2593.09 1555.18 2593.09 1780.96 2723.87 1906.45C2749.74 1932.31 2791.67 1932.31 2817.55 1906.45C2843.41 1880.58 2843.41 1838.64 2817.55 1812.77C2738.15 1736.59 2738.16 1599.54 2817.55 1523.36C2843.41 1497.5 2843.41 1455.56 2817.55 1429.69V1429.69Z" fill="#D3749E"/>
<path d="M2072.08 1787.69C2035.5 1787.69 2005.84 1817.37 2005.84 1853.95C2009.33 1941.81 2134.84 1941.78 2138.31 1853.95V1853.9C2138.31 1817.32 2108.65 1787.69 2072.08 1787.69V1787.69Z" fill="url(#paint1_linear)"/>
</g>
<defs>
<linearGradient id="paint0_linear" x1="2072.83" y1="159.216" x2="2072.83" y2="3548.04" gradientUnits="userSpaceOnUse">
<stop stop-color="#6E6CA9"/>
<stop offset="0.510417" stop-color="#EC619F"/>
<stop offset="1" stop-color="#3ABFF0"/>
</linearGradient>
<linearGradient id="paint1_linear" x1="2072.08" y1="1787.69" x2="2072.08" y2="1919.83" gradientUnits="userSpaceOnUse">
<stop stop-color="#6E6CA9"/>
<stop offset="0.510417" stop-color="#EC619F"/>
<stop offset="1" stop-color="#3ABFF0"/>
</linearGradient>
<clipPath id="clip0">
<rect width="3388.82" height="3388.82" fill="white" transform="translate(378.409 159.211)"/>
</clipPath>
</defs>
</svg>
