<?xml version="1.0" encoding="UTF-8" standalone="no"?>
<!DOCTYPE svg PUBLIC "-//W3C//DTD SVG 1.1//EN" "http://www.w3.org/Graphics/SVG/1.1/DTD/svg11.dtd">
<svg width="100%" height="100%" viewBox="0 0 2241 532" version="1.1" xmlns="http://www.w3.org/2000/svg" xmlns:xlink="http://www.w3.org/1999/xlink" xml:space="preserve" xmlns:serif="http://www.serif.com/" style="fill-rule:evenodd;clip-rule:evenodd;stroke-linejoin:round;stroke-miterlimit:2;">
    <g transform="matrix(1,0,0,1,-145.762,-839.269)">
        <g id="VLSCI-MelbBioinfo-CMYK.afdesign" transform="matrix(0.638566,0,0,0.638566,1265.77,1106.45)">
            <g transform="matrix(1,0,0,1,-1753.94,-1240.17)">
                <g id="Layer-2" serif:id="Layer 2">
                </g>
                <g id="Layer-1" serif:id="Layer 1" transform="matrix(4.16667,0,0,4.16667,0,0)">
                    <g transform="matrix(1,0,0,1,175.817,370.091)">
                        <path d="M0,8.546L2.528,8.546L3.603,8.538C4.511,8.538 5.104,8.421 5.386,8.186C5.667,7.951 5.807,7.455 5.807,6.697C5.807,5.754 5.665,5.176 5.382,4.961C5.098,4.747 4.328,4.641 3.07,4.641L0,4.641L0,8.546ZM0,3.635L3.131,3.635C4.126,3.635 4.767,3.517 5.053,3.279C5.339,3.042 5.482,2.514 5.482,1.694C5.482,0.983 5.357,0.523 5.107,0.315C4.857,0.106 4.307,0.001 3.457,0.001L0,0.001L0,3.635ZM-1.191,9.551L-1.191,-1.005L3.479,-1.005C4.773,-1.005 5.62,-0.826 6.02,-0.471C6.419,-0.115 6.619,0.638 6.619,1.787C6.619,2.957 6.168,3.697 5.266,4.007L5.266,4.029C6.384,4.298 6.944,5.125 6.944,6.512C6.944,7.631 6.724,8.417 6.283,8.87C5.842,9.324 5.075,9.551 3.982,9.551L-1.191,9.551Z" style="fill:rgb(0,94,131);fill-rule:nonzero;"/>
                    </g>
                    <g transform="matrix(-1,0,0,1,371.893,153.448)">
                        <rect x="185.351" y="215.638" width="1.191" height="10.556" style="fill:rgb(0,94,131);"/>
                    </g>
                    <g transform="matrix(1,0,0,1,193.375,378.745)">
                        <path d="M0,-8.762C-1.67,-8.762 -2.647,-8.576 -2.931,-8.205C-3.214,-7.834 -3.356,-6.561 -3.356,-4.385C-3.356,-2.204 -3.214,-0.929 -2.931,-0.558C-2.647,-0.187 -1.67,-0.001 0,-0.001C1.676,-0.001 2.655,-0.187 2.938,-0.558C3.222,-0.929 3.364,-2.204 3.364,-4.385L3.364,-5.074L3.356,-6.071C3.356,-7.236 3.16,-7.976 2.769,-8.29C2.376,-8.605 1.454,-8.762 0,-8.762M0.008,-9.767C2.003,-9.767 3.25,-9.476 3.75,-8.894C4.25,-8.311 4.5,-6.855 4.5,-4.525C4.5,-2.014 4.261,-0.465 3.782,0.123C3.302,0.711 2.044,1.005 0.008,1.005C-2.018,1.005 -3.274,0.714 -3.762,0.131C-4.249,-0.451 -4.493,-1.957 -4.493,-4.385L-4.493,-5.127L-4.477,-6.125C-4.477,-7.528 -4.161,-8.485 -3.53,-8.998C-2.898,-9.511 -1.719,-9.767 0.008,-9.767" style="fill:rgb(0,94,131);fill-rule:nonzero;"/>
                    </g>
                    <g transform="matrix(-1,0,0,1,401.565,153.448)">
                        <rect x="200.187" y="215.638" width="1.191" height="10.556" style="fill:rgb(0,94,131);"/>
                    </g>
                    <g transform="matrix(1,0,0,1,213.378,379.642)">
                        <path d="M0,-10.556L0,0L-1.956,0L-6.379,-7.184L-7.099,-8.368L-7.454,-8.954L-7.81,-9.542L-7.841,-9.542L-7.833,-9.148L-7.825,-8.746L-7.825,0L-9.016,0L-9.016,-10.556L-7.067,-10.556L-3.209,-4.261L-2.204,-2.606L-1.701,-1.786L-1.206,-0.959L-1.175,-0.959L-1.183,-1.354L-1.191,-1.755L-1.191,-10.556L0,-10.556Z" style="fill:rgb(0,94,131);fill-rule:nonzero;"/>
                    </g>
                    <g transform="matrix(1,0,0,1,217.53,378.636)">
                        <path d="M0,-8.544L0,-4.856L5.142,-4.856L5.142,-3.851L0,-3.851L0,1.006L-1.191,1.006L-1.191,-9.55L5.281,-9.55L5.281,-8.544L0,-8.544Z" style="fill:rgb(0,94,131);fill-rule:nonzero;"/>
                    </g>
                    <g transform="matrix(1,0,0,1,228.881,378.745)">
                        <path d="M0,-8.762C-1.67,-8.762 -2.647,-8.576 -2.931,-8.205C-3.214,-7.834 -3.356,-6.561 -3.356,-4.385C-3.356,-2.204 -3.214,-0.929 -2.931,-0.558C-2.647,-0.187 -1.67,-0.001 0,-0.001C1.676,-0.001 2.655,-0.187 2.938,-0.558C3.222,-0.929 3.364,-2.204 3.364,-4.385L3.364,-5.074L3.356,-6.071C3.356,-7.236 3.16,-7.976 2.769,-8.29C2.376,-8.605 1.454,-8.762 0,-8.762M0.008,-9.767C2.003,-9.767 3.25,-9.476 3.75,-8.894C4.25,-8.311 4.5,-6.855 4.5,-4.525C4.5,-2.014 4.261,-0.465 3.782,0.123C3.302,0.711 2.044,1.005 0.008,1.005C-2.018,1.005 -3.274,0.714 -3.762,0.131C-4.249,-0.451 -4.493,-1.957 -4.493,-4.385L-4.493,-5.127L-4.477,-6.125C-4.477,-7.528 -4.161,-8.485 -3.53,-8.998C-2.898,-9.511 -1.719,-9.767 0.008,-9.767" style="fill:rgb(0,94,131);fill-rule:nonzero;"/>
                    </g>
                    <g transform="matrix(1,0,0,1,236.884,374.367)">
                        <path d="M0,-0.007L3.441,-0.007C4.348,-0.007 4.967,-0.145 5.297,-0.421C5.626,-0.696 5.792,-1.216 5.792,-1.979C5.792,-2.933 5.669,-3.554 5.424,-3.843C5.179,-4.131 4.655,-4.276 3.851,-4.276L0,-4.276L0,-0.007ZM-1.191,5.274L-1.191,-5.281L3.835,-5.281C4.969,-5.281 5.769,-5.057 6.232,-4.609C6.696,-4.159 6.928,-3.381 6.928,-2.273C6.928,-1.299 6.802,-0.619 6.549,-0.236C6.297,0.149 5.815,0.397 5.104,0.511L5.104,0.534C6.222,0.617 6.781,1.297 6.781,2.576L6.781,5.274L5.591,5.274L5.591,2.847C5.591,1.614 5.057,0.998 3.99,0.998L0,0.998L0,5.274L-1.191,5.274Z" style="fill:rgb(0,94,131);fill-rule:nonzero;"/>
                    </g>
                    <g transform="matrix(1,0,0,1,258.093,379.642)">
                        <path d="M0,-10.556L0,0L-1.191,0L-1.191,-9.078L-1.183,-9.396L-1.175,-9.712L-1.206,-9.712L-1.299,-9.465C-1.345,-9.341 -1.376,-9.261 -1.392,-9.226L-1.593,-8.731L-5.188,0L-6.379,0L-9.983,-8.63L-10.192,-9.118L-10.285,-9.365C-10.311,-9.421 -10.341,-9.501 -10.377,-9.605L-10.408,-9.605L-10.4,-9.319L-10.393,-9.025L-10.393,0L-11.583,0L-11.583,-10.556L-9.519,-10.556L-6.704,-3.728L-6.256,-2.621L-6.032,-2.073L-5.815,-1.524L-5.784,-1.524L-5.567,-2.073C-5.459,-2.335 -5.387,-2.519 -5.351,-2.621L-4.895,-3.72L-2.096,-10.556L0,-10.556Z" style="fill:rgb(0,94,131);fill-rule:nonzero;"/>
                    </g>
                    <g transform="matrix(1,0,0,1,267.186,372.218)">
                        <path d="M0,4.292L-2.343,-2.157L-4.655,4.292L0,4.292ZM0.348,5.189L-4.995,5.189L-5.807,7.424L-7.068,7.424L-3.201,-3.132L-1.531,-3.132L2.413,7.424L1.167,7.424L0.348,5.189Z" style="fill:rgb(0,94,131);fill-rule:nonzero;"/>
                    </g>
                    <g transform="matrix(1,0,0,1,275.312,378.535)">
                        <path d="M0,-8.343L0,1.106L-1.191,1.106L-1.191,-8.343L-4.632,-8.343L-4.632,-9.449L3.41,-9.449L3.41,-8.343L0,-8.343Z" style="fill:rgb(0,94,131);fill-rule:nonzero;"/>
                    </g>
                    <g transform="matrix(-1,0,0,1,562.655,153.448)">
                        <rect x="280.732" y="215.638" width="1.191" height="10.556" style="fill:rgb(0,94,131);"/>
                    </g>
                    <g transform="matrix(1,0,0,1,291.828,372.613)">
                        <path d="M0,3.502L1.183,3.502L1.183,3.904C1.183,5.343 0.938,6.241 0.448,6.6C-0.042,6.957 -1.273,7.137 -3.248,7.137C-5.016,7.137 -6.14,6.821 -6.62,6.19C-7.099,5.558 -7.338,4.072 -7.338,1.731C-7.338,-0.099 -7.285,-1.25 -7.176,-1.722C-7.068,-2.193 -6.759,-2.614 -6.248,-2.985C-5.65,-3.419 -4.359,-3.635 -2.374,-3.635C-1.029,-3.635 -0.123,-3.427 0.344,-3.009C0.811,-2.591 1.044,-1.784 1.044,-0.589L1.051,-0.303L-0.132,-0.303L-0.139,-0.627C-0.139,-1.477 -0.277,-2.024 -0.553,-2.267C-0.829,-2.509 -1.452,-2.63 -2.42,-2.63C-4.122,-2.63 -5.161,-2.488 -5.537,-2.204C-5.913,-1.921 -6.102,-1.135 -6.102,0.154C-6.102,3.118 -5.975,4.856 -5.723,5.366C-5.47,5.876 -4.606,6.131 -3.132,6.131C-1.73,6.131 -0.854,6.021 -0.507,5.799C-0.159,5.577 0.015,5.021 0.015,4.129L0,3.502Z" style="fill:rgb(0,94,131);fill-rule:nonzero;"/>
                    </g>
                    <g transform="matrix(1,0,0,1,302.544,376.781)">
                        <path d="M0,-4.834L-1.183,-4.834C-1.183,-5.685 -1.325,-6.225 -1.608,-6.454C-1.892,-6.683 -2.56,-6.798 -3.611,-6.798C-4.859,-6.798 -5.663,-6.688 -6.024,-6.469C-6.385,-6.25 -6.565,-5.762 -6.565,-5.004C-6.565,-4.153 -6.423,-3.635 -6.14,-3.449C-5.856,-3.264 -5.014,-3.138 -3.611,-3.07C-1.967,-2.998 -0.921,-2.79 -0.476,-2.444C-0.03,-2.099 0.193,-1.325 0.193,-0.124C0.193,1.175 -0.063,2.015 -0.576,2.396C-1.089,2.778 -2.222,2.969 -3.975,2.969C-5.496,2.969 -6.507,2.776 -7.01,2.393C-7.512,2.009 -7.764,1.234 -7.764,0.068L-7.771,-0.403L-6.588,-0.403L-6.588,-0.14C-6.588,0.804 -6.444,1.39 -6.155,1.619C-5.867,1.849 -5.127,1.963 -3.936,1.963C-2.57,1.963 -1.729,1.849 -1.415,1.619C-1.101,1.39 -0.943,0.777 -0.943,-0.217C-0.943,-0.861 -1.05,-1.291 -1.264,-1.505C-1.479,-1.719 -1.925,-1.847 -2.606,-1.888L-3.843,-1.949L-5.019,-2.012C-6.808,-2.135 -7.702,-3.063 -7.702,-4.795C-7.702,-5.996 -7.441,-6.798 -6.921,-7.2C-6.4,-7.603 -5.361,-7.803 -3.805,-7.803C-2.227,-7.803 -1.199,-7.616 -0.719,-7.242C-0.24,-6.868 0,-6.065 0,-4.834" style="fill:rgb(0,94,131);fill-rule:nonzero;"/>
                    </g>
                    <g transform="matrix(1,0,0,1,313.337,370.703)">
                        <path d="M0,7.315L0,4.168L-3.116,4.168L-3.116,3.163L0,3.163L0,0L1.083,0L1.083,3.163L4.199,3.163L4.199,4.168L1.083,4.168L1.083,7.315L0,7.315Z" style="fill:rgb(0,94,131);fill-rule:nonzero;"/>
                    </g>
                    <g transform="matrix(1,0,0,1,326.79,370.091)">
                        <path d="M0,8.546L3.441,8.546C4.704,8.546 5.519,8.293 5.884,7.788C6.25,7.282 6.434,6.156 6.434,4.408C6.434,2.491 6.275,1.276 5.958,0.767C5.641,0.256 4.882,0.001 3.681,0.001L0,0.001L0,8.546ZM-1.191,9.551L-1.191,-1.005L3.696,-1.005C5.207,-1.005 6.23,-0.672 6.766,-0.007C7.302,0.658 7.57,1.932 7.57,3.814C7.57,6.102 7.332,7.631 6.855,8.399C6.378,9.167 5.426,9.551 3.998,9.551L-1.191,9.551Z" style="fill:rgb(0,94,131);fill-rule:nonzero;"/>
                    </g>
                    <g transform="matrix(1,0,0,1,343.036,372.218)">
                        <path d="M0,4.292L-2.343,-2.157L-4.655,4.292L0,4.292ZM0.348,5.189L-4.995,5.189L-5.807,7.424L-7.068,7.424L-3.201,-3.132L-1.531,-3.132L2.413,7.424L1.167,7.424L0.348,5.189Z" style="fill:rgb(0,94,131);fill-rule:nonzero;"/>
                    </g>
                    <g transform="matrix(1,0,0,1,351.162,378.535)">
                        <path d="M0,-8.343L0,1.106L-1.191,1.106L-1.191,-8.343L-4.632,-8.343L-4.632,-9.449L3.41,-9.449L3.41,-8.343L0,-8.343Z" style="fill:rgb(0,94,131);fill-rule:nonzero;"/>
                    </g>
                    <g transform="matrix(1,0,0,1,362.722,372.218)">
                        <path d="M0,4.292L-2.343,-2.157L-4.655,4.292L0,4.292ZM0.348,5.189L-4.995,5.189L-5.807,7.424L-7.068,7.424L-3.201,-3.132L-1.531,-3.132L2.413,7.424L1.167,7.424L0.348,5.189Z" style="fill:rgb(0,94,131);fill-rule:nonzero;"/>
                    </g>
                    <g transform="matrix(1,0,0,1,379.315,376.781)">
                        <path d="M0,-4.834L-1.183,-4.834C-1.183,-5.685 -1.325,-6.225 -1.608,-6.454C-1.892,-6.683 -2.56,-6.798 -3.611,-6.798C-4.859,-6.798 -5.663,-6.688 -6.024,-6.469C-6.385,-6.25 -6.565,-5.762 -6.565,-5.004C-6.565,-4.153 -6.423,-3.635 -6.14,-3.449C-5.856,-3.264 -5.014,-3.138 -3.611,-3.07C-1.967,-2.998 -0.921,-2.79 -0.476,-2.444C-0.03,-2.099 0.193,-1.325 0.193,-0.124C0.193,1.175 -0.063,2.015 -0.576,2.396C-1.089,2.778 -2.222,2.969 -3.975,2.969C-5.496,2.969 -6.507,2.776 -7.01,2.393C-7.512,2.009 -7.764,1.234 -7.764,0.068L-7.771,-0.403L-6.588,-0.403L-6.588,-0.14C-6.588,0.804 -6.444,1.39 -6.155,1.619C-5.867,1.849 -5.127,1.963 -3.936,1.963C-2.57,1.963 -1.729,1.849 -1.415,1.619C-1.101,1.39 -0.943,0.777 -0.943,-0.217C-0.943,-0.861 -1.05,-1.291 -1.264,-1.505C-1.479,-1.719 -1.925,-1.847 -2.606,-1.888L-3.843,-1.949L-5.019,-2.012C-6.808,-2.135 -7.702,-3.063 -7.702,-4.795C-7.702,-5.996 -7.441,-6.798 -6.921,-7.2C-6.4,-7.603 -5.361,-7.803 -3.805,-7.803C-2.227,-7.803 -1.199,-7.616 -0.719,-7.242C-0.24,-6.868 0,-6.065 0,-4.834" style="fill:rgb(0,94,131);fill-rule:nonzero;"/>
                    </g>
                    <g transform="matrix(1,0,0,1,382.654,378.636)">
                        <path d="M0,-8.544L0,-4.948L5.358,-4.948L5.358,-3.943L0,-3.943L0,0.001L5.591,0.001L5.591,1.006L-1.191,1.006L-1.191,-9.55L5.591,-9.55L5.591,-8.544L0,-8.544Z" style="fill:rgb(0,94,131);fill-rule:nonzero;"/>
                    </g>
                    <g transform="matrix(1,0,0,1,391.917,374.367)">
                        <path d="M0,-0.007L3.441,-0.007C4.348,-0.007 4.967,-0.145 5.297,-0.421C5.626,-0.696 5.792,-1.216 5.792,-1.979C5.792,-2.933 5.669,-3.554 5.424,-3.843C5.179,-4.131 4.655,-4.276 3.851,-4.276L0,-4.276L0,-0.007ZM-1.191,5.274L-1.191,-5.281L3.835,-5.281C4.969,-5.281 5.769,-5.057 6.232,-4.609C6.696,-4.159 6.928,-3.381 6.928,-2.273C6.928,-1.299 6.802,-0.619 6.549,-0.236C6.297,0.149 5.815,0.397 5.104,0.511L5.104,0.534C6.222,0.617 6.781,1.297 6.781,2.576L6.781,5.274L5.591,5.274L5.591,2.847C5.591,1.614 5.057,0.998 3.99,0.998L0,0.998L0,5.274L-1.191,5.274Z" style="fill:rgb(0,94,131);fill-rule:nonzero;"/>
                    </g>
                    <g transform="matrix(1,0,0,1,408.394,379.642)">
                        <path d="M0,-10.556L1.276,-10.556L-2.459,0L-4.16,0L-7.934,-10.556L-6.666,-10.556L-3.851,-2.583L-3.572,-1.771C-3.469,-1.456 -3.384,-1.186 -3.317,-0.959L-3.287,-0.959C-3.132,-1.48 -2.959,-2.016 -2.768,-2.568L0,-10.556Z" style="fill:rgb(0,94,131);fill-rule:nonzero;"/>
                    </g>
                    <g transform="matrix(-1,0,0,1,824.287,153.448)">
                        <rect x="411.548" y="215.638" width="1.191" height="10.556" style="fill:rgb(0,94,131);"/>
                    </g>
                    <g transform="matrix(1,0,0,1,422.645,372.613)">
                        <path d="M0,3.502L1.183,3.502L1.183,3.904C1.183,5.343 0.937,6.241 0.448,6.6C-0.042,6.957 -1.274,7.137 -3.249,7.137C-5.017,7.137 -6.141,6.821 -6.62,6.19C-7.099,5.558 -7.339,4.072 -7.339,1.731C-7.339,-0.099 -7.285,-1.25 -7.177,-1.722C-7.068,-2.193 -6.759,-2.614 -6.249,-2.985C-5.651,-3.419 -4.359,-3.635 -2.375,-3.635C-1.029,-3.635 -0.123,-3.427 0.344,-3.009C0.81,-2.591 1.043,-1.784 1.043,-0.589L1.051,-0.303L-0.133,-0.303L-0.14,-0.627C-0.14,-1.477 -0.277,-2.024 -0.554,-2.267C-0.83,-2.509 -1.452,-2.63 -2.421,-2.63C-4.122,-2.63 -5.161,-2.488 -5.537,-2.204C-5.914,-1.921 -6.102,-1.135 -6.102,0.154C-6.102,3.118 -5.976,4.856 -5.723,5.366C-5.47,5.876 -4.607,6.131 -3.132,6.131C-1.73,6.131 -0.855,6.021 -0.508,5.799C-0.159,5.577 0.015,5.021 0.015,4.129L0,3.502Z" style="fill:rgb(0,94,131);fill-rule:nonzero;"/>
                    </g>
                    <g transform="matrix(1,0,0,1,426.888,378.636)">
                        <path d="M0,-8.544L0,-4.948L5.359,-4.948L5.359,-3.943L0,-3.943L0,0.001L5.591,0.001L5.591,1.006L-1.19,1.006L-1.19,-9.55L5.591,-9.55L5.591,-8.544L0,-8.544Z" style="fill:rgb(0,94,131);fill-rule:nonzero;"/>
                    </g>
                    <g transform="matrix(1,0,0,1,442.198,376.781)">
                        <path d="M0,-4.834L-1.184,-4.834C-1.184,-5.685 -1.325,-6.225 -1.608,-6.454C-1.892,-6.683 -2.56,-6.798 -3.611,-6.798C-4.858,-6.798 -5.663,-6.688 -6.023,-6.469C-6.385,-6.25 -6.565,-5.762 -6.565,-5.004C-6.565,-4.153 -6.424,-3.635 -6.14,-3.449C-5.856,-3.264 -5.014,-3.138 -3.611,-3.07C-1.967,-2.998 -0.922,-2.79 -0.476,-2.444C-0.029,-2.099 0.193,-1.325 0.193,-0.124C0.193,1.175 -0.063,2.015 -0.576,2.396C-1.089,2.778 -2.222,2.969 -3.975,2.969C-5.495,2.969 -6.507,2.776 -7.01,2.393C-7.513,2.009 -7.764,1.234 -7.764,0.068L-7.771,-0.403L-6.588,-0.403L-6.588,-0.14C-6.588,0.804 -6.444,1.39 -6.155,1.619C-5.866,1.849 -5.127,1.963 -3.936,1.963C-2.57,1.963 -1.729,1.849 -1.415,1.619C-1.101,1.39 -0.943,0.777 -0.943,-0.217C-0.943,-0.861 -1.051,-1.291 -1.265,-1.505C-1.479,-1.719 -1.926,-1.847 -2.606,-1.888L-3.843,-1.949L-5.019,-2.012C-6.808,-2.135 -7.702,-3.063 -7.702,-4.795C-7.702,-5.996 -7.441,-6.798 -6.921,-7.2C-6.4,-7.603 -5.361,-7.803 -3.805,-7.803C-2.228,-7.803 -1.198,-7.616 -0.719,-7.242C-0.24,-6.868 0,-6.065 0,-4.834" style="fill:rgb(0,94,131);fill-rule:nonzero;"/>
                    </g>
                    <g transform="matrix(1,0,0,1,452.991,370.703)">
                        <path d="M0,7.315L0,4.168L-3.116,4.168L-3.116,3.163L0,3.163L0,0L1.083,0L1.083,3.163L4.199,3.163L4.199,4.168L1.083,4.168L1.083,7.315L0,7.315Z" style="fill:rgb(0,94,131);fill-rule:nonzero;"/>
                    </g>
                    <g transform="matrix(-1,0,0,1,931.697,153.448)">
                        <rect x="465.253" y="215.638" width="1.191" height="10.556" style="fill:rgb(0,94,131);"/>
                    </g>
                    <g transform="matrix(1,0,0,1,478.444,379.642)">
                        <path d="M0,-10.556L0,0L-1.956,0L-6.379,-7.184L-7.099,-8.368L-7.454,-8.954L-7.81,-9.542L-7.841,-9.542L-7.833,-9.148L-7.825,-8.746L-7.825,0L-9.017,0L-9.017,-10.556L-7.067,-10.556L-3.209,-4.261L-2.204,-2.606L-1.701,-1.786L-1.206,-0.959L-1.175,-0.959L-1.183,-1.354L-1.19,-1.755L-1.19,-10.556L0,-10.556Z" style="fill:rgb(0,94,131);fill-rule:nonzero;"/>
                    </g>
                    <g transform="matrix(1,0,0,1,482.597,378.636)">
                        <path d="M0,-8.544L0,-4.856L5.142,-4.856L5.142,-3.851L0,-3.851L0,1.006L-1.191,1.006L-1.191,-9.55L5.281,-9.55L5.281,-8.544L0,-8.544Z" style="fill:rgb(0,94,131);fill-rule:nonzero;"/>
                    </g>
                    <g transform="matrix(1,0,0,1,491.287,374.367)">
                        <path d="M0,-0.007L3.44,-0.007C4.349,-0.007 4.967,-0.145 5.297,-0.421C5.627,-0.696 5.792,-1.216 5.792,-1.979C5.792,-2.933 5.669,-3.554 5.425,-3.843C5.18,-4.131 4.655,-4.276 3.851,-4.276L0,-4.276L0,-0.007ZM-1.191,5.274L-1.191,-5.281L3.835,-5.281C4.97,-5.281 5.769,-5.057 6.232,-4.609C6.696,-4.159 6.929,-3.381 6.929,-2.273C6.929,-1.299 6.802,-0.619 6.55,-0.236C6.297,0.149 5.814,0.397 5.104,0.511L5.104,0.534C6.222,0.617 6.781,1.297 6.781,2.576L6.781,5.274L5.591,5.274L5.591,2.847C5.591,1.614 5.057,0.998 3.99,0.998L0,0.998L0,5.274L-1.191,5.274Z" style="fill:rgb(0,94,131);fill-rule:nonzero;"/>
                    </g>
                    <g transform="matrix(1,0,0,1,507.054,372.218)">
                        <path d="M0,4.292L-2.344,-2.157L-4.655,4.292L0,4.292ZM0.348,5.189L-4.996,5.189L-5.808,7.424L-7.068,7.424L-3.202,-3.132L-1.531,-3.132L2.412,7.424L1.167,7.424L0.348,5.189Z" style="fill:rgb(0,94,131);fill-rule:nonzero;"/>
                    </g>
                    <g transform="matrix(1,0,0,1,518.736,376.781)">
                        <path d="M0,-4.834L-1.184,-4.834C-1.184,-5.685 -1.325,-6.225 -1.608,-6.454C-1.892,-6.683 -2.56,-6.798 -3.611,-6.798C-4.858,-6.798 -5.663,-6.688 -6.023,-6.469C-6.385,-6.25 -6.565,-5.762 -6.565,-5.004C-6.565,-4.153 -6.424,-3.635 -6.14,-3.449C-5.856,-3.264 -5.014,-3.138 -3.611,-3.07C-1.967,-2.998 -0.922,-2.79 -0.476,-2.444C-0.029,-2.099 0.193,-1.325 0.193,-0.124C0.193,1.175 -0.063,2.015 -0.576,2.396C-1.089,2.778 -2.222,2.969 -3.975,2.969C-5.495,2.969 -6.507,2.776 -7.01,2.393C-7.513,2.009 -7.764,1.234 -7.764,0.068L-7.771,-0.403L-6.588,-0.403L-6.588,-0.14C-6.588,0.804 -6.444,1.39 -6.155,1.619C-5.866,1.849 -5.127,1.963 -3.936,1.963C-2.57,1.963 -1.729,1.849 -1.415,1.619C-1.101,1.39 -0.943,0.777 -0.943,-0.217C-0.943,-0.861 -1.051,-1.291 -1.265,-1.505C-1.479,-1.719 -1.926,-1.847 -2.606,-1.888L-3.843,-1.949L-5.019,-2.012C-6.808,-2.135 -7.702,-3.063 -7.702,-4.795C-7.702,-5.996 -7.441,-6.798 -6.921,-7.2C-6.4,-7.603 -5.361,-7.803 -3.805,-7.803C-2.228,-7.803 -1.198,-7.616 -0.719,-7.242C-0.24,-6.868 0,-6.065 0,-4.834" style="fill:rgb(0,94,131);fill-rule:nonzero;"/>
                    </g>
                    <g transform="matrix(1,0,0,1,524.991,378.535)">
                        <path d="M0,-8.343L0,1.106L-1.191,1.106L-1.191,-8.343L-4.633,-8.343L-4.633,-9.449L3.409,-9.449L3.409,-8.343L0,-8.343Z" style="fill:rgb(0,94,131);fill-rule:nonzero;"/>
                    </g>
                    <g transform="matrix(1,0,0,1,531.602,374.367)">
                        <path d="M0,-0.007L3.44,-0.007C4.349,-0.007 4.967,-0.145 5.297,-0.421C5.627,-0.696 5.792,-1.216 5.792,-1.979C5.792,-2.933 5.669,-3.554 5.425,-3.843C5.18,-4.131 4.655,-4.276 3.851,-4.276L0,-4.276L0,-0.007ZM-1.191,5.274L-1.191,-5.281L3.835,-5.281C4.97,-5.281 5.769,-5.057 6.232,-4.609C6.696,-4.159 6.929,-3.381 6.929,-2.273C6.929,-1.299 6.802,-0.619 6.55,-0.236C6.297,0.149 5.814,0.397 5.104,0.511L5.104,0.534C6.222,0.617 6.781,1.297 6.781,2.576L6.781,5.274L5.591,5.274L5.591,2.847C5.591,1.614 5.057,0.998 3.99,0.998L0,0.998L0,5.274L-1.191,5.274Z" style="fill:rgb(0,94,131);fill-rule:nonzero;"/>
                    </g>
                    <g transform="matrix(1,0,0,1,548.404,379.75)">
                        <path d="M0,-10.664L1.19,-10.664L1.19,-3.271C1.19,-1.931 0.921,-1.051 0.383,-0.63C-0.156,-0.21 -1.287,0 -3.009,0C-4.622,0 -5.719,-0.202 -6.299,-0.607C-6.879,-1.012 -7.169,-1.781 -7.169,-2.915L-7.169,-10.664L-5.978,-10.664L-5.978,-3.271C-5.978,-2.27 -5.815,-1.643 -5.49,-1.388C-5.166,-1.133 -4.367,-1.006 -3.094,-1.006C-1.712,-1.006 -0.851,-1.13 -0.511,-1.381C-0.171,-1.631 0,-2.261 0,-3.271L0,-10.664Z" style="fill:rgb(0,94,131);fill-rule:nonzero;"/>
                    </g>
                    <g transform="matrix(1,0,0,1,559.469,372.613)">
                        <path d="M0,3.502L1.184,3.502L1.184,3.904C1.184,5.343 0.938,6.241 0.449,6.6C-0.041,6.957 -1.273,7.137 -3.247,7.137C-5.016,7.137 -6.14,6.821 -6.619,6.19C-7.099,5.558 -7.338,4.072 -7.338,1.731C-7.338,-0.099 -7.284,-1.25 -7.176,-1.722C-7.067,-2.193 -6.758,-2.614 -6.248,-2.985C-5.649,-3.419 -4.358,-3.635 -2.374,-3.635C-1.028,-3.635 -0.122,-3.427 0.345,-3.009C0.811,-2.591 1.044,-1.784 1.044,-0.589L1.052,-0.303L-0.131,-0.303L-0.139,-0.627C-0.139,-1.477 -0.277,-2.024 -0.553,-2.267C-0.828,-2.509 -1.451,-2.63 -2.42,-2.63C-4.121,-2.63 -5.16,-2.488 -5.536,-2.204C-5.913,-1.921 -6.101,-1.135 -6.101,0.154C-6.101,3.118 -5.975,4.856 -5.722,5.366C-5.47,5.876 -4.605,6.131 -3.132,6.131C-1.729,6.131 -0.854,6.021 -0.506,5.799C-0.158,5.577 0.016,5.021 0.016,4.129L0,3.502Z" style="fill:rgb(0,94,131);fill-rule:nonzero;"/>
                    </g>
                    <g transform="matrix(1,0,0,1,566.629,378.535)">
                        <path d="M0,-8.343L0,1.106L-1.191,1.106L-1.191,-8.343L-4.633,-8.343L-4.633,-9.449L3.409,-9.449L3.409,-8.343L0,-8.343Z" style="fill:rgb(0,94,131);fill-rule:nonzero;"/>
                    </g>
                    <g transform="matrix(1,0,0,1,579.225,379.75)">
                        <path d="M0,-10.664L1.19,-10.664L1.19,-3.271C1.19,-1.931 0.921,-1.051 0.383,-0.63C-0.156,-0.21 -1.287,0 -3.009,0C-4.622,0 -5.719,-0.202 -6.299,-0.607C-6.879,-1.012 -7.169,-1.781 -7.169,-2.915L-7.169,-10.664L-5.978,-10.664L-5.978,-3.271C-5.978,-2.27 -5.815,-1.643 -5.49,-1.388C-5.166,-1.133 -4.367,-1.006 -3.094,-1.006C-1.712,-1.006 -0.851,-1.13 -0.511,-1.381C-0.171,-1.631 0,-2.261 0,-3.271L0,-10.664Z" style="fill:rgb(0,94,131);fill-rule:nonzero;"/>
                    </g>
                    <g transform="matrix(1,0,0,1,584.559,374.367)">
                        <path d="M0,-0.007L3.44,-0.007C4.349,-0.007 4.967,-0.145 5.297,-0.421C5.627,-0.696 5.792,-1.216 5.792,-1.979C5.792,-2.933 5.669,-3.554 5.425,-3.843C5.18,-4.131 4.655,-4.276 3.851,-4.276L0,-4.276L0,-0.007ZM-1.191,5.274L-1.191,-5.281L3.835,-5.281C4.97,-5.281 5.769,-5.057 6.232,-4.609C6.696,-4.159 6.929,-3.381 6.929,-2.273C6.929,-1.299 6.802,-0.619 6.55,-0.236C6.297,0.149 5.814,0.397 5.104,0.511L5.104,0.534C6.222,0.617 6.781,1.297 6.781,2.576L6.781,5.274L5.591,5.274L5.591,2.847C5.591,1.614 5.057,0.998 3.99,0.998L0,0.998L0,5.274L-1.191,5.274Z" style="fill:rgb(0,94,131);fill-rule:nonzero;"/>
                    </g>
                    <g transform="matrix(1,0,0,1,594.95,378.636)">
                        <path d="M0,-8.544L0,-4.948L5.359,-4.948L5.359,-3.943L0,-3.943L0,0.001L5.591,0.001L5.591,1.006L-1.19,1.006L-1.19,-9.55L5.591,-9.55L5.591,-8.544L0,-8.544Z" style="fill:rgb(0,94,131);fill-rule:nonzero;"/>
                    </g>
                    <g transform="matrix(1,0,0,1,604.206,381.197)">
                        <path d="M0,-2.978L0,-1.447C0,-0.483 -0.351,0 -1.052,0C-1.119,0 -1.217,-0.006 -1.346,-0.016L-1.346,-0.604C-0.902,-0.63 -0.681,-0.857 -0.681,-1.285L-0.688,-1.555L-1.191,-1.555L-1.191,-2.978L0,-2.978Z" style="fill:rgb(0,94,131);fill-rule:nonzero;"/>
                    </g>
                    <g transform="matrix(1,0,0,1,613.213,378.636)">
                        <path d="M0,-8.544L0,-4.856L5.142,-4.856L5.142,-3.851L0,-3.851L0,1.006L-1.191,1.006L-1.191,-9.55L5.281,-9.55L5.281,-8.544L0,-8.544Z" style="fill:rgb(0,94,131);fill-rule:nonzero;"/>
                    </g>
                    <g transform="matrix(1,0,0,1,624.563,378.745)">
                        <path d="M0,-8.762C-1.671,-8.762 -2.647,-8.576 -2.931,-8.205C-3.215,-7.834 -3.356,-6.561 -3.356,-4.385C-3.356,-2.204 -3.215,-0.929 -2.931,-0.558C-2.647,-0.187 -1.671,-0.001 0,-0.001C1.675,-0.001 2.654,-0.187 2.938,-0.558C3.222,-0.929 3.363,-2.204 3.363,-4.385L3.363,-5.074L3.355,-6.071C3.355,-7.236 3.16,-7.976 2.768,-8.29C2.376,-8.605 1.453,-8.762 0,-8.762M0.008,-9.767C2.003,-9.767 3.25,-9.476 3.75,-8.894C4.25,-8.311 4.5,-6.855 4.5,-4.525C4.5,-2.014 4.261,-0.465 3.781,0.123C3.302,0.711 2.044,1.005 0.008,1.005C-2.019,1.005 -3.275,0.714 -3.763,0.131C-4.249,-0.451 -4.493,-1.957 -4.493,-4.385L-4.493,-5.127L-4.478,-6.125C-4.478,-7.528 -4.162,-8.485 -3.53,-8.998C-2.898,-9.511 -1.72,-9.767 0.008,-9.767" style="fill:rgb(0,94,131);fill-rule:nonzero;"/>
                    </g>
                    <g transform="matrix(1,0,0,1,632.565,374.367)">
                        <path d="M0,-0.007L3.44,-0.007C4.349,-0.007 4.967,-0.145 5.297,-0.421C5.627,-0.696 5.792,-1.216 5.792,-1.979C5.792,-2.933 5.669,-3.554 5.425,-3.843C5.18,-4.131 4.655,-4.276 3.851,-4.276L0,-4.276L0,-0.007ZM-1.191,5.274L-1.191,-5.281L3.835,-5.281C4.97,-5.281 5.769,-5.057 6.232,-4.609C6.696,-4.159 6.929,-3.381 6.929,-2.273C6.929,-1.299 6.802,-0.619 6.55,-0.236C6.297,0.149 5.814,0.397 5.104,0.511L5.104,0.534C6.222,0.617 6.781,1.297 6.781,2.576L6.781,5.274L5.591,5.274L5.591,2.847C5.591,1.614 5.057,0.998 3.99,0.998L0,0.998L0,5.274L-1.191,5.274Z" style="fill:rgb(0,94,131);fill-rule:nonzero;"/>
                    </g>
                    <g transform="matrix(1,0,0,1,648.292,379.642)">
                        <path d="M0,-10.556L0,-1.106L5.428,-1.106L5.428,0L-1.191,0L-1.191,-10.556L0,-10.556Z" style="fill:rgb(0,94,131);fill-rule:nonzero;"/>
                    </g>
                    <g transform="matrix(-1,0,0,1,1312.65,153.448)">
                        <rect x="655.73" y="215.638" width="1.191" height="10.556" style="fill:rgb(0,94,131);"/>
                    </g>
                    <g transform="matrix(1,0,0,1,661.096,378.636)">
                        <path d="M0,-8.544L0,-4.856L5.142,-4.856L5.142,-3.851L0,-3.851L0,1.006L-1.191,1.006L-1.191,-9.55L5.281,-9.55L5.281,-8.544L0,-8.544Z" style="fill:rgb(0,94,131);fill-rule:nonzero;"/>
                    </g>
                    <g transform="matrix(1,0,0,1,669.361,378.636)">
                        <path d="M0,-8.544L0,-4.948L5.359,-4.948L5.359,-3.943L0,-3.943L0,0.001L5.591,0.001L5.591,1.006L-1.19,1.006L-1.19,-9.55L5.591,-9.55L5.591,-8.544L0,-8.544Z" style="fill:rgb(0,94,131);fill-rule:nonzero;"/>
                    </g>
                    <g transform="matrix(1,0,0,1,689.58,376.781)">
                        <path d="M0,-4.834L-1.184,-4.834C-1.184,-5.685 -1.325,-6.225 -1.608,-6.454C-1.892,-6.683 -2.56,-6.798 -3.611,-6.798C-4.858,-6.798 -5.663,-6.688 -6.023,-6.469C-6.385,-6.25 -6.565,-5.762 -6.565,-5.004C-6.565,-4.153 -6.424,-3.635 -6.14,-3.449C-5.856,-3.264 -5.014,-3.138 -3.611,-3.07C-1.967,-2.998 -0.922,-2.79 -0.476,-2.444C-0.029,-2.099 0.193,-1.325 0.193,-0.124C0.193,1.175 -0.063,2.015 -0.576,2.396C-1.089,2.778 -2.222,2.969 -3.975,2.969C-5.495,2.969 -6.507,2.776 -7.01,2.393C-7.513,2.009 -7.764,1.234 -7.764,0.068L-7.771,-0.403L-6.588,-0.403L-6.588,-0.14C-6.588,0.804 -6.444,1.39 -6.155,1.619C-5.866,1.849 -5.127,1.963 -3.936,1.963C-2.57,1.963 -1.729,1.849 -1.415,1.619C-1.101,1.39 -0.943,0.777 -0.943,-0.217C-0.943,-0.861 -1.051,-1.291 -1.265,-1.505C-1.479,-1.719 -1.926,-1.847 -2.606,-1.888L-3.843,-1.949L-5.019,-2.012C-6.808,-2.135 -7.702,-3.063 -7.702,-4.795C-7.702,-5.996 -7.441,-6.798 -6.921,-7.2C-6.4,-7.603 -5.361,-7.803 -3.805,-7.803C-2.228,-7.803 -1.198,-7.616 -0.719,-7.242C-0.24,-6.868 0,-6.065 0,-4.834" style="fill:rgb(0,94,131);fill-rule:nonzero;"/>
                    </g>
                    <g transform="matrix(1,0,0,1,699.075,372.613)">
                        <path d="M0,3.502L1.184,3.502L1.184,3.904C1.184,5.343 0.938,6.241 0.449,6.6C-0.041,6.957 -1.273,7.137 -3.247,7.137C-5.016,7.137 -6.14,6.821 -6.619,6.19C-7.099,5.558 -7.338,4.072 -7.338,1.731C-7.338,-0.099 -7.284,-1.25 -7.176,-1.722C-7.067,-2.193 -6.758,-2.614 -6.248,-2.985C-5.649,-3.419 -4.358,-3.635 -2.374,-3.635C-1.028,-3.635 -0.122,-3.427 0.345,-3.009C0.811,-2.591 1.044,-1.784 1.044,-0.589L1.052,-0.303L-0.131,-0.303L-0.139,-0.627C-0.139,-1.477 -0.277,-2.024 -0.553,-2.267C-0.828,-2.509 -1.451,-2.63 -2.42,-2.63C-4.121,-2.63 -5.16,-2.488 -5.536,-2.204C-5.913,-1.921 -6.101,-1.135 -6.101,0.154C-6.101,3.118 -5.975,4.856 -5.722,5.366C-5.47,5.876 -4.605,6.131 -3.132,6.131C-1.729,6.131 -0.854,6.021 -0.506,5.799C-0.158,5.577 0.016,5.021 0.016,4.129L0,3.502Z" style="fill:rgb(0,94,131);fill-rule:nonzero;"/>
                    </g>
                    <g transform="matrix(-1,0,0,1,1406.3,153.448)">
                        <rect x="702.554" y="215.638" width="1.191" height="10.556" style="fill:rgb(0,94,131);"/>
                    </g>
                    <g transform="matrix(1,0,0,1,707.494,378.636)">
                        <path d="M0,-8.544L0,-4.948L5.359,-4.948L5.359,-3.943L0,-3.943L0,0.001L5.591,0.001L5.591,1.006L-1.19,1.006L-1.19,-9.55L5.591,-9.55L5.591,-8.544L0,-8.544Z" style="fill:rgb(0,94,131);fill-rule:nonzero;"/>
                    </g>
                    <g transform="matrix(1,0,0,1,724.583,379.642)">
                        <path d="M0,-10.556L0,0L-1.956,0L-6.379,-7.184L-7.099,-8.368L-7.454,-8.954L-7.81,-9.542L-7.841,-9.542L-7.833,-9.148L-7.825,-8.746L-7.825,0L-9.017,0L-9.017,-10.556L-7.067,-10.556L-3.209,-4.261L-2.204,-2.606L-1.701,-1.786L-1.206,-0.959L-1.175,-0.959L-1.183,-1.354L-1.19,-1.755L-1.19,-10.556L0,-10.556Z" style="fill:rgb(0,94,131);fill-rule:nonzero;"/>
                    </g>
                    <g transform="matrix(1,0,0,1,734.464,372.613)">
                        <path d="M0,3.502L1.184,3.502L1.184,3.904C1.184,5.343 0.938,6.241 0.449,6.6C-0.041,6.957 -1.273,7.137 -3.247,7.137C-5.016,7.137 -6.14,6.821 -6.619,6.19C-7.099,5.558 -7.338,4.072 -7.338,1.731C-7.338,-0.099 -7.284,-1.25 -7.176,-1.722C-7.067,-2.193 -6.758,-2.614 -6.248,-2.985C-5.649,-3.419 -4.358,-3.635 -2.374,-3.635C-1.028,-3.635 -0.122,-3.427 0.345,-3.009C0.811,-2.591 1.044,-1.784 1.044,-0.589L1.052,-0.303L-0.131,-0.303L-0.139,-0.627C-0.139,-1.477 -0.277,-2.024 -0.553,-2.267C-0.828,-2.509 -1.451,-2.63 -2.42,-2.63C-4.121,-2.63 -5.16,-2.488 -5.536,-2.204C-5.913,-1.921 -6.101,-1.135 -6.101,0.154C-6.101,3.118 -5.975,4.856 -5.722,5.366C-5.47,5.876 -4.605,6.131 -3.132,6.131C-1.729,6.131 -0.854,6.021 -0.506,5.799C-0.158,5.577 0.016,5.021 0.016,4.129L0,3.502Z" style="fill:rgb(0,94,131);fill-rule:nonzero;"/>
                    </g>
                    <g transform="matrix(1,0,0,1,738.708,378.636)">
                        <path d="M0,-8.544L0,-4.948L5.359,-4.948L5.359,-3.943L0,-3.943L0,0.001L5.591,0.001L5.591,1.006L-1.19,1.006L-1.19,-9.55L5.591,-9.55L5.591,-8.544L0,-8.544Z" style="fill:rgb(0,94,131);fill-rule:nonzero;"/>
                    </g>
                    <g transform="matrix(1,0,0,1,754.019,376.781)">
                        <path d="M0,-4.834L-1.184,-4.834C-1.184,-5.685 -1.325,-6.225 -1.608,-6.454C-1.892,-6.683 -2.56,-6.798 -3.611,-6.798C-4.858,-6.798 -5.663,-6.688 -6.023,-6.469C-6.385,-6.25 -6.565,-5.762 -6.565,-5.004C-6.565,-4.153 -6.424,-3.635 -6.14,-3.449C-5.856,-3.264 -5.014,-3.138 -3.611,-3.07C-1.967,-2.998 -0.922,-2.79 -0.476,-2.444C-0.029,-2.099 0.193,-1.325 0.193,-0.124C0.193,1.175 -0.063,2.015 -0.576,2.396C-1.089,2.778 -2.222,2.969 -3.975,2.969C-5.495,2.969 -6.507,2.776 -7.01,2.393C-7.513,2.009 -7.764,1.234 -7.764,0.068L-7.771,-0.403L-6.588,-0.403L-6.588,-0.14C-6.588,0.804 -6.444,1.39 -6.155,1.619C-5.866,1.849 -5.127,1.963 -3.936,1.963C-2.57,1.963 -1.729,1.849 -1.415,1.619C-1.101,1.39 -0.943,0.777 -0.943,-0.217C-0.943,-0.861 -1.051,-1.291 -1.265,-1.505C-1.479,-1.719 -1.926,-1.847 -2.606,-1.888L-3.843,-1.949L-5.019,-2.012C-6.808,-2.135 -7.702,-3.063 -7.702,-4.795C-7.702,-5.996 -7.441,-6.798 -6.921,-7.2C-6.4,-7.603 -5.361,-7.803 -3.805,-7.803C-2.228,-7.803 -1.198,-7.616 -0.719,-7.242C-0.24,-6.868 0,-6.065 0,-4.834" style="fill:rgb(0,94,131);fill-rule:nonzero;"/>
                    </g>
                    <g transform="matrix(1,0,0,1,765.184,378.535)">
                        <path d="M0,-8.343L0,1.106L-1.191,1.106L-1.191,-8.343L-4.633,-8.343L-4.633,-9.449L3.409,-9.449L3.409,-8.343L0,-8.343Z" style="fill:rgb(0,94,131);fill-rule:nonzero;"/>
                    </g>
                    <g transform="matrix(1,0,0,1,774.454,378.745)">
                        <path d="M0,-8.762C-1.671,-8.762 -2.647,-8.576 -2.931,-8.205C-3.215,-7.834 -3.356,-6.561 -3.356,-4.385C-3.356,-2.204 -3.215,-0.929 -2.931,-0.558C-2.647,-0.187 -1.671,-0.001 0,-0.001C1.675,-0.001 2.654,-0.187 2.938,-0.558C3.222,-0.929 3.363,-2.204 3.363,-4.385L3.363,-5.074L3.355,-6.071C3.355,-7.236 3.16,-7.976 2.768,-8.29C2.376,-8.605 1.453,-8.762 0,-8.762M0.008,-9.767C2.003,-9.767 3.25,-9.476 3.75,-8.894C4.25,-8.311 4.5,-6.855 4.5,-4.525C4.5,-2.014 4.261,-0.465 3.781,0.123C3.302,0.711 2.044,1.005 0.008,1.005C-2.019,1.005 -3.275,0.714 -3.763,0.131C-4.249,-0.451 -4.493,-1.957 -4.493,-4.385L-4.493,-5.127L-4.478,-6.125C-4.478,-7.528 -4.162,-8.485 -3.53,-8.998C-2.898,-9.511 -1.72,-9.767 0.008,-9.767" style="fill:rgb(0,94,131);fill-rule:nonzero;"/>
                    </g>
                    <g transform="matrix(1,0,0,1,782.456,370.091)">
                        <path d="M0,8.546L3.44,8.546C4.704,8.546 5.519,8.293 5.885,7.788C6.25,7.282 6.434,6.156 6.434,4.408C6.434,2.491 6.275,1.276 5.958,0.767C5.641,0.256 4.882,0.001 3.681,0.001L0,0.001L0,8.546ZM-1.191,9.551L-1.191,-1.005L3.696,-1.005C5.206,-1.005 6.229,-0.672 6.766,-0.007C7.302,0.658 7.57,1.932 7.57,3.814C7.57,6.102 7.332,7.631 6.854,8.399C6.378,9.167 5.426,9.551 3.998,9.551L-1.191,9.551Z" style="fill:rgb(0,94,131);fill-rule:nonzero;"/>
                    </g>
                    <g transform="matrix(1,0,0,1,798.702,372.218)">
                        <path d="M0,4.292L-2.344,-2.157L-4.655,4.292L0,4.292ZM0.348,5.189L-4.996,5.189L-5.808,7.424L-7.068,7.424L-3.202,-3.132L-1.531,-3.132L2.412,7.424L1.167,7.424L0.348,5.189Z" style="fill:rgb(0,94,131);fill-rule:nonzero;"/>
                    </g>
                    <g transform="matrix(1,0,0,1,811.135,379.642)">
                        <path d="M0,-10.556L-3.99,-4.408L-3.99,0L-5.181,0L-5.181,-4.408L-9.07,-10.556L-7.687,-10.556L-5.421,-6.991L-4.987,-6.302C-4.931,-6.22 -4.858,-6.107 -4.771,-5.962L-4.562,-5.615L-4.531,-5.615C-4.438,-5.769 -4.369,-5.885 -4.322,-5.962L-4.114,-6.302L-3.673,-6.991L-1.415,-10.556L0,-10.556Z" style="fill:rgb(0,94,131);fill-rule:nonzero;"/>
                    </g>
                    <g transform="matrix(20.168,0,0,-20.168,78.7668,310.875)">
                        <rect x="0.407" y="-0.5" width="0.186" height="1" style="fill:url(#_Linear1);"/>
                    </g>
                    <g transform="matrix(0,53.5207,53.5207,0,88.8541,248.402)">
                        <path d="M0.25,-0.433L0.75,-0.433L1,-0L0.75,0.433L0.25,0.433L0,-0L0.25,-0.433Z" style="fill:url(#_Linear2);fill-rule:nonzero;"/>
                    </g>
                    <g transform="matrix(0,53.5191,53.5191,0,88.8541,319.824)">
                        <path d="M0.25,-0.433L0.75,-0.433L1,-0L0.75,0.433L0.25,0.433L0,-0L0.25,-0.433Z" style="fill:url(#_Linear3);fill-rule:nonzero;"/>
                    </g>
                    <g transform="matrix(20.1676,0,0,-20.1676,116.102,275.166)">
                        <rect x="0.407" y="-0.5" width="0.186" height="1" style="fill:url(#_Linear4);"/>
                    </g>
                    <g transform="matrix(0,53.5207,53.5207,0,126.19,212.693)">
                        <path d="M0.25,-0.433L0.75,-0.433L1,-0L0.75,0.433L0.25,0.433L0,-0L0.25,-0.433Z" style="fill:url(#_Linear5);fill-rule:nonzero;"/>
                    </g>
                    <g transform="matrix(0,53.5203,53.5203,0,126.19,284.114)">
                        <path d="M0.25,-0.433L0.75,-0.433L1,-0L0.75,0.433L0.25,0.433L0,-0L0.25,-0.433Z" style="fill:url(#_Linear6);fill-rule:nonzero;"/>
                    </g>
                    <g transform="matrix(0,53.5215,53.5215,0,51.5205,284.113)">
                        <path d="M0.25,-0.433L0.75,-0.433L1,0L0.75,0.433L0.25,0.433L0,0L0.25,-0.433Z" style="fill:url(#_Linear7);fill-rule:nonzero;"/>
                    </g>
                    <g transform="matrix(0,53.5207,53.5207,0,193.666,248.402)">
                        <path d="M0.25,-0.433L0.75,-0.433L1,0L0.75,0.433L0.25,0.433L0,0L0.25,-0.433Z" style="fill:url(#_Linear8);fill-rule:nonzero;"/>
                    </g>
                    <g transform="matrix(1,0,0,1,218.55,354.224)">
                        <path d="M0,-38.229L0,0L-7.253,0L-7.253,-20.837C-7.253,-22.499 -7.207,-24.384 -7.113,-26.495L-6.974,-29.351L-6.833,-32.179L-7.058,-32.179L-7.926,-29.519L-8.766,-26.859C-9.55,-24.468 -10.157,-22.704 -10.586,-21.565L-18.988,0L-25.598,0L-34.083,-21.397C-34.55,-22.574 -35.167,-24.338 -35.932,-26.691L-36.8,-29.351L-37.668,-31.984L-37.892,-31.984L-37.752,-29.211L-37.612,-26.411C-37.5,-24.245 -37.444,-22.386 -37.444,-20.837L-37.444,0L-44.698,0L-44.698,-38.229L-32.879,-38.229L-26.046,-20.529C-25.579,-19.296 -24.963,-17.533 -24.197,-15.236L-23.357,-12.576L-22.489,-9.943L-22.237,-9.943L-21.425,-12.576L-20.584,-15.208C-19.894,-17.429 -19.296,-19.185 -18.792,-20.473L-12.071,-38.229L0,-38.229Z" style="fill:rgb(0,143,179);fill-rule:nonzero;"/>
                    </g>
                    <g transform="matrix(1,0,0,1,242.384,343.581)">
                        <path d="M0,-5.516L-0.028,-6.58C-0.028,-8.709 -0.397,-10.09 -1.134,-10.726C-1.872,-11.36 -3.473,-11.678 -5.937,-11.678C-8.328,-11.678 -9.882,-11.295 -10.601,-10.53C-11.319,-9.764 -11.679,-8.093 -11.679,-5.516L0,-5.516ZM-0.056,2.073L6.385,2.073L6.385,3.11C6.385,8.338 2.464,10.951 -5.377,10.951C-10.698,10.951 -14.181,10.046 -15.824,8.235C-17.467,6.423 -18.288,2.587 -18.288,-3.276C-18.288,-8.485 -17.43,-11.986 -15.711,-13.779C-13.994,-15.571 -10.643,-16.467 -5.657,-16.467C-0.878,-16.467 2.324,-15.594 3.949,-13.848C5.573,-12.102 6.385,-8.671 6.385,-3.556L6.385,-1.595L-11.735,-1.595C-11.772,-0.997 -11.791,-0.606 -11.791,-0.419C-11.791,2.213 -11.385,3.968 -10.572,4.846C-9.76,5.723 -8.141,6.162 -5.713,6.162C-3.361,6.162 -1.83,5.906 -1.12,5.392C-0.411,4.879 -0.056,3.772 -0.056,2.073" style="fill:rgb(0,143,179);fill-rule:nonzero;"/>
                    </g>
                    <g transform="matrix(-1,0,0,1,514.65,74.939)">
                        <rect x="254.118" y="241.056" width="6.414" height="38.229" style="fill:rgb(0,143,179);"/>
                    </g>
                    <g transform="matrix(1,0,0,1,279.576,338.345)">
                        <path d="M0,-6.162C-4.164,-6.162 -6.246,-3.576 -6.246,1.596C-6.246,5.648 -5.891,8.247 -5.181,9.396C-4.472,10.544 -2.866,11.118 -0.364,11.118C2.25,11.118 3.921,10.591 4.649,9.535C5.377,8.481 5.741,6.067 5.741,2.296C5.741,-1.214 5.381,-3.501 4.663,-4.565C3.944,-5.63 2.39,-6.162 0,-6.162M-12.743,15.879L-12.743,-22.349L-6.33,-22.349L-6.33,-7.058L-6.189,-7.002C-5.088,-9.821 -2.297,-11.231 2.184,-11.231C6.03,-11.231 8.668,-10.293 10.096,-8.417C11.524,-6.54 12.239,-3.062 12.239,2.016C12.239,7.562 11.515,11.31 10.068,13.261C8.621,15.212 5.844,16.187 1.736,16.187C-2.428,16.187 -5.163,14.675 -6.47,11.65L-6.61,11.65L-6.33,15.879L-12.743,15.879Z" style="fill:rgb(0,143,179);fill-rule:nonzero;"/>
                    </g>
                    <g transform="matrix(1,0,0,1,308.87,349.462)">
                        <path d="M0,-17.251C-2.67,-17.251 -4.369,-16.771 -5.097,-15.809C-5.825,-14.847 -6.189,-12.603 -6.189,-9.073C-6.189,-5.04 -5.844,-2.52 -5.153,-1.512C-4.462,-0.504 -2.735,0.001 0.028,0.001C2.698,0.001 4.383,-0.531 5.083,-1.596C5.784,-2.66 6.134,-5.218 6.134,-9.27C6.134,-12.687 5.77,-14.871 5.042,-15.823C4.313,-16.775 2.633,-17.251 0,-17.251M0.056,-22.32C5.228,-22.32 8.617,-21.494 10.223,-19.842C11.828,-18.189 12.631,-14.702 12.631,-9.382C12.631,-3.444 11.847,0.449 10.278,2.297C8.71,4.145 5.405,5.069 0.364,5.069C-5.106,5.069 -8.649,4.211 -10.264,2.493C-11.879,0.775 -12.687,-3.005 -12.687,-8.85C-12.687,-14.469 -11.893,-18.119 -10.306,-19.8C-8.719,-21.48 -5.265,-22.32 0.056,-22.32" style="fill:rgb(0,143,179);fill-rule:nonzero;"/>
                    </g>
                    <g transform="matrix(1,0,0,1,350.628,354.531)">
                        <path d="M0,-27.082L0,-0.308L-6.413,-0.308L-6.049,-4.9L-6.161,-4.929C-7.412,-1.643 -10.288,0 -14.787,0C-20.855,0 -23.889,-3.033 -23.889,-9.102L-23.889,-27.082L-17.476,-27.082L-17.476,-10.642C-17.476,-8.364 -17.159,-6.865 -16.523,-6.146C-15.889,-5.428 -14.573,-5.068 -12.575,-5.068C-8.467,-5.068 -6.413,-7.533 -6.413,-12.462L-6.413,-27.082L0,-27.082Z" style="fill:rgb(0,143,179);fill-rule:nonzero;"/>
                    </g>
                    <g transform="matrix(1,0,0,1,357.293,353.803)">
                        <path d="M0,-26.354L6.414,-26.354L6.021,-22.601L6.162,-22.573C7.692,-25.374 10.101,-26.774 13.387,-26.774C18.092,-26.774 20.445,-23.805 20.445,-17.868L20.445,-15.992L14.396,-15.992C14.47,-16.719 14.507,-17.196 14.507,-17.419C14.507,-20.276 13.396,-21.705 11.175,-21.705C8,-21.705 6.414,-19.585 6.414,-15.347L6.414,0.42L0,0.42L0,-26.354Z" style="fill:rgb(0,143,179);fill-rule:nonzero;"/>
                    </g>
                    <g transform="matrix(1,0,0,1,381.294,353.915)">
                        <path d="M0,-26.466L6.357,-26.466L6.105,-21.956L6.246,-21.929C7.496,-25.158 10.297,-26.774 14.647,-26.774C20.977,-26.774 24.142,-23.823 24.142,-17.924L24.142,0.308L17.728,0.308L17.728,-16.831L17.588,-18.708C17.289,-20.705 15.721,-21.704 12.883,-21.704C8.57,-21.704 6.414,-19.66 6.414,-15.571L6.414,0.308L0,0.308L0,-26.466Z" style="fill:rgb(0,143,179);fill-rule:nonzero;"/>
                    </g>
                    <g transform="matrix(1,0,0,1,429.018,343.581)">
                        <path d="M0,-5.516L-0.028,-6.58C-0.028,-8.709 -0.396,-10.09 -1.134,-10.726C-1.872,-11.36 -3.473,-11.678 -5.937,-11.678C-8.328,-11.678 -9.882,-11.295 -10.601,-10.53C-11.319,-9.764 -11.679,-8.093 -11.679,-5.516L0,-5.516ZM-0.056,2.073L6.386,2.073L6.386,3.11C6.386,8.338 2.465,10.951 -5.377,10.951C-10.698,10.951 -14.181,10.046 -15.824,8.235C-17.467,6.423 -18.288,2.587 -18.288,-3.276C-18.288,-8.485 -17.43,-11.986 -15.711,-13.779C-13.994,-15.571 -10.643,-16.467 -5.657,-16.467C-0.878,-16.467 2.324,-15.594 3.949,-13.848C5.573,-12.102 6.386,-8.671 6.386,-3.556L6.386,-1.595L-11.735,-1.595C-11.772,-0.997 -11.791,-0.606 -11.791,-0.419C-11.791,2.213 -11.385,3.968 -10.572,4.846C-9.76,5.723 -8.141,6.162 -5.713,6.162C-3.36,6.162 -1.83,5.906 -1.12,5.392C-0.411,4.879 -0.056,3.772 -0.056,2.073" style="fill:rgb(0,143,179);fill-rule:nonzero;"/>
                    </g>
                    <g transform="matrix(1,0,0,1,462.541,322.1)">
                        <path d="M0,26.018L7.954,26.018L10.503,25.962C12.948,25.962 14.559,25.617 15.334,24.926C16.108,24.236 16.496,22.779 16.496,20.557C16.496,18.242 16.09,16.786 15.277,16.188C14.466,15.59 12.463,15.291 9.271,15.291L0,15.291L0,26.018ZM0,9.943L8.878,9.943C11.753,9.943 13.588,9.625 14.381,8.991C15.175,8.356 15.571,6.89 15.571,4.593C15.571,1.532 13.835,0 10.362,0L0,0L0,9.943ZM-7.254,32.123L-7.254,-6.105L11.539,-6.105C15.945,-6.105 18.946,-5.4 20.543,-3.991C22.139,-2.581 22.937,0.076 22.937,3.977C22.937,8.701 21.061,11.483 17.308,12.323L17.308,12.463C21.677,13.135 23.861,16.169 23.861,21.565C23.861,25.467 23.021,28.203 21.341,29.771C19.66,31.339 16.729,32.123 12.547,32.123L-7.254,32.123Z" style="fill:rgb(0,143,179);fill-rule:nonzero;"/>
                    </g>
                    <g transform="matrix(1,0,0,1,0,74.939)">
                        <path d="M497.885,279.285L491.472,279.285L491.472,252.511L497.885,252.511L497.885,279.285ZM497.885,246.406L491.472,246.406L491.472,241.056L497.885,241.056L497.885,246.406Z" style="fill:rgb(0,143,179);fill-rule:nonzero;"/>
                    </g>
                    <g transform="matrix(1,0,0,1,515.893,349.462)">
                        <path d="M0,-17.251C-2.67,-17.251 -4.369,-16.771 -5.097,-15.809C-5.825,-14.847 -6.189,-12.603 -6.189,-9.073C-6.189,-5.04 -5.844,-2.52 -5.153,-1.512C-4.462,-0.504 -2.735,0.001 0.028,0.001C2.698,0.001 4.383,-0.531 5.083,-1.596C5.783,-2.66 6.134,-5.218 6.134,-9.27C6.134,-12.687 5.77,-14.871 5.041,-15.823C4.313,-16.775 2.633,-17.251 0,-17.251M0.057,-22.32C5.228,-22.32 8.616,-21.494 10.223,-19.842C11.828,-18.189 12.631,-14.702 12.631,-9.382C12.631,-3.444 11.847,0.449 10.278,2.297C8.71,4.145 5.405,5.069 0.364,5.069C-5.106,5.069 -8.649,4.211 -10.264,2.493C-11.879,0.775 -12.687,-3.005 -12.687,-8.85C-12.687,-14.469 -11.894,-18.119 -10.306,-19.8C-8.72,-21.48 -5.265,-22.32 0.057,-22.32" style="fill:rgb(0,143,179);fill-rule:nonzero;"/>
                    </g>
                    <g transform="matrix(1,0,0,1,0,74.939)">
                        <path d="M540.286,279.285L533.873,279.285L533.873,252.511L540.286,252.511L540.286,279.285ZM540.286,246.406L533.873,246.406L533.873,241.056L540.286,241.056L540.286,246.406Z" style="fill:rgb(0,143,179);fill-rule:nonzero;"/>
                    </g>
                    <g transform="matrix(1,0,0,1,546.588,353.915)">
                        <path d="M0,-26.466L6.357,-26.466L6.105,-21.956L6.245,-21.929C7.496,-25.158 10.296,-26.774 14.646,-26.774C20.977,-26.774 24.141,-23.823 24.141,-17.924L24.141,0.308L17.728,0.308L17.728,-16.831L17.588,-18.708C17.289,-20.705 15.721,-21.704 12.883,-21.704C8.569,-21.704 6.413,-19.66 6.413,-15.571L6.413,0.308L0,0.308L0,-26.466Z" style="fill:rgb(0,143,179);fill-rule:nonzero;"/>
                    </g>
                    <g transform="matrix(1,0,0,1,578.319,315.603)">
                        <path d="M0,38.621L0,16.72L-3.781,16.72L-3.781,11.847L0,11.847L0,8.99C0,5.593 0.732,3.245 2.198,1.947C3.663,0.649 6.319,0 10.166,0C10.819,0 11.725,0.028 12.883,0.085L12.883,5.098C12.005,4.892 11.258,4.789 10.642,4.789C7.822,4.789 6.413,6.189 6.413,8.99L6.413,11.847L13.078,11.847L13.078,16.72L6.413,16.72L6.413,38.621L0,38.621Z" style="fill:rgb(0,143,179);fill-rule:nonzero;"/>
                    </g>
                    <g transform="matrix(1,0,0,1,606.633,349.462)">
                        <path d="M0,-17.251C-2.67,-17.251 -4.369,-16.771 -5.097,-15.809C-5.825,-14.847 -6.189,-12.603 -6.189,-9.073C-6.189,-5.04 -5.844,-2.52 -5.153,-1.512C-4.462,-0.504 -2.735,0.001 0.028,0.001C2.698,0.001 4.383,-0.531 5.083,-1.596C5.783,-2.66 6.134,-5.218 6.134,-9.27C6.134,-12.687 5.77,-14.871 5.041,-15.823C4.313,-16.775 2.633,-17.251 0,-17.251M0.057,-22.32C5.228,-22.32 8.616,-21.494 10.223,-19.842C11.828,-18.189 12.631,-14.702 12.631,-9.382C12.631,-3.444 11.847,0.449 10.278,2.297C8.71,4.145 5.405,5.069 0.364,5.069C-5.106,5.069 -8.649,4.211 -10.264,2.493C-11.879,0.775 -12.687,-3.005 -12.687,-8.85C-12.687,-14.469 -11.894,-18.119 -10.306,-19.8C-8.72,-21.48 -5.265,-22.32 0.057,-22.32" style="fill:rgb(0,143,179);fill-rule:nonzero;"/>
                    </g>
                    <g transform="matrix(1,0,0,1,624.781,353.803)">
                        <path d="M0,-26.354L6.413,-26.354L6.021,-22.601L6.161,-22.573C7.691,-25.374 10.101,-26.774 13.387,-26.774C18.092,-26.774 20.444,-23.805 20.444,-17.868L20.444,-15.992L14.395,-15.992C14.47,-16.719 14.507,-17.196 14.507,-17.419C14.507,-20.276 13.396,-21.705 11.174,-21.705C8,-21.705 6.413,-19.585 6.413,-15.347L6.413,0.42L0,0.42L0,-26.354Z" style="fill:rgb(0,143,179);fill-rule:nonzero;"/>
                    </g>
                    <g transform="matrix(1,0,0,1,648.783,353.915)">
                        <path d="M0,-26.466L6.413,-26.466L6.245,-22.349L6.385,-22.32C7.691,-25.289 10.418,-26.774 14.563,-26.774C19.398,-26.774 22.087,-25.121 22.629,-21.817L22.741,-21.817C23.991,-25.121 26.746,-26.774 31.003,-26.774C37.201,-26.774 40.301,-23.655 40.301,-17.419L40.301,0.308L33.888,0.308L33.888,-16.02C33.888,-19.809 32.328,-21.704 29.21,-21.704C25.308,-21.704 23.356,-19.585 23.356,-15.347L23.356,0.308L16.943,0.308L16.943,-16.272C16.943,-18.493 16.649,-19.954 16.062,-20.654C15.473,-21.355 14.227,-21.704 12.322,-21.704C8.383,-21.704 6.413,-19.538 6.413,-15.207L6.413,0.308L0,0.308L0,-26.466Z" style="fill:rgb(0,143,179);fill-rule:nonzero;"/>
                    </g>
                    <g transform="matrix(1,0,0,1,706.588,339.435)">
                        <path d="M0,2.802C-3.622,2.802 -5.434,4.053 -5.434,6.555C-5.434,8.291 -5.06,9.43 -4.313,9.971C-3.566,10.513 -1.998,10.783 0.392,10.783C4.294,10.783 6.245,9.467 6.245,6.834C6.245,4.146 4.163,2.802 0,2.802M-4.285,-4.228L-10.839,-4.228C-10.839,-7.439 -10.092,-9.587 -8.598,-10.67C-7.104,-11.752 -4.145,-12.294 0.28,-12.294C5.097,-12.294 8.354,-11.631 10.054,-10.305C11.753,-8.979 12.603,-6.45 12.603,-2.716L12.603,14.788L6.189,14.788L6.497,11.119L6.329,11.091C5.097,13.762 2.25,15.096 -2.213,15.096C-8.691,15.096 -11.931,12.343 -11.931,6.834C-11.931,1.271 -8.617,-1.511 -1.988,-1.511C2.437,-1.511 5.125,-0.494 6.077,1.541L6.189,1.541L6.189,-2.8C6.189,-4.89 5.825,-6.277 5.097,-6.959C4.369,-7.639 2.875,-7.981 0.616,-7.981C-2.651,-7.981 -4.285,-6.729 -4.285,-4.228" style="fill:rgb(0,143,179);fill-rule:nonzero;"/>
                    </g>
                    <g transform="matrix(1,0,0,1,742.855,348.566)">
                        <path d="M0,-21.117L0,-16.244L-10.306,-16.244L-10.306,-2.801C-10.306,-0.317 -9.363,0.924 -7.478,0.924C-5.405,0.924 -4.369,-0.578 -4.369,-3.585L-4.369,-4.649L1.093,-4.649L1.093,-3.305C1.093,-2.072 1.055,-1.017 0.98,-0.139C0.626,3.949 -2.418,5.993 -8.149,5.993C-13.863,5.993 -16.72,3.37 -16.72,-1.876L-16.72,-16.244L-20.192,-16.244L-20.192,-21.117L-16.72,-21.117L-16.72,-27.11L-10.306,-27.11L-10.306,-21.117L0,-21.117Z" style="fill:rgb(0,143,179);fill-rule:nonzero;"/>
                    </g>
                    <g transform="matrix(1,0,0,1,0,74.939)">
                        <path d="M753.891,279.285L747.478,279.285L747.478,252.511L753.891,252.511L753.891,279.285ZM753.891,246.406L747.478,246.406L747.478,241.056L753.891,241.056L753.891,246.406Z" style="fill:rgb(0,143,179);fill-rule:nonzero;"/>
                    </g>
                    <g transform="matrix(1,0,0,1,777.248,337.672)">
                        <path d="M0,6.329L6.385,6.329L6.385,7.254L5.993,11.314C5.209,15.012 1.381,16.859 -5.489,16.859C-10.53,16.859 -13.882,15.949 -15.544,14.129C-17.206,12.308 -18.036,8.644 -18.036,3.137C-18.036,-2.24 -17.206,-5.862 -15.544,-7.73C-13.882,-9.597 -10.652,-10.53 -5.854,-10.53C-1.224,-10.53 1.913,-9.854 3.557,-8.5C5.199,-7.146 6.021,-4.574 6.021,-0.784L-0.336,-0.784C-0.336,-3.902 -2.139,-5.461 -5.741,-5.461C-8.3,-5.461 -9.905,-4.966 -10.559,-3.977C-11.212,-2.987 -11.539,-0.56 -11.539,3.305C-11.539,7.039 -11.18,9.387 -10.461,10.349C-9.742,11.31 -7.982,11.791 -5.182,11.791C-2.979,11.791 -1.564,11.459 -0.938,10.797C-0.313,10.134 0,8.644 0,6.329" style="fill:rgb(0,143,179);fill-rule:nonzero;"/>
                    </g>
                    <g transform="matrix(1,0,0,1,810.687,346.857)">
                        <path d="M0,-12.042L-6.273,-12.042C-6.311,-12.267 -6.339,-12.435 -6.357,-12.546C-6.488,-13.835 -6.857,-14.637 -7.464,-14.955C-8.07,-15.272 -9.541,-15.431 -11.875,-15.431C-15.217,-15.431 -16.888,-14.348 -16.888,-12.183C-16.888,-10.707 -16.594,-9.83 -16.006,-9.55C-15.417,-9.27 -13.425,-9.046 -10.026,-8.877C-5.452,-8.653 -2.475,-8.047 -1.092,-7.057C0.289,-6.067 0.98,-4.042 0.98,-0.979C0.98,2.288 0.061,4.552 -1.778,5.812C-3.617,7.072 -6.918,7.702 -11.679,7.702C-16.253,7.702 -19.38,7.133 -21.061,5.994C-22.741,4.855 -23.581,2.727 -23.581,-0.392L-23.581,-1.063L-16.916,-1.063C-17.01,-0.69 -17.065,-0.392 -17.084,-0.167C-17.346,2.204 -15.516,3.39 -11.595,3.39C-7.543,3.39 -5.518,2.213 -5.518,-0.14C-5.518,-2.398 -6.787,-3.528 -9.326,-3.528C-15.059,-3.528 -18.834,-4.069 -20.654,-5.152C-22.475,-6.235 -23.385,-8.485 -23.385,-11.902C-23.385,-14.964 -22.555,-17.036 -20.893,-18.119C-19.231,-19.202 -16.038,-19.744 -11.314,-19.744C-6.853,-19.744 -3.851,-19.221 -2.311,-18.176C-0.771,-17.13 0,-15.085 0,-12.042" style="fill:rgb(0,143,179);fill-rule:nonzero;"/>
                    </g>
                </g>
            </g>
        </g>
    </g>
    <defs>
        <linearGradient id="_Linear1" x1="0" y1="0" x2="1" y2="0" gradientUnits="userSpaceOnUse" gradientTransform="matrix(0,1,1,0,0.500014,-0.500014)"><stop offset="0" style="stop-color:rgb(0,143,179);stop-opacity:1"/><stop offset="1" style="stop-color:rgb(0,94,131);stop-opacity:1"/></linearGradient>
        <linearGradient id="_Linear2" x1="0" y1="0" x2="1" y2="0" gradientUnits="userSpaceOnUse" gradientTransform="matrix(1,0,0,-1,0,1.48167e-05)"><stop offset="0" style="stop-color:rgb(0,143,179);stop-opacity:1"/><stop offset="1" style="stop-color:rgb(0,94,131);stop-opacity:1"/></linearGradient>
        <linearGradient id="_Linear3" x1="0" y1="0" x2="1" y2="0" gradientUnits="userSpaceOnUse" gradientTransform="matrix(1,0,0,-1,0,1.48171e-05)"><stop offset="0" style="stop-color:rgb(0,143,179);stop-opacity:1"/><stop offset="1" style="stop-color:rgb(0,94,131);stop-opacity:1"/></linearGradient>
        <linearGradient id="_Linear4" x1="0" y1="0" x2="1" y2="0" gradientUnits="userSpaceOnUse" gradientTransform="matrix(0,1,1,0,0.500023,-0.500023)"><stop offset="0" style="stop-color:rgb(0,143,179);stop-opacity:1"/><stop offset="1" style="stop-color:rgb(0,94,131);stop-opacity:1"/></linearGradient>
        <linearGradient id="_Linear5" x1="0" y1="0" x2="1" y2="0" gradientUnits="userSpaceOnUse" gradientTransform="matrix(1,0,0,-1,0,-7.89228e-06)"><stop offset="0" style="stop-color:rgb(0,143,179);stop-opacity:1"/><stop offset="1" style="stop-color:rgb(0,94,131);stop-opacity:1"/></linearGradient>
        <linearGradient id="_Linear6" x1="0" y1="0" x2="1" y2="0" gradientUnits="userSpaceOnUse" gradientTransform="matrix(1,0,0,-1,0,-7.89233e-06)"><stop offset="0" style="stop-color:rgb(0,143,179);stop-opacity:1"/><stop offset="1" style="stop-color:rgb(0,94,131);stop-opacity:1"/></linearGradient>
        <linearGradient id="_Linear7" x1="0" y1="0" x2="1" y2="0" gradientUnits="userSpaceOnUse" gradientTransform="matrix(1,0,0,-1,0,-1.84599e-06)"><stop offset="0" style="stop-color:rgb(0,143,179);stop-opacity:1"/><stop offset="1" style="stop-color:rgb(0,94,131);stop-opacity:1"/></linearGradient>
        <linearGradient id="_Linear8" x1="0" y1="0" x2="1" y2="0" gradientUnits="userSpaceOnUse" gradientTransform="matrix(1,0,0,-1,0,2.23838e-05)"><stop offset="0" style="stop-color:rgb(247,144,29);stop-opacity:1"/><stop offset="1" style="stop-color:rgb(233,43,46);stop-opacity:1"/></linearGradient>
    </defs>
</svg>
