<?xml version="1.0" encoding="utf-8"?>
<!-- Generator: Adobe Illustrator 26.5.0, SVG Export Plug-In . SVG Version: 6.00 Build 0)  -->
<svg version="1.1" id="Layer_1" xmlns="http://www.w3.org/2000/svg" xmlns:xlink="http://www.w3.org/1999/xlink" x="0px" y="0px"
	 viewBox="0 0 1920 1920" style="enable-background:new 0 0 1920 1920;" xml:space="preserve">
<style type="text/css">
	.st0{fill:#000F46;}
	.st1{fill:#FFFFFF;}
</style>
<g id="Background">
	<rect class="st0" width="1920" height="1920"/>
</g>
<g id="Shield">
	<path class="st1" d="M1350.1,387.8l-125.9-163.5c-18.4,11.5-47.4,22.8-76.6,22.8c-29.2,0-50.2-2.7-74.8-7.6
		c-30.5-6.1-65.1-12.9-120-12.9c-54.9,0-89.5,6.9-120,12.9c-24.7,4.9-45.6,7.6-74.8,7.6c-29.2,0-58.2-11.3-76.6-22.8L555.3,387.8
		c15.6,15,44,48.8,44,96.8c0,32.7-4.8,62.3-10.3,96.6c-7.5,46.1-15.9,98.4-15.9,176.2c0,133.4,85.1,248.4,222,300
		c99.1,37.3,140.5,64.8,157.6,79.9c17.1-15.2,58.5-42.6,157.6-79.9c137-51.6,222-166.5,222-300c0-77.8-8.5-130.1-15.9-176.2
		c-5.6-34.3-10.3-63.9-10.3-96.6C1306.1,436.6,1334.5,402.7,1350.1,387.8z"/>
	<path class="st0" d="M1224.2,224.3l125.9,163.5c-15.6,15-44,48.8-44,96.8c0,32.7,4.8,62.3,10.3,96.6c7.5,46.1,15.9,98.4,15.9,176.2
		c0,133.4-85.1,248.4-222,300c-99.1,37.3-140.5,64.8-157.6,79.9c-17.1-15.2-58.5-42.6-157.6-79.9c-137-51.6-222-166.5-222-300
		c0-77.8,8.5-130.1,15.9-176.2c5.6-34.3,10.3-63.9,10.3-96.6c0-47.9-28.4-81.8-44-96.8l125.9-163.5c18.4,11.5,47.4,22.8,76.6,22.8
		c29.2,0,50.2-2.7,74.8-7.6c30.5-6.1,65.1-12.9,120-12.9c54.9,0,89.5,6.9,120,12.9c24.7,4.9,45.6,7.6,74.8,7.6
		C1176.8,247.1,1205.7,235.8,1224.2,224.3 M1226.5,211.2l-7.6,4.7c-16.5,10.3-43.9,21.3-71.4,21.3c-29.7,0-49.9-2.8-72.9-7.4
		c-31-6.1-66-13.1-121.9-13.1s-91,7-121.9,13.1c-23,4.6-43.2,7.4-72.9,7.4c-27.5,0-54.9-11-71.4-21.3l-7.6-4.7l-5.4,7.1L547.6,381.8
		l-5.4,7l6.3,6.1c15.3,14.7,41,45.9,41,89.7c0,31.9-4.7,61.1-10.2,95c-7.5,46.5-16.1,99.2-16.1,177.8
		c0,137.6,87.5,256.1,228.4,309.2c100.6,37.9,140,65.2,154.6,78.1l6.5,5.8l6.5-5.8c14.5-12.9,53.9-40.2,154.6-78.1
		c140.9-53.1,228.4-171.5,228.4-309.2c0-78.6-8.5-131.3-16.1-177.8c-5.5-33.9-10.2-63.2-10.2-95c0-43.8,25.7-75,41-89.7l6.3-6.1
		l-5.4-7L1232,218.3L1226.5,211.2L1226.5,211.2z"/>
	<path class="st0" d="M1280.6,483c0-43.2,18.7-76.5,36.2-98.2l-99.8-129.5c-18.8,10-42.2,15.7-69.4,15.7c-31.7,0-55-3.1-79.8-8.1
		c-29.4-5.8-62.8-12.4-115.2-12.4c-52.4,0-85.8,6.6-115.2,12.4c-24.8,4.9-48.1,8.1-79.8,8.1c-27.2,0-50.6-5.7-69.4-15.7l-99.8,129.5
		c17.5,21.7,36.2,55,36.2,98.2c0,34.7-4.9,65.3-10.7,100.7c-7.3,45.2-15.6,96.4-15.6,172.1c0,122.5,78.7,228.3,205.5,276.1
		c78.7,29.6,123.5,53.9,148.8,71.5c25.3-17.6,70.1-41.9,148.8-71.5c126.8-47.7,205.5-153.5,205.5-276.1c0-75.8-8.3-127-15.6-172.1
		C1285.5,548.3,1280.6,517.7,1280.6,483z"/>
	<path class="st0" d="M665,294.6c-49.5-11.3-72.4-18.4-72.4-18.4c0,29.8,15.3,44.6,15.3,44.6s3.3,11,12.7,27.4"/>
	<path class="st0" d="M1281.2,449c22.3-12.5,28.2-17.6,36-40.1c0,0,17.6-15.3,25-27.7c20.2-21.4,26.4-47.7,26.6-47.9
		c15.7-18.6,20.8-44.3,20.8-44.3c15.8-24.8,17.8-46.9,17.8-46.9s-36.5,12.2-114.3,37c-11.3,3.6-53,18-53,18"/>
</g>
<path id="Nike" class="st1" d="M691.6,552.4l7.7,19.5l20.5-6l-10,18.1l17.5,13.5l-21,1.8l1,21.3l-15.3-13.8l-16.5,13.8l1.5-20.3
	l-20-4.5l17.8-12.5l-9.8-18.3l18.8,6.7L691.6,552.4z M804.3,602.8l-18.8-6.2l9.7,18l-17.8,12.3l20.6,4.5l-2,20.6l16.3-13.8
	l15.8,13.8l-1.3-21.3l21.1-1.8l-17.2-13.2l9.7-18.3l-20.5,5.5l-7.5-19L804.3,602.8z M661.5,725.7l-18.8-6.2l9.5,17.8l-17.5,12.3
	l20,4.5l-1.7,20.5l16.5-14l15.3,14l-1-21.5c0,0,21-1.8,21-1.8l-17.3-13.5l9.8-17.8l-20.6,5.7l-7.5-19.3L661.5,725.7z M805,733.2
	l-18,0.3l15,11.3l-5.5,18.3l15.2-11l15.3,11l-5.7-18.3l15-11.5h-18.5l-6-17.8L805,733.2z M803.5,859.4l-18.8-6.5l9.5,18l-17.8,12.3
	l20.3,4.5l-1.5,20.5l16.3-14l15.5,14.3l-1.5-21l21.3-2.5l-17.3-13.5l9.8-17.8l-20.3,5.8l-7.5-19.5L803.5,859.4z M986.7,908.3
	c11.4-5.7,14.4-11.2,18.1-18.3l0.3-0.6c0.8-1.6,1.5-3.2,2.2-4.9c1.2-2.9,2.6-6.1,5.1-10c0-0.1,0-0.2,0-0.2
	c-61.6-70-105-152-120-180.6c-0.1-0.2-0.4-0.1-0.4,0.1c-0.9,24.8-0.4,76.4,17,110.5c9.8,19.1,11.4,21,37.6,53.2l4.1,5.1l2.9,3.5
	c0.1,0.2,0,0.4-0.2,0.3c-3.3-1.6-8.5-5-8.5-5c-7.7-4.4-25.8-18.6-41.7-41.6c-0.1-0.2-0.4-0.1-0.4,0.1c-0.8,33.9,16.6,65.8,28.2,78.3
	c11.2,12.1,27.2,13.9,35.8,13.9C974.5,912.1,981.9,910.6,986.7,908.3z M1098.8,929.7c15.4-0.9,34.4-6.9,41.2-16.7
	c2.1-2.6,5.5-6.2,13.4-10.7c4.8-2.5,9.4-4.1,13.5-5.5c12.1-4.1,20.1-6.8,20-28.9c-85.2-51-119.8-102.3-117.5-102.6
	c0,0,14.8,15,36.3,32.4c18.8,15.2,58.5,48.4,93.2,63.9c2.4,1.2,0.1,33.6-19.5,42.4c-1.7,0.8-4.2,1.8-7.2,2.9
	c-10.2,3.8-25.6,9.5-24,19.9c0.5,0.9,3.8,2.2,10.7,2.2c0,0,0,0,0,0c15.3,0,35.2-6.1,42.8-19.6c3-5.4,5.2-10.3,7.2-14.6
	c6.2-13.5,10-21.8,27.6-25.6c-7.4-7.9-46.3-49.4-64.3-68.7c-19-20.4-32.8-43.4-34.3-45.9c0-0.1-3.1-5-7.7-8.1
	c-19.3-15-40.2-19.1-58.7-22.7c-20.3-3.6-30.4-7.4-37.3-14c-11.6-10.8-9.7-28.1-8.9-34.6c0-0.4,0.1-0.8,0.1-1.2
	c-1.1,1.2-2.9,4.1-3.7,5.3c-3,4.9-7.6,12.2-16.1,12.2c-0.9,0-1.9-0.1-2.9-0.3c-6.7-1.2-11.4-4.5-15.1-17.5c-1-3.4-2.9-4.5-3.7-4.6
	c-1.1,0-1.6,0.4-1.9,0.7c-3,3.2-2.3,14.9-1.2,20.1c0.3,2.3-0.4,3.6-1,4.3c-0.8,1-2.1,1.5-3.6,1.5c-1.8,0-3.4-0.8-4.1-2
	c-2.2-3.2-4.3-6.7-6.1-10.2c-1.4,5.3-4.1,11-10.3,11.1c-4.5,0-8.5-3.6-12.8-7.4c-4.8-4.3-8.8-7.6-12.2-7.6c-1.1,0-2.1,0.3-3.2,1
	c-1.8,1.2-3.7,1.8-5.6,1.8c-2.4,0-4.5-1-6.1-2.9c-5.8-7.5,1.6-17.2,4.5-20.4c-1.9-1.3-6.1-2.6-11.3-2.6c-3.9,0-13.3,0.8-17.4,7.8
	c-1.3,4.3,1.2,9.2,3.2,13.2c7.5,16.5,66.7,122.3,127.5,189.4c3.9,4.5,4.3,8.5,1.4,12.4c-8.2,11.5-11,20.6-8.3,27
	c3.4,8.1,14.3,9.9,14.4,9.9c3,0.6,5.8,0.8,8.2,0.8c12,0,15.9-6.5,20.4-14c5.8-10.4,11.5-12.6,15.3-12.6c2.1,0,3.6,0.6,4.2,0.9
	l0.2,0.1c1.4,0.7,3.2,2.8,3.8,5.5c0.5,2.1,0.6,5.5-2.1,9.3l-0.1,0.1c-2.5,2.8-7,4.9-10.9,6.8c-3.9,1.9-8.3,4-8.1,5.6
	c0.6,2.2,15.7,10.8,36,10.8C1097.5,929.7,1098.1,929.7,1098.8,929.7z M994,736.2c10.7,15.6,39.3,57.2,88.3,113c0,0,3.4,4.6-1.5,13.9
	l-2.2,3.3l-1.6-3.5c0,0-1.5-3.4-4.7-7c-59.9-68.7-85.6-127.7-85.3-127.9C987,728.1,988.3,728,994,736.2z M1141.3,741.9
	c2.5-1.8,3.8-6.6,3.8-14.5c0-4.3,0-8.4,2.6-11.8c2.5-3.3,5.9-5.2,10-5.6c-4.4-2.6-9.6-5.5-15.5-8.7c-14.7-8-36.4-19.8-62.7-39.2
	c6.3,8.5,14.4,17,23.6,25l3.3,2.9c-0.2,0.3-3.8-0.9-3.8-0.9c-0.3-0.1-7.3-2.5-11.7-5.3c-0.1-0.1-0.3-0.2-0.5-0.3
	c-12.8-7.3-25-19.1-34.5-33.5c-0.1-0.2-12.6-20.6-27.8-55.1c-4.5-10.3-28.9-51.7-38.3-60.5c-14.7-3-33.5-3.2-38.9-3.2
	c-2.9,0-5.4,0.1-7,0.2c-11.2,0.7-19.6,2.6-24,4.3c-19.2,53.2-25.4,90.6-27.1,112.7l-0.2,1.8c4.9-2.2,10.4-3.4,16-3.4
	c10.3,0,19.5,4,21.4,9.4c1.5,4.9-0.7,7.5-2.9,10c-1.3,1.6-2.7,3.1-3.3,5.4c2.2-1.1,4.5-1.7,6.9-1.7c7.5,0,13.9,5.7,18.6,9.9l0.1,0.1
	c3.7,3.4,5.3,4.4,6,4.8c0.7-1.1,2.5-5.4,3.5-20.3c0-0.1,0-0.2,0-0.2c-7.8-46,16.2-78.5,16.2-78.5s-15.6,52.8-4,85.1
	c2-8,6.7-10.6,10.6-11.2c0.6-0.1,1.2-0.2,1.8-0.2c5,0,11.1,3.6,13.4,11.6c2.8,9.8,4.7,10.1,7.5,10.7c0.4,0.1,0.8,0.1,1.1,0.1
	c2.8,0,4.6-2.3,8-7.7c2.8-4.5,6.3-10.2,12.6-10.2c0.7,0,1.5,0.1,2.3,0.3c3.1,0.7,7.3,3.9,6.5,9.9c-4.1,31.8,10.1,34.6,38.4,40.1
	c15.6,3.1,34.9,6.8,53.4,18.1c-2.1-4.3-5.6-8.2-8.1-10.9c-1.1-1.2-1.9-2.1-2.5-2.9l-1.3-1.8l2.2,0.2c0.2,0,18.8,1.8,23.1,25.3
	c0,0,0,0,0.1,0C1140.4,742.5,1140.8,742.3,1141.3,741.9z M1161.3,718.8c-1,0-2,0.1-3.1,0.4c-3.7,0.9-4,3.8-4.1,9.1
	c-0.1,3.9-0.2,8.6-2.7,13c11.1-2.4,18.1-8.1,18-14.9c-0.1-2.5-1.2-4.7-3-6.1C1165.1,719.3,1163.3,718.8,1161.3,718.8z M1029.4,574.6
	c0.2,0.3,0.6,0.3,0.9,0c8-9.6,2.5-30,0.8-37.7c11.3,6.8,26.8,11.6,35.3,12.4c1-9.7-1.5-19.6-5.7-31.2c12.7,9.2,31.6,14.7,38,14.4
	c1.4-10.2-6.1-29.4-6.6-32.1c4.8,1.9,16.1,8.3,25.6,9.4c2.5-6.2,4.1-16.3,3.2-26.1c0,0-17.6,3.4-26.4,3.4c-2.4,0-4.6-0.1-6.5-0.3
	c-4.9-0.4-13.9-2.1-22.8-4c-5.1-1.1-10.3-2-14.8-2.8c-1.8-0.3-3.6-0.6-5.2-1c-5-0.9-9.2-1.5-15.7-2.1c-2.4-0.2-7-0.4-9.1-0.4
	c-0.1,0-0.1,0-0.1,0.1c-3.1,19.3-14.4,36.4-20.5,45.7c-0.9,1.4-1.7,2.6-2.3,3.5c0,0,0,0.1,0,0.1
	C1009.4,542.6,1026.4,569.9,1029.4,574.6z M818.2,453.9c-4.4-3.9-6-8.5-4.6-13c-8.1-1-22.1-3.6-33.3-9.8c-4.9,1.1-20.7,4.3-40.5,4.3
	c-4.4,0-9-0.1-13.9-0.4c0.4,0.3,0.8,0.5,1.2,0.8c4.2,2.7,8.4,5.5,12.6,6.3c1.7-0.3,5.7-0.6,15.8-1.3c1.5-0.1,3.1-0.2,4.6-0.2
	c10.6,0,22.2,3.7,35.4,11.4c1.1,0.4,11.9,4.7,17.6,7.6C814,458.4,815.8,456.4,818.2,453.9z M1280,439c9-2.4,19.2-11.6,24.9-22
	c-11.4,6.7-20.8,9.4-31.7,9.4c0,0,0,0,0,0c-2.1,0-4.4-0.1-6.9-0.3c-1.6,2.6-3.4,7.5-12.2,11.8C1263,441.5,1275.5,440.2,1280,439z
	 M1135.7,441.2c4.6-0.5,8.7-1,12.3-1.4c23.4-2.7,27-3.1,30.6-5.4c0.5-0.3,1.3-1.1,2.2-2.1c2.9-2.9,7.2-7.2,12.1-7.8
	c0.7-0.1,1.4-0.2,2-0.3c0.6-0.1,1.3-0.2,1.9-0.3c2.1-0.3,3.9-0.7,5.5-1.9c4.1-2.9,7.9-5.6,11.7-5.8c0.1,0,0.2,0,0.2,0
	c3,0,4.3,2.9,4.6,3.9c0.8,1.5,0.7,5.1,0.5,7.7c1-0.2,2.3-0.6,3.5-1.1c0.3-0.1,0.7-0.3,1.2-0.5c1.5-0.6,3.6-1.5,5.5-2.1
	c1.3-0.4,2.3-0.6,3.3-0.6c2.2,0,3.5,1.1,4.8,2.5c2.1,2.2,3.3,5.3,3.6,7.6c6.4-1.8,12.2-6.1,14.7-9.2c-9.6-2.7-22-8.6-29.5-17.9
	c-3.2-4-4.4-7.9-4.7-10.8c-34.2,13-92.6,26-111.6,30c0.6,2.2,0.6,4.4,0,6.5c-0.5,1.8-1.4,3.5-2.8,5.1c2.1,1.8,6.7,6.3,6.7,6.3
	S1132.9,441.5,1135.7,441.2z M831.1,430.9c-0.8-1.5-1.4-3.5-1.5-5.3c-22.4-13.5-48-17.6-62.5-18.9c4.2,6,9.3,10.7,15.7,14.7
	c14.7,9.1,38,10.5,41.2,10.7C825.3,431.8,828.1,431.3,831.1,430.9z M769.2,423.4c-5.5-4.7-9.8-10.1-13.6-16.8
	c-7.1,0.8-14.1,1.3-21,1.3c-21.7,0-42.9-4.3-64.6-13.1c10.8,11,29.6,25.8,45.6,29.2c7.7,1.2,15.8,1.8,24.1,1.8
	C751.7,425.8,762.1,424.6,769.2,423.4z M1224.6,384.2L1224.6,384.2c0.3-0.5,2-2.7,4.8-4.8c1.5-1.2,3.1-2.2,4.8-2.9l1.5-0.6
	c6.1-2.7,12.5-5.4,16.2-8.2l1.1-0.8c2.8-2,5.4-4,7.4-7.8c-10.3-0.5-19.2-3.1-25.1-5.4c-62.5,13.6-122.1,37.2-141.1,45.1
	c4.2,3.9,5.1,9.1,2.8,15.8c2.8,0.2,5.3,1,7.5,2.5C1114.6,414.9,1189.4,399,1224.6,384.2z M1304.5,405.6c7.5-5.5,17.5-12.9,26-24.1
	c-21.6,9-38.5,10.9-61.4,11.1c-0.6,0-1.1,0-1.6,0c-16.4,0-28.1-2.6-33.8-4.2c-0.6,0.6-1,1.1-1.2,1.3c-0.3,0.5-2.8,4.9,1.8,10.5
	c7.7,9.5,22.5,15,30.6,15.9c2.5,0.3,5.2,0.5,8.1,0.5C1279.8,416.7,1290.5,415.6,1304.5,405.6z M751,397.4c-2.3-5.3-4.1-10.7-5.9-16
	l-0.3-0.7c-4.4-12.9-15.6-16.5-16.8-16.8c-53.3-11.2-91.2-28.7-110.2-42.1c6.7,15.5,13.4,29.4,24.2,41.2c13,14.3,30.5,24,54.9,30.5
	l0.2,0c7.5,1.9,14.9,3.2,22,3.8c5.5,0.5,11,0.7,16.3,0.7C742.2,398.2,747.5,397.8,751,397.4z M1080.5,393.6c0.3,0,0.5,0,0.8,0
	c7.9-3.5,69.5-29.9,139.1-46.5c-14.5-6-28.1-8.8-42.5-8.8c-10.9,0-22.4,1.6-35,5c-40.3,10.7-65.6,26.7-77.9,36.2
	c2.1,0.5,3.9,1.4,5.6,2.7c4.2,3.2,6.4,7.3,6.4,11.7C1078.2,393.7,1079.4,393.6,1080.5,393.6z M1270.1,382.7c14,0,34.9-1.6,54.3-8.9
	c18.4-7.2,28.1-26.6,31.6-35.5c-26.9,14.4-51.8,18.5-85.2,20.7c-2.9,9-8.1,12.8-12.2,15.8l-1,0.8c-2.8,2.1-6.6,4.1-10.2,5.8
	C1252.1,381.9,1260,382.7,1270.1,382.7C1270.1,382.7,1270.1,382.7,1270.1,382.7z M844.1,471.8c12-10.6,17.4-13.6,32.8-20.2
	c9.5-12.4,22.6-19.8,36.3-20.7c-15.9-12.6-26.4-25.5-26.5-45.4c-0.1-19.8-11.6-40.1-22.1-47.6c-16.8-12.8-39.2-13.9-70.3-15.3
	c-21-1-44.8-2.1-72.9-7c-0.4-0.1-48.7-9.8-62.2-12.9c-0.4-0.1-35.8-7.3-54.9-13.2c2.6,8.5,10,17.2,22,26c1.5,1,37,24.9,101.8,38.6
	l0,0l0.7,0.2c0,0,4.6,1,6.2,1.3c55.1,10.6,66.7,13.9,67.8,14.2c17,4.8,30.9,11,36.1,16.1c2.4,2.2,5.2,5.6,5.4,5.8l2.4,2.9l-10.6-4
	c-12.5-4.7-22.4-8.1-35.8-11.4c-0.4-0.1-9.7-2.8-51-10.9c2,2.9,3.7,6.1,4.8,9.5l0.3,0.7c2.1,6.1,4.2,12.4,7,18.3
	c10.3,0.4,42.8,3,71.4,19.5c3.8-4.7,9.8-5.7,14.3-5.7c0.2,0,0.5,0,0.7,0c-0.2-3.9,1-7.5,3.5-10.4c3.8-4.4,9.5-4.9,13.4-4.9
	c0.9,0,1.8,0,2.5,0.1c1.1-1.9,3.9-3.9,5.6-5c2.5-1.6,7.6-2.8,7.9-2.8l2.8-0.6l-3.7,4.6c-4.8,6.8-3.6,12-3.6,12.1l0.4,1.4l-4.9-0.6
	c-1.1-0.1-2.2-0.2-3.5-0.2c-4.6,0-8.4,0.9-9.6,2.3c-2.7,3.1-0.5,7.4-0.5,7.5l3.7,7.3l-1.8-0.2c-1.3-0.1-2.7-0.3-4-0.4
	c-2.9-0.3-5.9-0.7-8.5-0.7c-4,0-6.4,0.8-7.4,2.5l-0.1,0.3c-1,1.8-2.3,4.3,6.8,13l1.5,1.5l-2.1,0.3c-0.1,0-13.2,1.7-19.6,4
	c-1.7,0.6-2.7,1.5-2.9,2.5c-0.1,0.6,0,2.6,4.5,5.2l4.7,2.8c0,0-10.5,5.1-10.7,11.9L844.1,471.8z M745,331.9c-0.1,0,0-0.1,0-0.1
	c5.2,0,29.5,4.3,43.5,5.8c7.2,0.9,43.9,5.5,54.7,12c10.7,6.3,15.9,17.5,19.3,26.5l1.8,4.9c0,0-1.5,0-7.4-6.2
	c-4-5-9.9-12.5-18.7-16.9C812.8,345.7,771.3,346.1,745,331.9z M1264.3,349.5c0.8,0,1.6,0,2.4,0c20.1-0.8,60-5.7,81.8-18.7
	c18.1-9.7,23.5-23.6,28.1-36.1c-0.2,0.1-0.8,0.3-0.8,0.3c-4.8,2-10.3,4.3-19.1,7.3l-4.3,1.4c-11.4,3.9-28.6,9.1-45.9,13.8
	c-29,7.9-54.8,19.9-68.7,27C1243.7,346.6,1253.4,349.5,1264.3,349.5L1264.3,349.5z M985.2,384.5c7-6.1,6.8-10.9,6.1-13.9
	c-3.7-9.2-10.7-14.9-20.8-16.8l-46.5-6.4c-0.1,0.1-0.4,0.6-0.5,0.8c0.4,0.2,0.9,0.5,1.4,0.7c5.2,2.6,16,8,19.9,19.4
	c1.2,3.4,3.3,3.6,15.5,4.3l3.7,0.2c2.9,0.2,4.2,0.3,6.4,0.5c5.2,0.6,9.1,4.9,9.9,5.7c0.7,0.8,2.9,3.6,3.4,6.8L985.2,384.5z
	 M1101.9,446.8c0.8-0.2,1.6-0.4,2.3-0.6c-5.3-5.9-11.8-10-11.8-10l3.6-1.8c2.9-1.5,4.7-3.2,5.1-4.9c0.2-0.8,0-1.5-0.5-2.6
	c-1.3-2.6-3.9-3.9-7.6-3.9c-1.5,0-2.9,0.2-3.8,0.4l-8.4,1.3l3.3-6.2c5.7-11.2,2.6-13.3,1.2-14.3c-2-1.4-4.1-2.1-6.4-2.1
	c-2.5,0-4.6,0.8-6.4,1.5c-0.5,0.2-1,0.4-1.4,0.5l-8.6,3.1c0,0,3.1-6.7,3.3-7.1c2-4.3,2.4-7.3-1.2-10.2c-1.5-1.1-3.1-1.7-4.8-1.7
	c-1.7,0-3.5,0.6-5.3,1.8l-8.1,5.5l0.4-2.3c1.4-8.4-6.9-20.1-6.9-20.1s4.7,0.4,11.1,3.9c0.4,0.2,0.7,0.4,1,0.5
	c11.5-10.7,38-30.1,88.4-43.5c13.5-3.6,25.8-5.3,37.5-5.3c16.5,0,32,3.4,48.8,10.7c9.5-5.1,41-21.3,77.4-31.2
	c19-5.2,37.5-11.4,44.6-13.8l12.2-4.4c11.6-4.6,25.6-12.5,32.3-33.4l-145.8,48.8c-21.8,8.7-61,11.9-95.7,14.8
	c-16.8,1.4-32.6,2.7-44.3,4.5c-64.5,11.2-71.2,42.3-74.8,59.1c-0.2,1.1-0.4,2.1-0.7,3c-2.9,15.5-9.2,27.7-18.6,36.3
	c2.2-0.1,4.8-0.1,6-0.1c0,0,0,0,0,0c6.8,0.2,11.6,2,16.7,4.2c1.8,0.8,3.7,1.6,5.6,2.5c1.5,0.7,3.1,1.4,4.7,2.1
	c7.2,3.2,16.9,6.1,32.1,10.4l1.2,0.3c3.8,1.1,6.8,1.9,9.4,2.8c2.4,0.8,6.3,2.4,7.3,2.8C1098.2,447.7,1100.1,447.3,1101.9,446.8z
	 M988.6,351.2c3.6-1.9,3.9-7.3,3.4-9.1c-1.5-5.2-5.4-9.1-11.5-11.6c-3.3-1.2-7.6-1.7-12.7-1.7c-15.8,0-36,6-40.5,11.8l44.8,5.1
	c2.3,0.3,8.3,1.6,14.5,6C987.4,351.6,988,351.4,988.6,351.2z M722.8,451.8c-2.5-2.5-6.4-3.9-9.5-4.2c-6.4-0.4-13.5,2.2-19.6,7.9
	c13.8,0.8,15.9,6.9,23.3,1.1L722.8,451.8 M726.6,455.6l-4.7,5.3c-5.6,6.8,0,8.9,0.5,21.8c5.5-5.5,8.1-12.2,7.9-18.1
	C730.1,461.6,728.9,457.9,726.6,455.6 M709.1,471.5l-3.9,5.9c-4.5,7.6,1.4,8.8,3.7,21.5c4.6-6.3,6.3-13.2,5.1-19.1
	C713.5,476.9,711.7,473.4,709.1,471.5 M696.5,492l-3,6.2c-3.4,7.9,2.4,8.4,6.3,20.3c3.7-6.6,4.4-13.6,2.5-19.1
	C701.4,496.7,699.3,493.6,696.5,492 M703.6,467.9c-3-1.7-7.2-2-10.3-1.4c-6.2,1.3-12.4,5.9-16.6,13c13.5-3,17.2,2.2,22.7-5.4
	L703.6,467.9 M690,489c-3.4-1.1-7.6-0.6-10.6,0.7c-6,2.6-11.3,8.4-14.1,16.4c12.9-5.7,17.7-1.2,21.7-9.9L690,489 M685.4,508.2
	c-2.3,1.7-3.9,4.7-4.5,7.2c-1.1,5.1,0.2,11.2,4.1,16.8c2.3-11.1,7.4-12.1,3.6-18.8L685.4,508.2 M782,482.9l-1.6,7.4
	c-1.7,9.3,4.7,8.3,11.8,20.2c2.3-8,1.3-15.6-2-21C788.5,486.8,785.4,483.9,782,482.9 M776.9,481.4c-3.1-0.9-7-0.3-9.7,0.9
	c-5.4,2.5-10.1,8-12.4,15.4c11.6-5.6,16.1-1.6,19.6-9.7L776.9,481.4 M770.9,504.2c-3-1.4-6.9-1.4-9.7-0.5
	c-5.7,1.7-11.1,6.4-14.6,13.4c12.3-3.8,16.2,0.8,20.8-6.7L770.9,504.2 M758.6,524.9c-2.7-1.7-6.5-2.2-9.3-1.7
	c-5.7,0.9-11.6,4.8-15.8,11.1c12.4-2.1,15.5,2.9,20.9-3.8L758.6,524.9 M776.4,506.8l-3.6,6.7c-4.2,8.5,2.2,9.3,5.8,22.6
	c4.4-7.1,5.6-14.6,3.8-20.8C781.5,512.3,779.3,508.7,776.4,506.8 M763.6,528.1l-4.9,6c-5.9,7.6,0.3,9.8,1.3,23.8
	c5.8-6.2,8.5-13.6,8-20.1C767.7,534.6,766.2,530.6,763.6,528.1 M749.3,542.2l-6.2-0.5c-7.7-0.3-6.2,4.8-15,11.9
	c6.7,0.9,12.8-0.8,16.8-4.1C747,547.9,748.9,545,749.3,542.2 M993,483.4c1.3,12.7,2.4,23.6-2.9,33.4l0,0.1c-0.9,2.3-2.5,5.9-3.3,7.4
	c-15-2.6-31.5-2.8-36.2-2.8c-2.9,0-5.4,0.1-7.2,0.2c-7.1,0.4-13.7,1.4-19.2,2.8c0.7-2.3,1.9-5.8,4.1-8.7l1.2-1.7l-2.1,0.1
	c-1,0.1-2,0.1-3,0.1c-8.3,0-13.2-2-17-6.9c-2.6-3.6-3.3-8.1-1.8-12c1.2-3.4,3.9-6.8,6.4-10.1c2.2-2.9,7-10.5,8.6-13.8
	c1-2,2-4.1,2.9-6.4c2.1,2.8,5.2,4.7,9.5,5.7c2.5,0.6,4.7,0.9,6.9,0.9c4.2,0,8.6-1,14.1-3.3c-7.3,6.5-27.8,10.6-27.8,10.6
	c-0.5,0.6-0.2,1.4,0.5,1.7c0.2,0.1,0.4,0.1,0.5,0.2c2.7,0.7,5.3,1,8.1,1c8.6,0,16.5-3.4,25.1-7.5c13.9-7.3,30.9-30.5,31.6-31.5
	c1-1.4,2.4-2.6,3.8-3.4c-6.1,10.8-4.8,22.6-3.5,35C992.4,477.5,992.7,480.4,993,483.4z M980.7,497c-3.4,6.4-7,12-19.5,12.5
	c-15.4,0.7-19.3-10.3-19.3-10.3c0.9,4.8,4.6,19,19.4,18.4C980.2,516.8,980.7,497,980.7,497z M1001.6,500.6l0.9-1.2
	c1.1-1.4,2-3.1,2.1-3.4c5.6-10.3,6.5-18.4,6.9-21.9l0.1-0.5c0,0,0.8-6.4,3.3-6.4c16.1,0,35.5,3.2,50.7,6.2c4,0.8,8.2,1.6,12.2,2.4
	c5.2,1.3,10.9,1.9,16.9,1.9c8.6,0,17.9-1.3,27.5-3.9l39.4-11.6c1.6-0.4,3.2-0.7,4.8-1.1c5.7-1.3,11.2-2.7,17.6-2.7
	c1.8-0.1,5,0.4,6.7,0.4c13.8,0,29.9-6.9,34.6-10.5c4.9-3.8,5.8-7.1,6.5-11c0.3-1.8,0.2-2.9-0.3-3.5c-0.3-0.3-0.7-0.5-1.2-0.5
	c-1.2,0-3.2,0.8-5.8,1.8c-3.6,1.4-20.6,6.1-24.2,6.3c0.7-1.2,3.2-3.6,5.6-5.4c3.2-2.4,6.2-4.7,6.6-9c0-0.8-0.6-1.1-1.1-1.1
	c-0.3,0-0.8,0.3-1.1,0.4c-1.3,0.7-2.5,1.6-3.7,2.5c-2.9,2.1-5.9,4.3-9.9,4.3c0,0-0.2,0-0.3,0s-0.1,0-0.1,0c-4.3,0.4-6.8,2.9-9.4,5.5
	c-2.8,2.8-5.7,5.7-11.1,6.4l-56.5,7.4c-4.3,0.5-8.5,1.4-12.5,2.3c-3.9,0.9-8,1.8-12,2.3h0c-7.9-3.1-16.9-5.6-25.6-8
	c-12-3.4-23.3-6.5-31.4-10.9c-1.1-0.6-11.5-6.1-21.8-6.1c-2.4,0-4.7,0.3-6.7,0.9l-0.1,0l-0.1,0c-1.2,0.8-12.1,8.6-10.7,30
	c0.6,8.7,1.2,14.9,1.8,19.9c0.3,2.9,0.6,5.3,0.8,7.7c0,0.5,0.3,5,0.2,8.5L1001.6,500.6z M919.4,438.9c-0.5,0-1,0-1.5,0
	c-12.6,0-24.2,6.7-34.6,19.8l0,0c-13.5,5.7-23.9,12.6-36.2,22c-1.8-0.2-16.5-5.7-30.7-11c-8.6-3.2-17.5-6.6-24.3-9c0,0,0,0,0,0l0,0
	c-9.6-6.7-21.3-10.8-28.5-11.8c-1.3-0.2-2.8-0.3-4.6-0.3c-7.6,0-17,1.6-19.9,3c-0.4,0.1-1.1,0.5-1.2,1.3c0,0.4,0.1,0.8,0.4,1.1
	c0.4,0.4,1,0.6,2.1,0.6c1.1,0,2.6-0.2,4.4-0.5c2.4-0.3,5.4-0.8,8.4-0.8c8.6,0,13.5,3.4,15.6,10.7c-3.1,0.6-4.2,1.5-5.3,2.5
	c-1.2,1.1-2.3,2.1-6.3,2.7l-1,0.2l-0.1,0c-0.7,0.2-1.2,0.6-1.2,1.1c-0.1,0.7,0.5,1.3,0.7,1.4c0.9,0.7,2.3,1.1,4,1.1
	c1.7,0,3.6-0.4,5.1-1.1c1.6-0.8,3.5-1,5.5-1.2c2.8-0.3,6-1.1,9.5-3c10.4,4.4,20.4,10.9,29.9,19.5c6.4,5.8,13.7,12.5,27.8,19.9
	c0.9,0.4,2.2,0.8,3.7,0.8c2.4,0,5.1-1,8.2-3.1c8.7-5.1,53.7-31.1,58.2-33.4l0.1,0l0.1-0.1c5.4-5.2,8.5-16.1,8.9-17.4
	c0.2-0.7,0.4-1.6,0.7-2.5c1.1-3.9,2.6-9.2,2.8-12l0.1-0.5L919.4,438.9z M1014.4,369.6c-3.4,3.3-6.6,4.3-9,4.3
	c-2.7,0-5.2-0.7-7.3-1.6c-0.1,1.1,0.2,2.5,0.6,3.5c1,2.6,3.6,4.1,6,4.1C1010.1,379.9,1014.4,375,1014.4,369.6z M997.1,363.2
	c4.4,2.8,8.2,3.5,11.4,2.1c4.2-1.9,6-6.8,6.1-7.4c0.6-3.9-1.1-4.5-3.4-5.2c-2-0.7-4.4-1.5-4.6-5c0-1.3-0.4-2.1-1.1-2.5
	c-1.2-0.8-3.4-0.2-4.5,0.3c-0.7,7.7-4.7,11.3-7.6,13L997.1,363.2z M953,323.8c0,0-5.3-2.4-11.1-2.9c-7.1-0.6-11.8,0.9-14.5,2.2
	c-4.4,2.1-6.5,7.6-4.2,11C930,328.6,940.9,325.4,953,323.8z M996.5,427.8c-2.4-0.8-3.9-1.2-6.1-2.1c-15.9-6.3-9.8-21.8-12-34.1
	c-0.3-2.5-1-5-4.2-4c-1.5,0.4-7.2,6.6-16.2,3.4c3.5-1.1,6.7-2.2,8.9-3.9c3-2.3,4-5.3,2.5-7.4c-0.9-1.5-3-1.8-4.7-1.3
	c-1.5,0.5-3.2,2.9-2.7,5.3c0,0-3.6,0.4-7.4-3.2c-1.6-1.5-4.3-2-7.4-1.9c-4.4,0.3-7.2-0.8-8.8-5.7c-1.9-8.2-10.6-14.8-17.6-18.5
	c-1.8,4.6-3.5,7.7-3.4,13.2c0.5,3.7,7.1,3,9.5,3.4c6.8,1.7-4.4,6.5-4.3,9.8c-0.7-1-1.2-3-0.2-3.9c1.7-2.4-1.9-2.2-2.8-3.4
	c-0.2,6.5-5.3,15.6-4.9,17.9c0.1,0.6,5.8,1,5.8,1c1.5,1.4,0.5,4.1,0.7,6c0,0.1,0.2,0.2,0.3,0.2c0.4,0.2,2.4,0.4,3,0.4
	c0.5,0.1,1,0.5,1,1c0,0.6-0.4,1-1,1c0,0-0.8,0-1.7-0.2c0.4,1.7,0.3,3.5,2.7,4.5c1.2,1.7-0.5,6.4,2.6,7.2c8.6,2,19.8-7.7,29.1-14.2
	c-1.4,5.5-9.1,11.4-11,16.9c0,0-0.3,8.8-2.2,14.5c-2.3,6.9-9.7,5.6-15.2,8.4c0,0.4-0.1,0.9-0.2,1.5c-0.1,0.8-0.3,1.7-0.3,2.7l0,0.5
	l0,0c0,0.2-0.1,0.5-0.1,0.9c-0.4,3.6-1.5,13.3,4.7,16.6c2,1,4.3,1.5,7,1.5c0,0,0,0,0,0c6.2,0,14-2.7,22.4-7.8
	c9-5.4,13.7-9.6,18.8-14.1C984.8,436.4,989.2,432.5,996.5,427.8z M1128.1,481.9c9.9,15.9,25.1,15.5,35.6,12.5
	c-12-4-16.3-6.1-25.3-15.4C1138.5,479,1132.8,480.8,1128.1,481.9z M913.5,523.7c-3.4-1-5.2-1.8-8.1-3.8c-9.2-6.2-14.7-19.5-8.1-31
	c0.1-0.3,0.5-1,1.7-2.9c-5,3.1-48.6,28.7-48.6,28.7s0.2,3.2,4.5,4.8c8.9,2.8,19.6,0.3,25.6-0.9c-4.2,4.5-9.4,13.7-6.6,24
	c8.8-2.2,13-3.7,19.6-13.7c-0.2,9.3-0.8,24.7,7.4,32.3C902.3,557.1,907.2,542,913.5,523.7z M1147.8,476.5
	c4.5,4.5,11.3,10.6,26.9,13.3c8.3,1.3,22.1-0.5,27.7-2c-15.5-3.7-24.1-10.6-32.7-17.8C1167,470.5,1156.5,473.2,1147.8,476.5z
	 M1181.9,467c6.3,5.1,14.2,11.5,27.4,14.9c15.7,3.8,36.7-5.5,37.9-6.7c-13.8-0.7-24.2-5.5-34.9-12.3
	C1199.3,469.6,1186.8,465,1181.9,467z M1222.7,457.8c7,3.8,12.6,6,19.1,7.7c17.2,5.2,27.9-7.3,32.8-14.5c0.2-0.3,0.2-0.9-0.3-0.9
	c-22.3-0.1-24.1-2.1-32.8-5.8C1240.2,447.2,1235.7,454.3,1222.7,457.8z"/>
<g id="Script">
	<path class="st0" d="M952.7,1021c174.3,0,204.3,140.1,383.1,140.1c108.3,0,110.4-46,110.4-46l-18.3-94c23.7-28.3,120.7-25,120.7-25
		l-84.1-109c-78.2,5-142.4,25.2-142.4,59.1l0,101c-105.4,0-175.8-139.5-369.3-139.5h0c-193.5,0-264,139.5-369.3,139.5l0-101
		c0-33.8-64.3-54-142.4-59.1l-84.1,109c0,0,97.1-3.4,120.7,25l-18.3,94c0,0,2.1,46,110.4,46C748.4,1161.1,778.5,1021,952.7,1021
		L952.7,1021z"/>
	<path class="st1" d="M1369.8,988.6c41.6,11.5,45.5,18.9,46.5,23.1c0.8,4.3-0.2,8.3-3.2,12.1c-10.6,13.5-42.6,22.6-81.7,23.3v-77.8
		C1339.2,977.3,1351.9,983.7,1369.8,988.6z M1331.5,945.8c0,19.1,19.9,27.9,40.9,33.7c39.9,11,50.3,19.2,53.4,30.6
		c18.7-14.4,51.6-20.5,103.3-22.5l-70.1-91.2c-26,2.6-54.7,6.6-74.9,12.6C1352.7,918.3,1331.5,931.5,1331.5,945.8z M1420,1030.6
		c-15.4,18.4-55.6,25.5-88.5,26.1v0h-9.5c-47.6,0-87-25.8-132.6-55.6c-58.3-38.1-124.2-81.2-227.2-83.7h-19
		c-103.1,2.5-168.9,45.6-227.2,83.7c-45.6,29.8-85,55.6-132.6,55.6h-9.5v0c-32.9-0.6-73.1-7.7-88.5-26.1l-16.5,84.8
		c1.4,5.6,12.9,36.3,100.7,36.3c87,0,136.5-33.6,188.9-69.1c49.6-33.7,100.9-68.4,184.7-70.9h19c83.8,2.5,135.1,37.2,184.7,70.9
		c52.4,35.5,101.9,69.1,188.9,69.1c87.8,0,99.4-30.8,100.7-36.3L1420,1030.6z M535.6,988.6c-41.6,11.5-45.5,18.9-46.5,23.1
		c-0.8,4.3,0.2,8.3,3.2,12.1c10.6,13.5,42.6,22.6,81.7,23.3v-77.8C566.2,977.3,553.6,983.7,535.6,988.6z M521.4,908.9
		c-20.2-6-48.9-10-74.9-12.6l-70.1,91.2c51.7,2,84.5,8.2,103.3,22.5c3-11.3,13.4-19.5,53.4-30.6c20.9-5.8,40.9-14.6,40.9-33.7
		C573.9,931.5,552.7,918.3,521.4,908.9z"/>
	<path class="st0" d="M1409,1109.4c0,0,2.4,10.7,2,11.3c0,0-1.3,0.5-1.8,0.2c-0.4-0.9-0.7-1.1-2.9-0.7c0,0-33.1,7.4-33.7,7
		c0,0-0.4-1.3,0-1.9c2.3-0.8,2.3-1.3,2.1-2.4l-9.1-40.9c-0.2-1.1-0.4-1.5-3.6-1.6c0,0-0.3-1.3,0.1-1.9l32.1-7.1
		c2.1-0.5,2.3-0.9,2.7-2.3c0,0,1.2-0.5,1.8-0.1c0,0,2.5,11,2.1,11.6c0,0-1.3,0.3-1.9,0c-0.4-0.7-0.7-1-2.8-0.5
		c0,0-19.3,4.3-19.4,3.8c0,0.1,2.1,9.8,2.1,11.3c0,0.1,0,0.2-0.1,0.2c0.1,0,11.7-2.6,11.7-2.6c2.2-0.5,2.3-0.7,2.7-2.1
		c0,0,1.4-0.5,1.9-0.3c0,0,2.7,11,2.3,11.6c0,0-1.4,0.5-1.9,0.4c-0.3-0.7-0.9-1.2-3.1-0.8c0,0-10.3,2.3-11.3,2.5
		c0.3,1.4,2.4,10.7,2.3,12.1c0,0.1-0.1,0.2-0.1,0.2c0.1,0,21-4.6,21-4.6c2.2-0.5,2.3-0.7,2.7-2.2c0,0,1.3-0.6,1.9-0.3L1409,1109.4z
		 M1205.7,1081.8c0,0,1.2,0.6,1.4,1.3c0,0-6.6,10.1-7.3,10.2c0,0-1.1-0.6-1.3-1.2c0.4-0.9,0.4-1.5-1.5-2.7c0,0-27.3-17.9-27.4-18.6
		c0,0,0.7-1.2,1.3-1.4c1.8,0.9,2.3,0.7,2.9-0.3l22.9-34.9c0.7-1,0.8-1.5-1-3.6c0,0,0.6-1.2,1.3-1.3c0,0,13,8.5,13.1,9.2
		c0,0-0.5,1.2-1.2,1.4c-2.3-1.2-2.8-1-3.5,0c0,0-20.2,30.8-20.8,30.8c0,0,17.2,11.3,17.2,11.3
		C1203.6,1083.1,1204,1083.1,1205.7,1081.8 M873.6,996c0,0-0.7,1.2-1.2,1.3c-0.6-0.3-1-0.5-1.4-0.4c-2.7,1.9-3.6,8.1-14.5,11.3
		c-13,4-25.1-3.2-29.4-17.4c-5.3-17.3,3.9-28.6,15.4-32.2c9.7-2.7,13.7,1.4,14.9,0.1c0.9-1,1.4-1.8,2-1.7l1.1,0.1l-0.3,1.4
		c0,0-2.7,12.6-3.2,13l-1.1-0.2c0,0-0.2-1.5-1.4-2.8c-1.8-1.9-5.9-2.5-9.2-1.5c-4.1,1.2-13.2,4.7-8.3,20.6
		c2.6,7.6,7.8,14.3,17.7,11.7c2.9-0.9,5.6-3,6.8-5.3c0,0,1.2-2.5-0.2-5.5c0,0,0.6-1,1.2-1L873.6,996z M582.9,1085.4
		c-3.9-4.1-9.4-6.4-15.6-6.6c-6.3-0.1-11.8,1.9-15.9,5.8c-4.8,4.5-7.5,11.4-7.7,19.3c-0.4,15.4,8.6,25.9,22.4,26.3
		c6.3,0.1,11.8-1.8,15.9-5.8c4.8-4.5,7.5-11.4,7.7-19.4C589.8,1097.2,587.4,1090.1,582.9,1085.4z M579.2,1104.8
		c-0.1,6.1-1.7,10.8-4.6,13.6c-2.1,2.1-5,3.1-8.4,3c-8.1-0.2-12.4-6.3-12.2-17.1c0.1-6.2,1.8-10.8,4.7-13.6c2.1-2,4.9-3,8.3-2.9
		c3.4,0.1,6.2,1.2,8.2,3.3C578,1094,579.4,1098.7,579.2,1104.8z M1336.8,1081.2l-20.6-0.1c-0.5,0.5-0.6,1.8-0.6,1.8
		c2,0.7,2.3,1.2,2.2,2.5c0,0-0.1,41.8-0.1,41.8c0,1.3-0.2,1.6-1.9,1.9l-0.4,1.8c0.5,0.5,19.3,0.6,19.3,0.6c8.2,0,14.5-2.1,18.7-6.3
		c4.3-4.2,6.4-10.5,6.4-18.8C1359.9,1090.8,1351.3,1081.3,1336.8,1081.2z M1349.5,1106.5c-0.1,12.3-4,16.2-16.4,16.2
		c0,0-5.4,0-5.4,0v0c0.5-0.1,0.6-29.8,0.7-32.5c0.8,0,4.9,0.1,4.9,0.1c12.3,0,16.3,4,16.3,16.1V1106.5z M1008.2,944.4
		c0,0,4.1,2.4,4.7,2.6c0.6,0.2,1.3-0.2,1.9-0.7l1.5,1.2c0,0-8.5,10.9-9.2,11c0,0-1.2-0.7-1.5-1.2c0,0,0.2-1.3,0.3-1.6
		c0.5-2.4-4.1-5.7-11-6.5c-2.6-0.4-4.6,0-6,1.1c-1.4,1-1.7,2.2-1.8,3.4c-0.4,3.8,4.5,5.6,10.2,7.6c8.3,3,18.6,6.6,17.2,18.5
		c-0.5,3.8-2.5,7.2-5.6,9.7c-3.2,2.5-9,5.3-18.7,3.9c0,0-9.5-1.7-16.5-6.4c0,0-0.2-0.2-2.1,1.1l-1.3-1l0.3-0.4
		c0,0,7.2-11.1,7.9-11.3l1.3,0.7c0,0-0.1,0.9-0.1,1.2c-0.4,3.6,8.1,6.5,12.1,7c4.7,0.6,8,0.1,9.9-1.4c0.9-0.8,1.8-2.2,2.1-4.1
		c0.6-4.1-4.8-6-10.8-8.2c-8-2.9-17.9-6.4-16.6-16.9c0.9-6.9,6.8-14.4,20.4-12.7C1001.1,941.5,1004.9,942.7,1008.2,944.4
		 M1090.4,969.2c-0.7,0.3-1.2,1.5-1.2,1.5c1.6,1.4,1.5,1.7,1.4,1.9l-2.7,3.1c0,0-29,29.4-29,29.4c0,0-0.8,0.8-1.7,0.9
		c-0.5,0.1-1.2,0.2-1.8,0.2l-0.7,1.6l12.9,6l0.7-1.6c-0.2-0.1-0.4-0.3-0.6-0.6c-0.2-0.3-0.2-0.6-0.1-1c0.2-0.3,0.7-1.1,0.7-1.1
		s5.7-6.1,5.9-6.5c0.4,0.3,15,7,15,7.1c-0.1,0.7-1.1,8.6-1.1,8.6s-0.2,0.9-0.3,1.2c-0.2,0.3-0.4,0.5-0.8,0.6c-0.4,0-0.7,0-0.9-0.1
		l-0.7,1.6l12.9,6l0.7-1.6c-0.4-0.5-0.8-1-1-1.5c-0.5-0.7-0.3-1.9-0.3-1.9c0,0,3.6-41.1,3.6-41.1l0.5-3.8c0.1-0.3,0.4-0.9,1.8-0.4
		c0.6-0.3,1.2-1.5,1.2-1.5C1104.8,975.5,1090.4,969.2,1090.4,969.2z M1090.3,1002.3c0,0-9.3-4.3-10.8-5c0.8-0.9,11.7-12.9,13.2-14.5
		C1092.7,982.8,1090.4,1001.8,1090.3,1002.3z M1242.5,1057.1c-0.7,0.2-1.2,1.4-1.2,1.4c1.5,1.5,1.4,1.8,1.3,1.9l-2.8,3
		c0,0-30,28.3-30,28.4c0,0-0.8,0.8-1.7,0.9c-0.6,0.1-1.2,0.1-1.8,0.1l-0.8,1.5l12.7,6.4l0.8-1.5c-0.2-0.1-0.4-0.3-0.6-0.6
		c-0.2-0.3-0.2-0.6,0-1c0.2-0.3,0.8-1,0.8-1s5.9-5.9,6.2-6.3c0.4,0.3,14.7,7.5,14.8,7.6c-0.1,0.7-1.4,8.6-1.4,8.6s-0.2,0.9-0.4,1.2
		c-0.2,0.3-0.4,0.5-0.8,0.5c-0.4,0-0.7,0-0.9-0.1l-0.8,1.5l12.7,6.4l0.8-1.5c-0.4-0.6-0.7-1.1-1-1.6c-0.4-0.7-0.3-1.9-0.3-1.9
		c0,0,5-41,5-41l0.7-3.8c0.1-0.3,0.4-0.9,1.8-0.3c0.6-0.2,1.2-1.5,1.2-1.5C1256.6,1063.9,1242.5,1057.1,1242.5,1057.1z
		 M1241.2,1090.2c0,0-9.1-4.6-10.6-5.4c0.8-0.9,12.2-12.5,13.7-14.1C1244.2,1070.8,1241.3,1089.7,1241.2,1090.2z M966.9,979
		c0,0,0.4,11-0.1,11.5c0,0-1.4,0.3-1.9-0.1c-0.2-0.9-0.5-1.2-2.7-1.2c0,0-33.9,1.1-34.4,0.6c0,0-0.1-1.4,0.3-1.9
		c2.4-0.4,2.5-0.8,2.5-2l-1.3-41.9c0-1.1-0.1-1.6-3.3-2.3c0,0,0-1.3,0.5-1.8l32.9-1c2.2-0.1,2.5-0.5,3.1-1.8c0,0,1.3-0.2,1.8,0.3
		c0,0,0.4,11.3-0.1,11.8c0,0-1.3,0.1-1.8-0.3c-0.2-0.8-0.5-1.1-2.7-1c0,0-19.7,0.6-19.8,0.1c0,0.1,0.3,10,0,11.5
		c0,0.1-0.1,0.2-0.1,0.2c0.1,0,12-0.4,12-0.4c2.2-0.1,2.4-0.2,3-1.6c0,0,1.5-0.3,1.9,0c0,0,0.6,11.3,0.1,11.8c0,0-1.5,0.2-1.9,0
		c-0.2-0.8-0.6-1.4-2.9-1.3c0,0-10.6,0.3-11.5,0.3c0.1,1.4,0.4,10.9,0.1,12.4c0,0.1-0.1,0.1-0.1,0.1c0.1,0,21.5-0.7,21.5-0.7
		c2.2-0.1,2.4-0.3,3-1.6c0,0,1.4-0.4,1.9,0.1L966.9,979z M620.7,1074.6c0,0,4.5,1,5.2,1c0.6,0,1.2-0.6,1.5-1.3l1.8,0.6
		c0,0-4.5,12.7-5.1,13.1c0,0-1.4-0.3-1.8-0.7c0,0-0.2-1.3-0.2-1.6c-0.3-2.3-5.6-4-12.2-2.7c-2.5,0.5-4.2,1.5-5.2,2.8
		s-0.9,2.6-0.6,3.7c0.8,3.7,5.8,3.8,11.8,3.9c8.6,0.2,19.3,0.4,21.6,11.8c0.7,3.6-0.1,7.5-2.2,10.7c-2.2,3.3-6.7,7.7-16.1,9.3
		c0,0-9.3,1.3-17.2-0.8c0,0-0.3-0.1-1.6,1.6l-1.5-0.5l0.1-0.5c0,0,3.2-12.5,3.8-12.9l1.4,0.3c0,0,0.2,0.9,0.3,1.2
		c0.7,3.5,9.5,3.5,13.4,2.7c4.5-0.9,7.4-2.4,8.8-4.4c0.6-1,1-2.6,0.7-4.5c-0.7-4-6.2-4.1-12.6-4.3c-8.3-0.2-18.5-0.4-20.6-10.6
		c-1.3-6.7,1.8-15.4,15-18C613.3,1074.1,617.2,1074,620.7,1074.6 M728.7,1064.7c0,0,6,9.2,5.9,9.9c0,0-1,1-1.6,0.9
		c-0.7-0.7-1.1-0.8-2.9,0.4c0,0-28.4,18.5-29.1,18.4c0,0-0.8-1.1-0.7-1.8c1.9-1.6,1.7-2,1.1-3l-22.9-35.1c-0.6-1-1-1.3-4-0.3
		c0,0-0.7-1.1-0.6-1.8l27.5-17.9c1.8-1.2,1.9-1.7,1.7-3.1c0,0,1-0.9,1.7-0.7c0,0,6.2,9.4,6,10.1c0,0-1.1,0.8-1.7,0.7
		c-0.6-0.6-1-0.7-2.9,0.5c0,0-16.5,10.8-16.8,10.4c0,0.1,5.4,8.4,5.9,9.8c0,0.1,0,0.2,0,0.2c0.1,0,10.1-6.5,10.1-6.5
		c1.9-1.2,1.9-1.4,1.7-2.9c0,0,1.1-1,1.6-1c0,0,6.4,9.3,6.2,10c0,0-1.2,1-1.6,1c-0.6-0.6-1.3-0.8-3.1,0.4c0,0-8.9,5.7-9.7,6.3
		c0.8,1.2,6,9.2,6.5,10.5c0,0.1,0,0.2,0,0.2c0.1,0,18-11.7,18-11.7c1.9-1.2,1.9-1.5,1.8-3c0,0,1-1,1.7-0.9L728.7,1064.7z
		 M769.8,992.6c-0.2,0.7,0.4,1.8,0.4,1.8c2.1-0.4,2.3-0.1,2.3,0l0.9,4c0,0,5.8,40.9,5.8,40.9c0,0,0.2,1.2-0.2,1.9
		c-0.3,0.5-0.6,1-1,1.6l0.8,1.5l12.6-6.7l-0.8-1.5c-0.2,0.1-0.5,0.1-0.8,0.1c-0.4,0-0.7-0.2-0.8-0.5c-0.2-0.3-0.4-1.2-0.4-1.2
		s-1.4-8.2-1.6-8.7c0.4-0.1,14.7-7.6,14.7-7.7c0.5,0.6,6.2,6.1,6.2,6.1s0.6,0.7,0.8,1c0.2,0.3,0.2,0.7,0,1c-0.2,0.3-0.4,0.5-0.6,0.6
		l0.8,1.5l12.6-6.7l-0.8-1.5c-0.7,0-1.3,0-1.8-0.1c-0.8-0.1-1.7-0.9-1.7-0.9c0,0-30.5-27.8-30.5-27.8l-2.7-2.7
		c-0.2-0.3-0.5-0.9,0.8-1.7c0.2-0.7-0.5-1.9-0.5-1.9C783.5,985.1,769.8,992.6,769.8,992.6z M796.1,1012.9c0,0-9,4.7-10.5,5.6
		c-0.2-1.2-3.2-17.2-3.6-19.3C782,999.2,795.7,1012.5,796.1,1012.9z M1057.7,1002c0,0-1.2,0.6-1.7,0.4c-0.3-0.6-0.5-1-1-1.1
		c-3.3,0.1-7.5,4.7-18.3,1.4c-13-3.8-19.2-16.5-15-30.8c5.1-17.4,19.1-21.7,30.6-18.3c9.6,3.1,10.7,8.7,12.4,8.3
		c1.3-0.3,2.2-0.7,2.6-0.3l0.9,0.7l-1,1c0,0-9.2,9.1-9.8,9.1l-0.8-0.7c0,0,0.7-1.3,0.4-3.1c-0.5-2.6-3.6-5.3-6.9-6.3
		c-4.1-1.2-13.6-3.4-18.3,12.7c-2,7.8-1.3,16.2,8.3,19.6c2.9,0.8,6.3,0.6,8.6-0.7c0,0,2.4-1.4,2.9-4.7c0,0,1.1-0.5,1.5-0.2
		L1057.7,1002z M526.8,1072.6l-22.4-4.3c-0.6,0.4-0.5,1.7-0.5,1.7c2.1,1.2,2.2,1.7,1.9,2.9l-8,41.1c-0.2,1.2-0.6,1.7-2.4,1.6
		c-0.6,0.4-0.7,2-0.7,2c0.1,0.1,15,2.9,15,2.9l0.3-1.7c-1.7-0.9-2-1.4-2-2.2c0-0.2,0-0.4,0.1-0.6c0,0,3.2-16.2,3.2-16.4
		c0,0.5,9.8,2.4,9.8,2.4c12.6,2.5,18.6-4.3,20-11.4C542.6,1083.5,539.5,1075,526.8,1072.6z M521.2,1092.9c0,0-8.1-1.6-8.2-1.6
		c0.5-1.5,2-10.5,2.3-11.9c0.9,0.2,8.2,1.6,8.2,1.6c6.1,1.3,8.3,3.3,7.5,7.7C530.1,1093.1,527.5,1094.1,521.2,1092.9z M774.4,1043.9
		c-1.8,0.3-2.5,0-5.4-1.7l-14.3-8.1c5.7-6.2,4.9-13.1,1.6-18.1c-4-6.1-12-10-22.9-3l-19.1,12.4c-0.1,0.7,0.9,1.6,0.9,1.6
		c2.3-0.6,2.7-0.3,3.4,0.7l22.8,35.1c0.7,1,0.8,1.7-0.7,2.8c-0.1,0.7,0.9,1.9,0.9,1.9c0.2,0,12.8-8.3,12.8-8.3l-1.1-1.8
		c-1.8,0.5-2.4,0.4-3-0.2c-0.1-0.2-0.3-0.3-0.4-0.5c0,0-8.6-13.2-8.7-13.4c0,0,2.7-1.7,5-3.2c2.4,1.6,16.6,9.7,16.8,9.8
		c0.4,0.3-0.6,1.3-0.9,1.5c-0.1,0.3,1.1,1.9,1.1,1.9c0.3,0.1,12.3-7.9,12.3-7.9C775.3,1045.1,774.4,1043.9,774.4,1043.9z
		 M729.9,1026c0.8-0.5,7-4.6,7-4.6c5.3-3.3,8.2-3.4,10.7,0.3c2.4,3.8,1.3,6.4-4.1,9.8c0,0-6.9,4.5-7,4.6
		C735.8,1034.8,730.6,1027.2,729.9,1026z M920.9,989.6c-1.8-0.4-2.3-1-4.4-3.7l-10.1-13c7.6-3.5,9.5-10.2,8.5-16
		c-1.3-7.1-7.2-13.9-19.9-11.6l-22.4,4.1c-0.4,0.6,0.2,1.8,0.2,1.8c2.4,0.4,2.6,0.8,2.9,2l7.5,41.2c0.2,1.2,0.1,1.8-1.7,2.3
		c-0.4,0.6,0,2.1,0,2.1c0.2,0.1,15-2.7,15-2.7l-0.4-2.1c-1.9-0.3-2.4-0.6-2.7-1.3c-0.1-0.2-0.1-0.4-0.2-0.6c0,0-2.8-15.5-2.9-15.7
		c0,0,3.1-0.5,5.9-1c1.6,2.4,11.6,15.4,11.7,15.5c0.3,0.4-1,0.9-1.4,1c-0.2,0.2,0.3,2.1,0.3,2.1c0.2,0.2,14.4-2.5,14.4-2.5
		C921.3,991,920.9,989.6,920.9,989.6z M886.7,955.9c0.9-0.2,8.2-1.5,8.2-1.5c6.1-1,8.9,0,9.7,4.4c0.8,4.4-1.3,6.4-7.6,7.5
		c0,0-8.1,1.5-8.2,1.5C888.8,966.3,887,957.3,886.7,955.9z M674.9,1103.3c0.5,1.2,0.9,1.4,3,1.2l0.8,1.6l-0.5,0.2
		c0,0-11.6,5.3-12.7,5.7c0,0-0.8-1.4-0.7-1.8c0.3-0.2,0.9-0.9,0.9-1.4c0-0.3-0.1-0.7-0.4-1.2c0,0-14.8-32-15.4-33.8l0,0
		c0,0-10.2,4.8-10.2,4.8c-1.6,0.8-2,1.2-2,2.6c0,0.2,0,0.5,0.1,0.8c0,0-1.1,0.9-1.8,0.6c0,0-5.1-10.9-4.9-11.6c0,0,1-0.7,1.6-0.6
		c0.6,0.8,1,1,3,0l29-13.2c1.9-0.9,2.3-1,2.3-2.6c0,0,0.8-0.6,1.5-0.8c0,0,5.5,11.2,5.3,11.8c0,0-1.1,0.8-1.7,0.6
		c-0.8-1.2-1.3-2-3.2-1.1c0,0-9.1,4.3-9.5,4.3C659.7,1069.7,674.9,1103.3,674.9,1103.3 M1275.5,1125.1
		c-12.5-3.5-17.1-11.5-13.9-23.6l7.3-26.6c0.3-1.2-0.3-2.2-1.9-2.9c0-0.7,0.4-1.9,0.4-1.9s10.2,2.7,14.7,4.1c0,0-0.3,1.4-0.8,1.8
		c-1.6-0.2-2,0.4-2.3,1.6l-7.3,26.8c-0.8,3-0.6,5.7,0.6,7.8c1.1,2,3,3.4,5.7,4.2l0,0c2.7,0.7,5.1,0.4,7.1-0.6
		c2.1-1.2,3.7-3.4,4.6-6.4l7.7-26.7c0.3-1.2,0.3-1.9-1.1-2.6c-0.3-0.6,0.2-2,0.2-2c4.5,1.2,14.7,4.1,14.7,4.1s-0.2,1.3-0.6,1.8
		c-1.7-0.2-2.8,0.4-3.1,1.5l-7.7,26.5C1296.1,1124.2,1287.9,1128.6,1275.5,1125.1L1275.5,1125.1z M1123,1043.3
		c-0.2-0.2-0.5-0.3-0.7-0.5c0,0,6.1-32.6,7.7-38.1c0.1-0.3,0.1-0.6,0.2-0.9c-2.1,3.4-17.9,28.3-17.9,28.3c-0.2,0.2-0.3,0.5-0.3,0.8
		c0,0.4,0.3,1,1.2,2l-0.9,1.5c0,0-10.9-6.9-11.6-7.4c0,0,0.7-1.3,1.1-1.4c0.9,0.5,1.9,0,2.4-0.7l23-36.3c0.4-0.7,0.5-1.2-0.6-2.6
		c0,0,0.4-1.3,1.2-1.5c0,0,14.7,9.2,14.7,9.4c0,0-0.7,1.1-1.2,1.3c-1-0.2-1.5,0.5-1.7,0.7c-0.5,0.8-5.7,28.3-5.8,28.5l0,0
		c0.2-0.1,22.8-16.6,23.4-17.3c0.2-0.2,0.5-1-0.1-1.8c0-0.6,0.7-1.7,0.7-1.7c0.2-0.1,14.7,9.3,14.7,9.3c0.2,0.7-0.8,1.7-0.8,1.7
		c-1.7-0.4-2.2-0.1-2.6,0.6l-23,36.3c-0.5,0.8-0.4,1.9,0.4,2.5c0.1,0.4-0.8,1.6-0.8,1.6c-0.8-0.4-11.7-7.4-11.7-7.4l1-1.5
		c1.3,0.4,2,0.4,2.3,0.2c0.3-0.1,0.4-0.3,0.6-0.6c0,0,15.8-24.9,18-28.3c-0.2,0.2-0.5,0.4-0.8,0.6c-4.2,3.8-31.2,23.2-31.2,23.2
		C1123.5,1043.6,1123.2,1043.4,1123,1043.3L1123,1043.3z"/>
</g>
<path id="Wordmark" class="st1" d="M236.6,1443.6h1454.5v8.3H236.6V1443.6z M418.4,1257.6l-4,0l-13.8-0.4c-0.8,0-3.3,0-3.3,2.2
	c0,1.1,0.9,1.9,2.1,1.9l4.5,0.4c3.7,0.8,4.8,2.3,5.1,6.9l0.3,29.6v2.9l-58.1-0.3l0.2-2.7l0.3-29.6c0.3-4.7,1.3-6.4,4.3-6.9
	c0,0,3.2-0.4,3.2-0.4c1.2,0,2.2-0.8,2.2-1.9c0-1.4-1.1-2.2-3.3-2.2l-11.2,0.3l-4.1,0l-13.7-0.4c-2.2,0-3.3,0.7-3.3,2.2
	c0,1.1,0.9,1.9,2.1,1.9l4.4,0.4c3.8,0.8,4.9,2.3,5.1,6.9c0,0,0.3,29.7,0.3,29.7v24.2c0,12.9,0,24-0.7,29.7c-0.6,4.1-1.2,6.3-3.2,6.7
	c0,0-3.9,0.5-3.9,0.5c-1.5,0-2.2,0.9-2.2,1.9c0,2.1,2.4,2.1,3.3,2.1l11.2-0.3l3.9,0l15.3,0.4c2.9,0,3.2-1.5,3.2-2.1
	c0-0.9-0.7-1.9-2.1-1.9l-6.1-0.5c-3.2-0.5-4-2.6-4.5-6.7c-0.7-5.7-0.7-16.8-0.7-29.7V1308l58.2,0.2l-0.3,14.2c0,12.9,0,24-0.7,29.7
	c-0.5,4-1.2,6.3-3.2,6.7c0,0-3.9,0.5-3.9,0.5c-1.5,0-2.2,1-2.2,1.9c0,2.1,2.4,2.1,3.3,2.1l11.3-0.3l3.8,0l15.4,0.4
	c3,0,3.3-1.5,3.3-2.1c0-0.9-0.7-1.9-2.2-1.9l-6.1-0.5c-3.3-0.5-4.1-2.6-4.5-6.7c-0.7-5.7-0.7-16.8-0.7-29.7v-24.2l0.3-29.6
	c0.3-4.7,1.3-6.4,4.2-6.9l3.2-0.4c1.3,0,2.2-0.8,2.2-1.9c0-2.2-2.4-2.2-3.3-2.2L418.4,1257.6z M506.6,1256.9
	c-2.8,0.6-5.7,0.7-5.7,0.7c0,0-31.5,0.1-31.5,0.1l-1.9-0.1l-13.7-0.3c-0.8,0-3.3,0-3.3,2.1c0,1.1,0.9,1.8,2.1,1.9l4.4,0.4
	c3.6,0.3,4.8,2.3,5.1,6.9l0.3,29.6v24.2c0,12.9,0,24-0.7,29.7c-0.6,4.1-1.2,6.3-3.2,6.7c-0.6,0.1-3.9,0.5-3.9,0.5
	c-1.6,0.1-2.1,0.9-2.1,1.9c0,2.1,2.4,2.1,3.2,2.1l11.2-0.3l7.5,0.1l28.8,0.6c5.4,0,7.3,0,8.4-4.3c0.7-2.9,1.8-12.4,1.8-13.6
	c0-1,0-3.1-1.9-3.1c-1.7,0-2,1.9-2.2,2.9c-0.9,5.3-2.4,7.8-5.6,9.1c-3.4,1.4-9.3,1.4-12.8,1.4c-13.3,0-14.6-1.7-14.9-10.3l0-17.4
	l0-6.1v-12.1c0,0.1,19.5,0.8,19.5,0.8c4.7,0.5,6,2.4,6.2,4c0.3,1.6,0.5,4.3,0.5,4.3c0.2,1.5,0.8,2.3,2,2.3c2,0,2-2.5,2-3.6l0.5-8.7
	l1.1-7.8c0-2-1.4-2.2-1.7-2.1c-0.7,0-1.8,1.4-2.8,2c-2.2,1.3-2.2,1.4-5.9,1.7l-21.8,0.3l0.2-38.3c1.6-0.3,16.3-0.2,18.5,0.1
	c7.5,0.8,8.3,2.5,8.9,4.1c0,0,0.7,4.5,0.7,4.5c0,2.5,1.5,2.8,2.2,2.8c0.7,0,1.6-0.4,2-2.4c0,0,0.5-7,0.5-7l0.1-2.2
	c0,0,0.8-4.7,0.8-4.7l0.3-1.8c0-2.1-1.2-2.3-1.6-2.3S507.8,1256.7,506.6,1256.9z M693,1263.3l-0.1,78.9c0,12.3-1,16.1-3.4,16.5
	c-2.4,0.4-5.3,0.8-5.3,0.8c-1.6,0.1-2.2,0.9-2.2,1.9c0,2.1,2.3,2.1,3.3,2.1l11-0.3l4.3,0l12.6,0.3c1,0,3.5,0,3.5-2.1
	c0-0.9-0.4-1.7-2.2-1.9c0,0-4-0.4-6.6-0.8c-2.6-0.4-4.3-3.4-4.6-15c0,0-1.5-57.9-1.7-63.1c3.4,3.8,34,37.4,34,37.4
	c14.9,16.1,34.5,36,36,37.4c7.9,7.8,9.2,9.1,10.8,9.1c2.1,0,2.3-1.6,2.3-10.8c0,0,0.2-80.6,0.2-80.6c0-8.6,0.7-10.5,4.3-11.3
	c0,0,3.1-0.4,3.1-0.4c1.8-0.2,2.6-1.1,2.6-2c0-2-2.4-2-3.5-2l-9.2,0.3l-5.4,0l-11.4-0.3c-1.3,0-3.8,0-3.8,2c0,1.3,0.5,1.9,2.2,2
	l6.5,0.7c3.3,0.5,4.4,2.7,4.5,12.1c0,0,1.2,54.3,1.5,67.2c-2.7-2.9-10.3-11.1-10.3-11.1l-20.9-22.8l-45-48.5
	c-1.9-2.2-3.2-3.4-4.4-3.4C693.2,1255.4,693,1258.5,693,1263.3 M828.2,1257.6h-4.3l-11.8-0.3c-0.8,0-3.2,0-3.2,2.2
	c0,1.1,0.7,1.8,2.1,1.9l4,0.5c2.1,0.3,3.6,1.9,3.9,6.8c0,0,0.3,29.6,0.3,29.6v24.2c0,12.9,0,24-0.7,29.7c-0.6,4.2-1.2,6.3-3.2,6.7
	c0,0-3.9,0.5-3.9,0.5c-1.8,0.2-2.2,1-2.2,1.9c0,2.1,2.5,2.1,3.3,2.1l11.3-0.3l3.8,0l15.4,0.4c3,0,3.2-1.5,3.2-2.1
	c0-0.9-0.6-1.8-2.1-1.9l-6-0.5c-3.3-0.5-4.1-2.6-4.5-6.7c-0.7-5.7-0.7-16.8-0.7-29.7v-24.2l0.3-29.6c0.3-4.7,1.3-6.4,4.2-6.9
	c0,0,3.3-0.4,3.3-0.4c1.4-0.1,2.2-0.8,2.2-1.9c0-2.2-2.5-2.2-3.3-2.2L828.2,1257.6z M955,1257.6h-5.2l-10.3-0.3
	c-1.4,0-4.1,0-4.1,2.1c0,0.7,0.3,1.7,2.6,1.9l4.9,0.5c1.1,0.2,1.3,1.3,1.1,2.2l-1.2,4.9c-2.8,9.1-19.8,53.7-28.4,73.9
	c-1.7-4.6-25.5-68-25.5-68c-2-5.1-3.7-9.5-3.7-11c0-0.7,0.2-1.6,1.2-1.8l4.8-0.6c2.4-0.2,2.4-1.4,2.4-2c0-2-3-2-4.8-2l-10,0.3h-6.2
	l-12.7-0.3c-1.9,0-4.6,0-4.6,2c0,1.2,0.6,1.9,2.2,2l4.9,0.5c4.1,0.7,6.2,2.4,9.2,10l34,85.2c2.6,6.4,3.3,8.4,5.6,8.4
	c1.7,0,2.3-1.4,4.3-5.9l2.4-5.2l17-39.9l8.1-19.7l8.1-19.5c3.6-9.1,5.6-11.4,7.2-12.5c2.3-1.5,5.1-1.5,6-1.5c2.3,0,2.7-1.3,2.7-2
	c0-1.3-1.1-2-3.4-2L955,1257.6z M1164.8,1281.2c0,9.4,3.1,18.2,18.3,30.7l6.2,5.1c12.2,10,15.5,15.1,15.5,24
	c0,8.5-6.4,17.2-18.6,17.2c-5,0-16.9-1.3-19.4-13.2l-0.4-4.9c0-0.8,0-2.6-2-2.6c-1.8,0-2,2-2.2,3.1c0,0-0.1,1.4-0.1,1.4l-0.6,13.4
	c0,3.7,0.1,4.9,2.7,6.2c5.3,2.6,11.5,3.8,18.9,3.8c8.4,0,15.8-2.1,21.4-6c9-6.4,12.2-16.4,12.2-23.7c0-10.8-3.4-19.7-20.5-33.2
	l-3.8-3c-13.2-10.8-16.4-15.2-16.4-22.3c0-8.9,6.4-14.9,15.9-14.9c11.4,0,15.2,4.7,16.3,6.8c0.7,1.4,1.6,4.9,1.7,6.5
	c0.1,1,0.3,2.8,2.1,2.8c2,0,2-2.8,2-4.2l0.5-13.5l0-1c0-1.8-1.7-2-2.4-2c-0.7,0-4.6-0.7-4.6-0.7c-3.9-1-8.1-1.4-13-1.4
	C1176.7,1255.4,1164.8,1265.8,1164.8,1281.2 M1460,1257.6l-5.8,0l-6.9-0.3c-2.8,0-3.3,1.2-3.3,1.9c0,1.4,1.4,1.9,2.7,2.3
	c0.7,0.3,1.6,0.4,1.6,2.9c0,2-0.7,4.2-2.2,6.5c-2.3,3.9-17.8,30.5-22,38.8c-4.6-7.6-22.3-38.1-24.3-41.8c-1-1.9-1.6-3.4-1.6-4.9
	c0-0.6,0.4-1.1,1.2-1.6c0,0,0.7-0.3,0.7-0.3c0.9-0.4,1.9-0.7,1.9-1.9c0-1.3-1-2-2.8-2l-9.7,0.3l-5.1,0l-10.4-0.3
	c-2.7,0-2.9,1.7-2.9,2c0,1.2,1,2,2.4,2c1,0,3.4,0.7,5.3,2c2.7,1.8,6.1,5.5,9,9.9c5,7.3,23.3,37.5,24.2,39.5c1.8,4,3.1,6.9,3.1,14
	v11.8l-0.4,13.7c-0.2,2.7-0.9,6.1-3.4,6.6c0,0-3.9,0.5-3.9,0.5c-1.8,0.2-2.2,0.9-2.2,1.9c0,2.1,2.4,2.1,3.2,2.1l11.3-0.3l3.8,0
	l15.3,0.3c2.9,0,3.2-1.5,3.2-2.1c0-0.9-0.7-1.9-2.1-1.9l-6.1-0.5c-3-0.4-4.4-2.4-4.7-6.6l-0.4-13.7v-11.8c0-4.4,0-8.6,2-13.4
	c2.3-5.6,21.5-37.9,26.1-43.5c3.1-3.8,4.5-5.3,7.1-6.8c1.9-1.2,4.3-1.8,5.8-1.8c2.1,0,2.8-1.2,2.8-2.2c0-0.9-0.7-1.9-2.8-1.9
	L1460,1257.6z M1510.7,1310.2c0-21.2,15-54.9,55.3-54.9c33,0,55.1,21.2,55.1,52.7c0,33.2-23.5,57.4-55.9,57.4
	C1527.7,1365.4,1510.7,1336.8,1510.7,1310.2 M1525.9,1306.4c0,30.4,17.7,51.7,43,51.7c6.2,0,37-2.2,37-46.2
	c0-34.2-21.2-49.8-40.8-49.8C1540.9,1262.2,1525.9,1279.1,1525.9,1306.4 M1687.9,1257.5c-0.5,0-1.6,0.1-1.6,0.1
	c0,0-33.8,0.1-33.8,0.1l-1.8-0.1l-13.7-0.3c-0.8,0-3.3,0-3.3,2.2c0,1.1,0.7,1.8,2.2,1.9l4.4,0.4c3.7,0.5,4.9,2.3,5.1,6.9
	c0,0,0.3,29.7,0.3,29.7v24.2c0,12.9,0,24-0.7,29.7c-0.6,4.1-1.2,6.3-3.2,6.7c0,0-3.9,0.5-3.9,0.5c-1.8,0.2-2.1,0.9-2.1,1.9
	c0,2.1,2.5,2.1,3.2,2.1l11.2-0.3l3.9,0l15.3,0.4c2.9,0,3.3-1.5,3.3-2.1c0-0.9-0.5-1.8-2.2-1.9l-6-0.5c-3.3-0.4-4.1-2.6-4.5-6.6
	c-0.7-5.7-0.7-16.9-0.7-29.7v-11.7c5.1-0.2,17.5-0.1,20.6,0.2c3.7,0.5,5.8,2.7,6.3,4.3s0.7,3.5,0.7,4.7c0,1.3,0.8,2.1,2,2.1
	c2,0,2-2.4,2-3.7l0.6-9.1l1.1-7.8c0.2-1.9-1.3-2.1-1.7-2.1c-1,0-1.6,0.8-2.1,1.5c-1.2,1.6-2.4,2.1-5.8,2.3l-6.1,0.1l-17.6,0.1
	l0.1-38.2c0.2-0.5,21.3-0.1,21.3-0.1c4.9,0.1,8,2.1,8.5,3.8c0.4,1.3,1.1,4.8,1.1,4.8c0.5,2.7,1.7,2.7,2,2.7c0.7,0,1.8-0.2,2.1-2.3
	c0,0,0.4-7.5,0.7-9.2c0.1-0.9,0.8-4.7,0.8-4.7l0.3-1.8c0.2-1.5-0.8-2.4-1.9-2.3C1693.1,1256.3,1690.2,1257.3,1687.9,1257.5z
	 M665,1257.6l-4.3,0l-12.7-0.3c-0.8,0-3.2,0-3.2,2.1c0,1.1,0.9,1.9,2.1,1.9l4.4,0.4c4.1,0.5,4.9,2.6,5.1,6.9c0,0,0.3,29.7,0.3,29.7
	v17.2c0,16.5-2.3,26.3-7.7,33.1c-4.9,5.9-12.9,9.5-20.8,9.5c-7.8,0-13.6-1.2-20.1-7.3c-4.9-4.7-10-12.3-10-33.2v-19.3l0.3-29.7
	c0.3-4.8,1.3-6.5,4.2-6.9c0,0,3.3-0.4,3.3-0.4c1.4-0.1,2.2-0.8,2.2-1.9c0-2.1-2.4-2.1-3.3-2.1l-10.2,0.3l-6.3,0l-13-0.3
	c-0.8,0-3.3,0-3.3,2.1c0,1.1,0.9,1.9,2.2,1.9l4.4,0.4c3.6,0.4,4.8,2.3,5.1,6.9l0.3,29.7v20.1c0,22.3,6.6,31.5,12.3,37
	c9.3,8.8,22.2,10.1,29.1,10.1c7.4,0,18.5-1.1,29.1-10.5c11.5-10.3,13-27.8,13-41.9v-14.8l0.3-29.7c0.3-4.7,1.3-6.3,4.2-6.9
	c0,0,3.2-0.4,3.2-0.4c1.4-0.1,2.2-0.8,2.2-1.9c0-2.1-2.4-2.1-3.2-2.1L665,1257.6z M227.5,1258.4c-0.2,0.5-3.2,13.3-3.2,15
	c0,1.7,0.9,2.3,1.8,2.3c1.4,0,2-1.2,2.3-2.1c0,0,2.2-4.1,2.2-4.1c1.9-2.9,4.9-3.8,13.2-3.9c0,0,15.2-0.2,19.3-0.3v57.2
	c0,12.9,0,24-0.7,29.7c-0.6,4.1-1.2,6.3-3.2,6.7c-3.2,0.5-3.9,0.5-3.9,0.5c-1.5,0-2.1,0.9-2.1,1.9c0,2.1,2.4,2.1,3.2,2.1l11.3-0.3
	l3.8,0l15.3,0.4c2.9,0,3.2-1.5,3.2-2.1c0-0.9-0.7-1.9-2.1-1.9l-6-0.5c-3.3-0.5-4.1-2.6-4.5-6.6c-0.7-5.7-0.7-16.9-0.7-29.8v-57.2
	c1.9,0,16.3,0.3,16.3,0.3c13.2,0.3,15.5,3.5,15.9,6.7l0.1,1.5c0.1,1.3,0.3,3.3,2.2,3.3c0.3,0,2-0.1,2-2.8l0.1-4.4l0.3-10.7
	c0-0.8,0-2.8-1.7-2.8l-1.7,0.3c-1.9,0.4-5.6,1.1-12,1.1h-51.6c0,0-9.7-0.5-10.7-0.7s-4.4-1.1-4.4-1.1l-1.7-0.5c0,0-0.1,0-0.1,0
	C228.5,1255.5,228,1257,227.5,1258.4 M1032.5,1256.9c-2.8,0.6-5.7,0.7-5.7,0.7c0,0-31.5,0.1-31.5,0.1l-1.9-0.1l-13.7-0.3
	c-0.8,0-3.3,0-3.3,2.1c0,1.1,0.9,1.8,2.1,1.9l4.4,0.4c3.6,0.3,4.8,2.3,5.1,6.9l0.3,29.6v24.2c0,12.9,0,24-0.7,29.7
	c-0.6,4.1-1.2,6.3-3.2,6.7c-0.6,0.1-3.9,0.5-3.9,0.5c-1.6,0.1-2.1,0.9-2.1,1.9c0,2.1,2.4,2.1,3.2,2.1l11.2-0.3l7.5,0.1l28.8,0.6
	c5.4,0,7.3,0,8.4-4.3c0.7-2.9,1.8-12.4,1.8-13.6c0-1,0-3.1-1.9-3.1c-1.7,0-2,1.9-2.2,2.9c-0.9,5.3-2.4,7.8-5.6,9.1
	c-3.4,1.4-9.3,1.4-12.8,1.4c-13.3,0-14.6-1.7-14.9-10.3l0-17.4l0-6.1v-12.1c0,0.1,19.5,0.8,19.5,0.8c4.7,0.5,6,2.4,6.2,4
	c0.3,1.6,0.5,4.3,0.5,4.3c0.2,1.5,0.8,2.3,2,2.3c2,0,2-2.5,2-3.6l0.5-8.7l1.1-7.8c0-2-1.4-2.2-1.7-2.1c-0.7,0-1.8,1.4-2.8,2
	c-2.2,1.3-2.2,1.4-5.9,1.7l-21.8,0.3l0.2-38.3c1.6-0.3,16.3-0.2,18.5,0.1c7.5,0.8,8.3,2.5,8.9,4.1c0,0,0.7,4.5,0.7,4.5
	c0,2.5,1.5,2.8,2.2,2.8c0.7,0,1.6-0.4,2-2.4c0,0,0.5-7,0.5-7l0.1-2.2c0,0,0.8-4.7,0.8-4.7l0.3-1.8c0-2.1-1.2-2.3-1.6-2.3
	S1033.7,1256.7,1032.5,1256.9z M1247.6,1257.6h-4.3l-11.8-0.3c-0.8,0-3.2,0-3.2,2.2c0,1.1,0.7,1.8,2.1,1.9l4,0.5
	c2.1,0.3,3.6,1.9,3.9,6.8c0,0,0.3,29.6,0.3,29.6v24.2c0,12.9,0,24-0.7,29.7c-0.6,4.2-1.2,6.3-3.2,6.7c0,0-3.9,0.5-3.9,0.5
	c-1.8,0.2-2.2,1-2.2,1.9c0,2.1,2.5,2.1,3.3,2.1l11.3-0.3l3.8,0l15.4,0.4c3,0,3.2-1.5,3.2-2.1c0-0.9-0.6-1.8-2.1-1.9l-6-0.5
	c-3.3-0.5-4.1-2.6-4.5-6.7c-0.7-5.7-0.7-16.8-0.7-29.7v-24.2l0.3-29.6c0.3-4.7,1.3-6.4,4.2-6.9c0,0,3.3-0.4,3.3-0.4
	c1.4-0.1,2.2-0.8,2.2-1.9c0-2.2-2.5-2.2-3.3-2.2L1247.6,1257.6z M1274.7,1258.4c-0.2,0.5-3.2,13.3-3.2,15c0,1.7,0.9,2.3,1.8,2.3
	c1.4,0,2-1.2,2.3-2.1c0,0,2.2-4.1,2.2-4.1c1.9-2.9,4.9-3.8,13.2-3.9c0,0,15.2-0.2,19.3-0.3v57.2c0,12.9,0,24-0.7,29.7
	c-0.6,4.1-1.2,6.3-3.2,6.7c-3.2,0.5-3.9,0.5-3.9,0.5c-1.5,0-2.1,0.9-2.1,1.9c0,2.1,2.4,2.1,3.2,2.1l11.3-0.3l3.8,0l15.3,0.4
	c2.9,0,3.2-1.5,3.2-2.1c0-0.9-0.7-1.9-2.1-1.9l-6-0.5c-3.3-0.5-4.1-2.6-4.5-6.6c-0.7-5.7-0.7-16.9-0.7-29.8v-57.2
	c1.9,0,16.3,0.3,16.3,0.3c13.2,0.3,15.5,3.5,15.9,6.7l0.1,1.5c0.1,1.3,0.3,3.3,2.2,3.3c0.3,0,2-0.1,2-2.8l0.1-4.4l0.3-10.7
	c0-0.8,0-2.8-1.7-2.8l-1.7,0.3c-1.9,0.4-5.6,1.1-12,1.1h-51.6c0,0-9.7-0.5-10.7-0.7s-4.4-1.1-4.4-1.1l-1.7-0.5c0,0-0.1,0-0.1,0
	C1275.6,1255.5,1275.1,1257,1274.7,1258.4 M1153,1361.3c0,2.1-2.6,2.1-4.4,2.1h-5.2c-7.7,0-11.4-0.7-15.2-2.7
	c-5.6-3-10.2-9-17.1-18.1c0,0-16.5-23.1-17.1-23.2c0,0-17.6-0.3-17.6-0.2v3.3c0,12.9,0,24,0.7,29.8c0.4,4.1,1.2,6.2,4.5,6.6l6,0.5
	c1.8,0.1,2.2,1,2.2,1.9c0,0.6-0.3,2.1-3.3,2.1l-15.3-0.4c0,0-1.6,0-2.2,0l-12.4,0.4c-0.8,0-3.3,0-3.3-2.1c0-1,0.4-1.7,2.1-1.9
	c0,0,3.9-0.5,3.9-0.5c2-0.4,2.6-2.7,3.2-6.7c0.7-5.7,0.7-16.8,0.7-29.7v-24.2l-0.3-29.7c-0.3-4.6-1.5-6.5-5.1-6.9l-4.4-0.4
	c-1.3-0.1-2.2-0.8-2.2-1.9c0-2.1,2.4-2.1,3.3-2.1l13.7,0.3l6.4-0.1l11.7-0.3c8.5,0,18.1,0.7,25.8,6.2c3.7,2.7,9.9,9.8,9.9,19.6
	c0,11.3-5.2,21.4-16.3,31.9c0.8,1,2.7,3.4,2.7,3.4c9.7,12.5,18.1,23.4,25.4,31c7,7.4,12.6,9,16.2,9.6l0.7,0.1
	C1152,1359.3,1153,1360.3,1153,1361.3z M1108.5,1290.3c0-16.6-8.5-26.5-22.8-26.5c-4.3,0-7.8,0.5-8.9,0.8c-0.3,0.1-0.4,0.3-0.4,0.7
	v45c0,0.3,0,0.5,0.5,0.8c1.6,1,7.4,2,13.9,2c2.9,0,6.7-0.3,9.7-2.4C1105.6,1307.2,1108.5,1299.6,1108.5,1290.3z M387.4,1533.7
	c0,0-52,109.3-56.8,119.2c-0.9-1.9-57-117.7-57-117.7c-2.6-5.3-4-6.8-6.1-6.8c-1.4,0-3.2,1-4.1,5.9l-20.8,137.2
	c-1.1,7.7-3,15.2-8.2,16.2c0,0-6.2,0.6-6.2,0.6c-1.6,0.1-3.9,0-3.9,2c0,2.9,3.1,2.9,4.3,2.9l12.9-0.4l7.9-0.3l6.7,0.2l15.4,0.4
	c2.7,0,5.6-0.2,5.6-2.9c0-1.3-1.1-1.7-3.7-2l-8.7-1.1c-4-0.9-5.9-3-5.9-6.2l0.6-9.8c0,0,9.6-73.3,10.8-82.7
	c1.7,2.8,10.2,20.9,10.2,20.9l11.6,24.9c2.5,5.8,18.8,37.5,24.2,47.8l0.6,1.2c3.2,6,5.1,9.6,7.2,9.6c2.3,0,3.4-2.1,8.3-12.1
	l45.9-95.5c0,0.8,12.5,92.4,12.5,92.4c0.3,1.9,0.4,3.4,0.4,4.6c0,2.5-0.5,3.7-1.1,3.9c-1.4,0.6-2.7,1.4-2.7,2.8
	c0,1.9,2.2,2.5,6.6,2.8c8.3,0.6,37.3,1.3,42.8,1.3c3.9,0,6-1,6-2.9c0-2-2.6-2-3.9-2c-2.9,0-6.9-0.2-12.9-2.1
	c-6.2-1.9-8.1-8.2-9.9-20.8l-19.2-130c-0.7-4.7-2.1-7-4.3-7C390.3,1528.3,389.1,1530.3,387.4,1533.7 M632.7,1533.3l-11.1,0.3
	l-10.7-0.2l-18.1-0.4c-2.5,0-5.1,0.2-5.1,2.4c0,2.4,2.1,2.2,4.1,2.4l6.8,0.6c6.8,0.6,8.3,4.9,8.6,11.5c0.4,6.7,0.4,12.5,0.4,44.6v37
	c0,19.3,0,35.9-1.1,44.7c-0.9,6.8-2.1,10.4-5.7,11.1c0,0-7.5,0.8-7.5,0.8c-2,0.2-3.9,0.2-3.9,2.2c0,2.6,3.6,2.6,4.7,2.6l14.5-0.4
	c0,0,12-0.2,12-0.2l32.8,0.8l28.4,0.4c11.1,0,12.4-1.1,13.8-6.1c1.7-6.2,3.2-21.9,3.2-24.3c0-2,0-4.1-2.2-4.1
	c-2.5,0-2.7,2.3-2.9,3.6c-0.4,3.9-2.9,9.7-5.3,12.3c-4.9,5.3-12.4,5.7-24.2,5.7c-16.8,0-21.8-1.6-25.1-4.5
	c-4.2-3.6-4.2-18.3-4.2-44.8v-37c0-32.1,0-37.9,0.4-44.6c0.4-7.7,2.3-10.6,7.4-11.5l8.1-0.6c2.2,0,4.3-0.3,4.3-2.4
	c0-2.1-2.4-2.4-4.9-2.4L632.7,1533.3z M766.8,1680.7c5.6,2.3,10.4,2.5,15.2,2.5c4.2,0,24.9-1.3,24.9-26.4c0-8.2-2-28.7-20.2-41.5h0
	c-4.4-3.2-9.2-4.5-17.2-4.9l-9-0.2c-0.4,0-0.7,0.1-0.7,1v49.9C759.8,1674.8,760.4,1678.1,766.8,1680.7 M768.1,1542.6
	c0,0-6.8,0.4-6.8,0.4c-1.1,0.3-1.5,0.8-1.5,3.1v52c0,1.5,0.4,1.7,1.1,1.8l9.8,0.6c6.2,0,11.1-0.7,14.8-3.9
	c5.5-4.5,8.4-12.1,8.4-21.9C793.9,1562.3,786.9,1542.6,768.1,1542.6 M771.7,1532.9c42.1,0,45.3,24.6,45.3,32.1
	c0,16.2-8.4,26.4-21,36.6c18.4,6.6,37.8,21.8,37.8,45.6c0,23.1-17.5,46.4-56.7,46.4l-6.6-0.3c0,0-8.2-0.4-8.2-0.4l-15.7-0.6
	c0,0-12,0.2-12,0.2l-14.5,0.4c-1.2,0-4.7,0-4.7-2.6c0-2,1.8-2.1,3.9-2.2c0,0,7.5-0.8,7.5-0.8c3.9-0.8,4.9-5.5,5.7-11.1
	c1-8.8,1-25.5,1-44.7v-37c0-32.1,0-37.8-0.4-44.6c-0.4-6.6-1.2-10.8-8.7-11.5l-8.1-0.6c-2.4-0.2-4.1,0-4.1-2.4
	c0-2.2,2.7-2.4,5.1-2.4l20.5,0.4l8.1,0.2l15.2-0.4L771.7,1532.9z M885.4,1606.5c0,45.9,26.3,78,64.1,78c14.5,0,48.3-6.6,48.3-67.5
	c0-44.7-25.1-75.8-61.1-75.8C917.5,1541.1,885.4,1549.6,885.4,1606.5 M855.4,1613c0-40,27.4-83,87.4-83c52.8,0,85.5,30.4,85.5,79.2
	c0,51.1-36,86.8-87.6,86.8C882.1,1696,855.4,1653,855.4,1613 M1184.5,1533.4l-30.3-0.4c-2.4,0-4.9,0.2-4.9,2.4c0,2.4,6.6,2.5,11.5,3
	c6,0.6,8.3,4.9,8.7,11.5c0.4,6.7,0.4,12.5,0.4,44.6v26.3c0,22.5-0.9,40.7-12,51.8c-10.1,10.1-23.4,11.2-28.7,11.2
	c-7.3,0-16.8-1-26-8.5c-8.4-6.9-16.2-17.9-16.2-51.4v-29.5c0-32.1,0-37.8,0.4-44.6c0.5-7.7,2.3-10.6,7.4-11.5l6-0.6
	c1.7-0.2,3.9,0,3.9-2.4c0-2.2-2.7-2.4-5.1-2.4l-15.4,0.4l-10.5,0.3l-11.2-0.3l-19.5-0.4c-2.5,0-5.1,0.2-5.1,2.4
	c0,2.4,2.2,2.3,4.1,2.4c0,0,1.9,0.1,8.1,0.6c6.2,0.5,8.3,4.9,8.6,11.5c0.4,6.7,0.4,12.5,0.4,44.6v30.7c0,26.7,6,44.5,18.9,56.1
	c16.2,14.7,37.8,14.7,47,14.7c12.3,0,28.3-1.7,44.1-15.3c17.7-15.2,20.2-39.6,20.2-63.7v-22.5c0-32.1,0-37.8,0.4-44.6
	c0.4-7.7,2.3-10.6,7.4-11.5c0,0,6-0.6,6-0.6c2.5-0.2,4.3-0.3,4.3-2.4c0-2.2-2.5-2.4-4.9-2.4L1184.5,1533.4z M1272.4,1614.4
	c3.9,1.3,9.8,2.1,15.8,2.1c8.4,0,11-0.9,14.6-3.5c4.6-3.3,12.2-11.8,12.2-31.1c0-30-19.9-38-31.7-38c-5.7,0-9.1,0.3-11,0.8
	c-1.2,0.3-1.5,0.9-1.5,2.4v64C1270.9,1613.3,1271.3,1613.9,1272.4,1614.4 M1287.4,1533c12.7,0,27.2,1.1,39,9.1
	c5,3.4,14.5,13.9,14.5,29.2c0,17.3-8.3,31.4-27.6,47.2c0.5,0.7,7.1,8.9,7.1,8.9c15.4,19.4,27.6,34.7,38.3,46
	c11.4,11.8,19.6,13.5,23,14.2l0.5,0.1c2.4,0.5,3,1.8,3,2.7c0,2.6-3.1,2.6-4.5,2.6h-14.4c-11.5,0-17.1-1-22.8-4.1
	c-8.9-4.7-16.7-14.2-29-31.1l-10.7-15.1c0,0-10.1-13.9-10.1-13.9c-0.9-1.1-1.9-1.3-3.4-1.3l-18.3-0.4c-0.9,0-1.2,0.3-1.2,1.2v2.9
	c0,19.4,0,36.2,1,45c0.7,6.6,2.1,10.4,7.8,11.1l10.2,0.8c2.7,0,3,1.5,3,2.2c0,2.6-3.6,2.6-4.7,2.6l-24.1-0.5l-6.8-0.2l-8.5,0.2
	l-17.1,0.4c-1.2,0-4.7,0-4.7-2.6c0-2,2-2,3.9-2.2l7.5-0.8c4-0.8,4.9-5.5,5.7-11.1c1-8.8,1-25.5,1-44.7v-37c0-32.1,0-37.9-0.4-44.6
	c-0.4-6.7-1.8-10.7-8.7-11.5l-8.1-0.6c-1.3,0-4.1,0-4.1-2.4c0-2.2,2.7-2.4,5.1-2.4l20.4,0.4l8.4,0.2l15.5-0.3L1287.4,1533z
	 M1419,1537l-1.9,124.6c-0.2,18.1-1.1,24-6.2,25.6c-3.1,0.9-5.6,1-7.7,1c-1.1,0-3.9,0-3.9,2.2c0,2.6,3,2.6,5.1,2.6l17.6-0.5l9.4,0
	l18.9,0.4c1.7,0,5.4,0,5.4-2.6c0-2.2-2.9-2.2-4.1-2.2c-3.1,0-5.8-0.2-9.4-1.5c-4.5-1.6-6.6-8.4-7-22.9c0,0-2.3-85.5-2.3-87.4
	c1.2,1,4.3,4.4,4.3,4.4c8.9,9.7,27.3,29.9,45.5,48.1l27.9,27.9l34.2,33.9c2.4,2.4,5,4.8,7.5,4.8c2.9,0,3.2-3.5,3.2-7l2.3-132.8
	c0.2-11.8,0.6-16.4,6-17.4c0,0,6.2-0.6,6.2-0.6c3.3-0.2,4.3-0.8,4.3-2.4c0-2.4-3.2-2.4-5.4-2.4l-15.4,0.5l-3.8,0.2l-7.4-0.2
	l-16.7-0.4c-2.5,0-6,0-6,2.4c0,2.1,2.1,2.4,3.9,2.4c2.9,0,6.5,0,9.6,1.2c4.4,1.9,6.6,5.1,6.8,18.5c0,0,2,89,2.1,94.6l-0.5-0.6
	c0-0.2-14.8-15.6-14.8-15.6l-31.2-32.3c-32-31.8-64.9-67.2-65.2-67.5l-2-2.1c-2.5-2.7-4.1-4.5-6.2-4.5
	C1419.3,1529.4,1419,1533.7,1419,1537 M1676.9,1533.4c-2.9,0.2-37.9,0.2-52.5,0.2l-10.7-0.3l-2.5-0.1c0,0-17.1-0.2-17.1-0.2
	c-2.5,0-5.2,0.2-5.2,2.4c0,2.4,2.6,2.4,4.1,2.4l8.1,0.6c7.4,0.9,8.3,4.9,8.7,11.5c0.4,6.7,0.4,12.5,0.4,44.6v37
	c0,19.3,0,36-1.1,44.8c-0.8,5.6-1.7,10.3-5.7,11.1l-7.5,0.8c-2.3,0.2-3.9,0.2-3.9,2.2c0,2.6,3.5,2.6,4.7,2.6l14.5-0.4
	c0,0,12-0.2,12-0.2l21.9,0.6l6.1,0.2l30.3,0.5c7.9,0,10.3,0,11.9-5.9c1.1-4.3,2.8-18.5,2.8-23.5c0-2.1,0-4.3-2.2-4.3
	c-2,0-2.5,1.5-2.8,3.6c-1.5,8.7-4,12.8-9.2,15.2c-5.4,2.5-14.3,2.5-19.6,2.5c-21.8,0-24.3-3.5-24.7-17.2l0-23.9l0-8.7v-16.6
	c0-1.6,0.4-1.6,0.7-1.6c4.7,0,25.8,0.2,29.8,0.6c6.7,0.7,10.2,3.1,11.3,7.8l0.7,5.6l0.1,1.9c0,1.5,0.8,2.4,2.4,2.4
	c2.4,0,2.4-2.9,2.4-4.5l0.4-6.8l0.4-7.3l1.4-13.1l0.3-2.3c0-1.4-0.7-2.2-2-2.2c-1.2,0-2.1,1-3.5,2.6c-2,2.3-5.1,2.9-10,3.3
	c-3.1,0.3-15,0.4-33.6,0.4c-0.7,0-0.9-0.2-0.9-1.8v-53.2c0-1.6,0.5-1.6,0.9-1.6c4.1,0,26.2,0.4,29.8,0.8c10.6,1.3,12.3,3.8,13.7,7.3
	c1.2,2.8,1.2,6.9,1.2,7.4c0,1,0,3.5,2.4,3.5c2.1,0,2.5-2.1,2.6-2.7c0,0,0.8-9.6,0.8-9.6l0.3-4.3c0,0,1.4-11.6,1.4-11.6l0.3-2.1
	c0.2-1.9-0.6-2.4-1.8-2.4C1687.5,1531.3,1680.8,1533.3,1676.9,1533.4z M545.5,1533.4c-2.9,0.2-37.9,0.2-52.5,0.2l-10.7-0.3l-2.5-0.1
	c0,0-17.1-0.2-17.1-0.2c-2.5,0-5.2,0.2-5.2,2.4c0,2.4,2.6,2.4,4.1,2.4l8.1,0.6c7.4,0.9,8.3,4.9,8.7,11.5c0.4,6.7,0.4,12.5,0.4,44.6
	v37c0,19.3,0,36-1.1,44.8c-0.8,5.6-1.7,10.3-5.7,11.1l-7.5,0.8c-2.3,0.2-3.9,0.2-3.9,2.2c0,2.6,3.5,2.6,4.7,2.6l14.5-0.4
	c0,0,12-0.2,12-0.2l21.9,0.6l6.1,0.2l30.3,0.5c7.9,0,10.3,0,11.9-5.9c1.1-4.3,2.8-18.5,2.8-23.5c0-2.1,0-4.3-2.2-4.3
	c-2,0-2.5,1.5-2.8,3.6c-1.5,8.7-4,12.8-9.2,15.2c-5.4,2.5-14.3,2.5-19.6,2.5c-21.8,0-24.3-3.5-24.7-17.2l0-23.9l0-8.7v-16.6
	c0-1.6,0.4-1.6,0.7-1.6c4.7,0,25.8,0.2,29.8,0.6c6.7,0.7,10.2,3.1,11.3,7.8l0.7,5.6l0.1,1.9c0,1.5,0.8,2.4,2.4,2.4
	c2.4,0,2.4-2.9,2.4-4.5l0.4-6.8l0.4-7.3l1.4-13.1l0.3-2.3c0-1.4-0.7-2.2-2-2.2c-1.2,0-2.1,1-3.5,2.6c-2,2.3-5.1,2.9-10,3.3
	c-3.1,0.3-15,0.4-33.6,0.4c-0.7,0-0.9-0.2-0.9-1.8v-53.2c0-1.6,0.5-1.6,0.9-1.6c4.1,0,26.2,0.4,29.8,0.8c10.6,1.3,12.3,3.8,13.7,7.3
	c1.2,2.8,1.2,6.9,1.2,7.4c0,1,0,3.5,2.4,3.5c2.1,0,2.5-2.1,2.6-2.7c0,0,0.8-9.6,0.8-9.6l0.3-4.3c0,0,1.4-11.6,1.4-11.6l0.3-2.1
	c0.2-1.9-0.6-2.4-1.8-2.4C556.1,1531.3,549.4,1533.3,545.5,1533.4z"/>
</svg>
